<?xml version="1.0" encoding="UTF-8"?>
<svg id="Capa_1" data-name="Capa 1" xmlns="http://www.w3.org/2000/svg" viewBox="0 0 1201 801">
  <defs>
    <style>
      .cls-1 {
        fill: none;
        stroke: #000;
        stroke-miterlimit: 10;
      }
    </style>
  </defs>
  <rect class="cls-1" x=".5" y=".5" width="1200" height="800"/>
  <g>
    <g>
      <path d="m571.55,264.02c2.8-.84,5.8-1.35,8.3-2.75,5.96-3.33,12.41-4.81,19.01-5.93,4.86-.83,9.71-1.67,14.56-2.5,4.39-.75,8.76-1.75,13.18-2.18,4.65-.45,9.35-.33,14.03-.5,2.02-.08,4.08-.61,6.05-.37,6.75.84,13.47,1.97,20.21,2.91,1.12.16,2.29-.11,3.71-.2-.27-.82-.32-1.32-.57-1.69-4.22-6.32-9.38-11.55-15.99-15.55-6.91-4.18-14.25-6.9-22.08-8.37-4.33-.81-8.69-2.01-13.18-.75-3.79,1.06-7.58,2.15-11.41,3.07-6.85,1.66-13.07,4.91-19.2,8.16-2.38,1.26-3.9,1.59-6.24.16,0-.97-.4-2.25.07-2.96,1.53-2.33,3.37-4.45,5.29-6.9-1.03-.47-1.74-1.04-2.47-1.08-7.99-.49-16.03-.63-23.8,1.37-5.26,1.36-10.24,3.77-15.35,5.71-.16.06-.4.18-.41.29-.27,2.61-2.3,2.57-4.18,2.94-.79.15-1.51.8-2.19,1.33-3.78,2.97-7.57,5.91-11.25,8.99-.94.79-1.49,2.04-2.33,3.24,4.59,0,8.67.33,12.67-.07,7.64-.76,7.62-.93,13.24,4.12-3.14,3.85-7.4,5.29-12.09,6.01-2.19.34-4.47.7-6.48,1.57-5.04,2.17-9.84,4.93-14.93,6.94-8.4,3.31-14.33,9.78-20.55,15.76-4.11,3.95-5.64,10.03-4.8,15.23,1.44,8.87,5.63,16.74,13.89,21.73,3.2,1.93,6.01,4.5,8.87,6.69-.18,3.31-1.93,4.08-4.58,3.8-4.04-.43-8.09-1.61-12.15-.08,1.37,5.27,1.41,5.34,7.6,10.28,4.34,3.46,9.32,3.32,13.47-.15,2.08-1.73,4.34-3.29,6.7-4.63,5.03-2.85,10.23-5.34,15.74-7.17,3.89-1.3,7.61-3.1,11.48-4.45,2.84-.99,5.93-2.6,8.68-2.23,7.33.98,13.9-3.88,21.17-2.18,1.99-2.46,4.36-.44,6.55-.52.61-.02,1.26.49,1.86.44,4.08-.34,8.15-1.12,12.22-1.06,4.76.07,9.5.85,14.25,1.35,4.13.43,4.13.44,5.21,4.93-1.29.53-2.61,1.38-4.03,1.59-5.58.81-11.19,1.49-16.8,2.08-5.94.63-11.75,2.18-17.79,2.28-1.96.03-3.87,1.63-5.87,1.84-6.43.69-12.68,2.15-18.8,4.14-2.7.88-5.27,2.18-7.84,3.39-2.32,1.1-4.71,2.14-6.82,3.58-2.05,1.4-4.41.05-6.56,1.45-4.57,2.99-9.51,5.4-14.24,8.16-5.35,3.12-6.86,8.32-7.3,14.04-.23,2.98.71,5.4,3.23,6.92,5.71-3.7,11.1-7.65,16.91-10.82,6.03-3.28,12.35-6.13,18.79-8.53,5.35-2,10.99-3.29,16.59-4.47,4.34-.92,8.8-1.52,13.23-1.66,9.26-.3,18.55-.62,27.79-.16,9.11.45,17.74,3.6,26.43,6.3,9.85,3.06,18.68,7.92,26.95,13.94,2.68,1.95,5.29,3.98,8.15,6.14.74-.61,1.24-.87,1.49-1.28.35-.56.62-1.22.73-1.87,1.06-6.23-1.31-11.33-5.76-15.38-3.35-3.06-6.99-5.92-10.86-8.27-6.21-3.78-11.96-8.78-20.04-8.37-1.52.08-3.11-1.21-4.74-1.9,2.22-4.82,5.97-5.16,10.11-4.39,15.75,2.93,29.17,10.21,40.4,21.83,4.98-4.76,8.48-10.33,10.25-16.94,1.25-4.66-1.21-7.34-5.82-6.29-2.17.49-4.32,1.23-6.36,2.11-3.8,1.63-4.25,1.47-5.65-3.07,3.72-2.8,7.42-5.85,11.38-8.49,4.39-2.93,7.86-6.64,10.7-11,2.3-3.53,3.89-7.3,3.21-11.66-.44-2.85-.9-5.7-1.37-8.55-1.56-9.61-8.2-15.61-15.84-20.07-5.84-3.41-12.58-5.55-19.16-7.4-11.08-3.11-22.54-4.61-34-5.35-7.45-.48-15.03-.77-22.37,1.54-3.12.98-6.31,1.72-9.48,2.52-4.71,1.19-9.51,2.1-14.13,3.59-3.14,1.01-6.09,2.69-9.03,4.25-4.24,2.25-8.39,4.66-13.12,7.31-.85-1.66-2.05-3.04-2.25-4.56-.55-4.2,3.72-9.98,7.86-11.22Z"/>
      <path d="m672.66,414.88c1.87-1.98,2.27-4.43,1.83-6.79-1.16-6.27-2.39-12.56-4.12-18.69-1.25-4.41-4.06-7.96-8.35-10.1-.9-.45-1.61-1.28-2.49-1.81-4.06-2.49-7.94-5.4-12.27-7.27-5.08-2.18-10.53-3.52-15.86-5.08-7.35-2.15-14.87-3.25-22.51-3.75-3.31-.22-6.9.93-9.87-1.63-.29-.25-1.17-.24-1.47,0-2.8,2.41-6.19,1.36-9.3,1.59-7.6.56-15.14,1.43-22.42,3.76-7.18,2.3-14.42,4.48-21.03,8.24-1.1.63-1.86,1.86-2.95,2.51-3.5,2.09-7.22,3.83-10.57,6.13-1.6,1.09-3.12,2.94-3.72,4.76-1.73,5.22-2.98,10.59-4.4,15.91-1.67,6.25-.98,11.71,4.02,16.57,3.61,3.51,6.13,7.98,4.95,13.49-.78,3.67-1.51,7.37-2.58,10.96-1.44,4.86.71,7.78,4.92,9.91,2.12,1.07,4.8,1.3,6.59,2.71,6.08,4.8,13.63,4.86,20.55,6.92,1.8.53,3.68.53,5.09-1.47.74-1.05,2.25-1.54,3.34-2.36,3.57-2.7,7.12-5.35,12-4.98.53.04,1.14-.93,2.17-1.83-4.86-1.87-6.26-5.39-6.7-9.77-.24-2.38.57-3.57,2.47-4.49,3.71-1.8,7.42-3.61,11.08-5.39,2.46,3.26,2.25,5.14-.56,6.84-2,1.21-3.98,2.47-6.71,4.17,1.91,1.96,3.23,3.68,4.89,4.95,3.15,2.42,6.48,4.6,10.02,7.06.03-.01.71-.07.93-.42,1.79-2.88,4.35-4.52,7.44-5.91,2.15-.97,3.7-3.29,6.05-5.52-2.72-1.76-4.66-3.05-6.64-4.29-2.6-1.63-2.81-2.92-.81-5.52,1.34-1.74,1.74-6.97.3-7.46-4.4-1.51-2.37-3.88-.92-5.92,1.22-1.72,1.4-3.06-.05-4.58-.35-.37-.87-.78-.91-1.21-.12-1.11-.32-2.39.13-3.29.24-.49,1.83-.66,2.67-.43,1.77.48,3.56,1.13,5.14,2.05,2.92,1.71,5.49,4.19,8.57,5.41,9.05,3.59,18.16,3.24,27.15-.67,1.84-.8,3.95-1.34,5.94-1.36,2.76-.03,3.85,2.14,1.98,4.1-2.22,2.31-4.79,5.04-7.68,5.79-6.57,1.69-13.12,4.1-20.2,3.28-3.17-.37-6.42-.06-9.8-.06-.19,1.22-.64,2.16-.39,2.85.7,1.92,1.51,3.85,2.59,5.57,3.28,5.22,3.31,6.83-.17,11.65-.8,1.11-1.51,2.28-2.39,3.64,2.94,1.75,5.71,2.94,7.89,4.81,4.19,3.58,8.33,5.81,14.12,3.79,4.63-1.61,9.61-2.14,14.02-4.54,2.67-1.46,5.37-2.93,8.2-4.03,4.35-1.69,6.49-5.33,5.5-9.71-.61-2.67-.88-5.46-1.82-8-2.37-6.4-.61-11.71,3.63-16.59,1.23-1.42,2.18-3.1,3.47-4.47Zm-143.79-19.86c-.25-5.23,3.54-6.89,6.32-8.6,3.28-2.02,7.07-2.9,11.29-2.71,5.43.24,10.86.1,16.15,1.49,3.11.82,4.04-1.12,4.64-3.4,1.02-3.87,3.53-6.62,6.57-8.92.97-.73,2.38-.88,3.59-1.3,3.04,6.42-2.75,11.18-2.03,17.49,3.9,1.3,8.02,2.84,12.23,4.01,2.66.74,4.15,2.23,4.67,4.84-1.03,1.73-2.1,3.45-3.09,5.21-1.6,2.88-7.04,7.66-9.61,9.12-3.61,2.04-7.16,1.07-10.57.05-2.19-.66-3.13-.24-4.11,1.59-1.58,2.93-1.65,2.89-5.35,4.17-.43-3.17-.85-6.2-1.34-9.81-5.15.76-9.76,1.44-14.36,2.12-.19.46-.38.93-.56,1.39-.84-1.05-1.67-2.11-2.69-3.39,4.33-3.83,8.41-7.44,12.48-11.03-7.63-4.05-15.89-3.04-24.23-2.3Zm60.78,30.97c-1.35-.2-2.65-.69-4-.97-4.5-.92-7.75.66-9.64,5.67-9.03-1.19-18.1-1.97-26.96-3.8-3-.62-5.71-3.63-8.08-6.02-1.65-1.66-.48-3.85,1.95-3.87,1.84-.01,3.9.22,5.49,1.06,6.25,3.31,12.96,3.85,19.69,3.05,3.38-.4,6.71-2.06,9.85-3.59,3.84-1.87,7.69-3.57,12.25-4.39-1.37,3.3-.74,5.58,1.49,7.85,1.06,1.07,1.3,2.94,2.15,5.04-1.96,0-3.09.13-4.19-.03Zm54.04-28.69c3.85,3.37,7.95,6.96,12.17,10.65-.85,1.04-1.67,2.05-2.3,2.82-8.94-1.64-17.43-2.76-25.77,1.41-5.04,2.53-9.37.59-13.95-2.32-5.6-3.56-6.99-8.77-8.68-14.52.74-.56,1.47-1.55,2.35-1.72,11.31-2.24,21.41-8.86,33.18-9.3,5.97-.22,12.15-1.99,17.86.82,3.17,1.56,5.98,3.93,8.79,6.14.6.47.49,1.84.96,3.95-8.88-.36-17.14-2.5-24.62,2.07Z"/>
      <path d="m642.5,542.59c.68,4.22,4.23,5.46,8.18,3.83,5.46-2.27,8.08-6.96,10.22-11.74,2.9-6.47,6.03-12.67,11.13-17.52-1.86-8.69-6.31-15.33-13.09-21.63-.39,5.37-.41,9.73-1.14,13.95-.42,2.42-1.55,5.06-3.19,6.82-1.55,1.67-3.88,3.75-6.76,1.58-1.78-1.34-3.31-.64-4.55.81-5.43,6.38-12.03,10.01-20.69,9.52-1.52-.08-3.4.85-4.63,1.89-5.14,4.32-11.19,6.71-17.42,8.77-1.06.35-2.4.5-3.45.19-6.29-1.88-12.37-4.3-17.48-8.53-1.99-1.64-3.99-2.65-6.57-2.43-7.53.64-13.18-2.97-18.24-8.01-1.07-1.06-2.28-2.47-3.58-2.66-1.19-.18-2.59,1.08-3.8,1.65-5.75-1.52-8.32-5.28-8.49-11.02-.12-3.86-.59-7.72-.96-12.23-7.86,5.57-10.77,13.31-13.14,21.27,4.01,4.49,7.53,8.8,9.62,14.3,1.45,3.81,4.22,7.1,6.24,10.71,1.77,3.16,5.09,3.94,7.96,5.24.93.42,2.96-.55,3.94-1.47,3.47-3.25,3.15-11.31-2.18-14.31-1.82-1.03-3.87-1.66-5.9-2.5.06-.51-.06-1.14.2-1.48,1.98-2.63,4.45-2.73,8.2-.53,7.1,4.17,9.91,10.95,8.96,18.47-.8,6.35,1.57,9.66,6.47,12.59,3.11,1.86,6.46,2.52,9.77,3.6,4.28,1.4,7.65.74,11.28-.54,1.17-7.65-.3-9.99-7.07-11.91-1.11-.31-2.11-.98-3.07-1.44.36-3.17,1.91-4.18,4.66-3.49,5.32,1.34,10.24,3.22,12.68,8.76.44,1.01,1.15,1.9,1.91,3.13.76-1.21,1.42-2.01,1.8-2.93,2.29-5.65,7.29-7.57,12.54-8.98,3.05-.82,3.52-.29,4.74,3.9-1.45.42-2.9.81-4.35,1.25-2.63.79-4.6,2.36-5.74,4.89-1.72,3.83-.05,6.87,3.9,7.94,3.1.85,5.8-.99,8.42-.95,5.12.08,8.07-3.07,11.7-5.43,3.5-2.29,4.5-5.32,3.63-9.39-.9-4.2.35-8.28,1.98-12.1,2.03-4.76,5.92-7.62,10.85-8.87,2.98-.76,3.82.12,4.31,3.7-.28.18-.55.45-.86.52-7.49,1.57-10.12,5.52-8.95,12.82Z"/>
      <path d="m621.36,502.59c4.41-2.11,8.82-2.81,13.32.1,2.74,1.77,5.68,3.29,8.67,4.61,1.75.78,3.77.95,5.53,1.37,3.14-7.66-1.23-18.67-9.44-19.26-.7-1.2-1.25-2.38-2.01-3.4-4.2-5.64-10.19-8.03-16.78-6.99-7.59,1.2-13.36-1.59-18.78-6.07-2.68-2.21-4.5-2.67-6.53-.02-2.35,3.07-5.92,3.97-8.93,5.2-2.9,1.19-6.31,2.29-10.21,1.09-2.85-.87-7.03-.92-9.81,1.5-2.77,2.42-6.54,3.88-7.88,7.88-.29.87-1.82,1.48-2.9,1.91-7.49,2.99-10.59,10.34-7.25,18.37,2.03-.57,4.24-.91,6.2-1.81,2.82-1.29,5.54-2.86,8.16-4.52,4.57-2.91,9.06-1.84,13.32.38,2.24,1.17,3.09,3.72,2.92,6.26-.06.83-.88,2.02-1.6,2.25-.56.18-2.07-.77-2.2-1.41-.67-3.35-2.54-3.24-4.97-2.09-.93.44-1.92.77-2.79,1.3-2.37,1.43-3.01,3.71-2.72,6.27.31,2.69,2.29,4.13,4.64,4.08,3.39-.06,6.76-.82,10.14-1.33,2.88-.43,5.76-1.35,8.62-1.29,2.73.06,5.42,1.13,6.23,5.25-2.44.39-4.71.75-7.25,1.15,3.43,5.87,8.75,5.55,13.88,5.17,5.9-.44,6.74-1.18,8.52-5.67-2.14-.64-4.96,1.56-6.53-1.43.46-3.13,2.88-4.3,5.52-4.39,2.87-.09,5.79.5,8.64,1.02,2.72.49,5.35,1.56,8.08,1.83,4.87.47,7.49-2.21,6.99-6.66-.31-2.77-2.75-4.96-6.43-5.89-2.8-.7-3.68.77-4.05,3.18-.07.44-1.14,1.14-1.55,1.03-.68-.2-1.47-.84-1.75-1.5-1.03-2.4.45-6.28,2.97-7.49Zm-11.18-13.7c-2.71-.81-4.38-.29-4.84,3.25-.37,2.77-2.33,5.31-3.41,8.03-.74,1.87-2.23,3.06-3.89,2.71-1.21-.25-2.47-1.81-3.08-3.08-1.01-2.12-1.41-4.52-2.27-6.73-.61-1.56-1.55-2.99-2.39-4.56-4.45.22-8.56,2.39-11.34-2.55-.18-2.12,1.92-2.74,3.56-3.23,10.46-3.16,21-3.28,31.48-.13,1.62.49,2.97,1.89,4.46,2.89-2.33,3.42-4.84,4.44-8.28,3.41Z"/>
      <path d="m518.62,500.31c-.01,1.07.68,2.14,1.16,3.57,3.31-6.06,6.56-11.6,9.41-17.34,2.56-5.16,5.91-9.67,10.7-12.74,1.96-1.26,1.6-2.17.96-4.14-2.4.14-4.47.14-6.5.42-1.29.18-2.76.49-3.75,1.26-3.32,2.6-7.44,4.63-7.94,9.6-.03.32-.3.62-.49.9-3.81,5.65-3.49,12.11-3.56,18.47Z"/>
      <path d="m670.83,235.64c4.07,2.68,7.96,5.67,11.73,8.75,3.46,2.83,5.85,6.62,5.38,11.29-.35,3.5,1.55,5.5,4.09,6.39,5.88,2.07,9.09,6.78,11.85,11.63,3.12,5.49,5.8,11.32,7.87,17.28,2.21,6.37,2,13.05-.08,19.56-1.19,3.74-2.54,7.44-3.56,11.23-.46,1.72-.29,3.6-.41,5.42-.02.35,0,.71-.08,1.03-1.39,5.39-1.01,11.03-2.88,16.42-1.94,5.6-4.83,10.26-9.18,14.26-3.11,2.86-4.87,6.33-5.38,10.95-.51,4.6-3.13,8.94-4.65,13.45-.64,1.9-1.34,3.98-1.16,5.91.62,6.87,1.96,13.68,2.35,20.55.41,7.24.21,14.58-3.5,21.19-1.53,2.73-1.34,4.93.43,7.59,4.09,6.15,3.24,13.25,3.08,20.13-.08,3.59-.57,7.18-1.07,10.74-.15,1.06-.88,2.09-1.49,3.03-1.43,2.18-1.76,4.42-.72,6.85,3.04,7.12,3.65,14.66,3.56,22.26-.04,3.33.42,6.57-.27,10.07-1.41,7.04-4.33,13.24-8.97,18.31-4.57,4.99-7.59,10.7-10.15,16.7-2.47,5.76-6.47,9.31-12.31,11.27-4.2,1.41-8.29,3.19-12.35,4.99-1.7.75-3.39,1.75-4.74,3.01-1.01.94-2.06,1.78-3.13,2.57,79.76-16.76,139.64-87.5,139.64-172.24,0-71.5-42.64-133.04-103.87-160.59Z"/>
      <path d="m560.56,567.37c-3.44-3.35-7.59-5.25-12.01-6.86-4.69-1.71-9.24-3.79-13.81-5.8-.69-.3-1.34-1-1.71-1.67-2.26-4.08-4.36-8.24-6.66-12.3-1.51-2.67-2.9-5.53-4.95-7.74-6.32-6.77-11.22-14.73-11.64-23.69-.46-9.73-.62-19.9,3.53-29.29.86-1.94,1.32-3.96.12-5.91-3.45-5.62-2.83-11.93-3.19-18.08-.11-1.85-.08-3.71-.06-5.56.07-5.85,2.1-10.81,6.63-14.05-3.37-7.78-7.2-14.72-5.97-23.23,1.09-7.5,1.57-15.1,2.12-22.67.13-1.8,0-4.05-.97-5.44-4.44-6.37-6.71-13.5-8.32-20.95-.27-1.23-.99-2.56-1.89-3.43-7.56-7.31-11.73-16.17-12.55-26.63-.33-4.2-.37-8.44-1.06-12.58-.5-2.98-1.87-5.82-2.85-8.72-3.32-9.8-2.35-19.1,2.14-28.5,2.52-5.26,4.88-10.58,8.45-15.15,1.93-2.47,4.58-4.58,7.31-6.15,3.18-1.83,5.57-3.47,5.18-7.75-.36-3.85,1.63-6.97,4.76-9.3,3.51-2.62,7.32-4.94,10.4-8,.64-.63,1.3-1.23,1.96-1.81-60.68,27.78-102.84,89.02-102.84,160.12,0,84.51,59.56,155.09,138.98,172.1-.38-.31-.75-.62-1.09-.96Z"/>
      <path d="m678.16,499.89c-.03-3.09-.14-6.2-.45-9.28-.33-3.21-.2-6.64-3.88-8.5-.77-.39-1.1-2.1-1.2-3.24-.21-2.26-1.56-3.61-3.01-5.18-3.69-3.97-8.37-4.16-13.48-4.23-.33,1.08-.65,2.15-.95,3.15,5.47,2.97,9.02,7.34,11.81,12.33,3.42,6.11,6.64,12.34,10.38,19.34.35-1.91.79-3.15.77-4.39Z"/>
    </g>
    <g>
      <g>
        <path d="m361.79,415.01c5.29-4.14,7.4-6.07,7.4-9.53,0-2.51-1.08-3.97-3.19-3.97-2.75,0-4.14,2.71-4.1,7.16h-6.75c.44-6.55,4.85-10.38,11.87-10.38,5.94,0,9.57,2.61,9.57,7.29s-3.53,6.85-8.55,9.5c-2.44,1.32-4.44,2.51-5.9,3.66l14.42-.03v5.77h-21.07v-.98c0-3.19,1.73-4.95,6.31-8.48Z"/>
        <path d="m379.56,411.72c0-8.62,4.24-13.43,11.67-13.43s11.67,4.82,11.67,13.43-4.24,13.4-11.67,13.4-11.67-4.82-11.67-13.4Zm11.67,10.24c2.82,0,4-2.68,4-10.24s-1.19-10.28-4-10.28-4,2.68-4,10.28,1.16,10.24,4,10.24Z"/>
      </g>
      <g>
        <path d="m806.07,414.81c5.29-4.14,7.4-6.07,7.4-9.53,0-2.51-1.08-3.97-3.19-3.97-2.75,0-4.14,2.71-4.1,7.16h-6.75c.44-6.55,4.85-10.38,11.87-10.38,5.94,0,9.57,2.61,9.57,7.29s-3.53,6.85-8.55,9.5c-2.44,1.32-4.44,2.51-5.9,3.66l14.42-.03v5.77h-21.07v-.98c0-3.19,1.73-4.95,6.31-8.48Z"/>
        <path d="m823.51,414.87h3.93c.24,3.9,2.58,6.11,5.94,6.11,2.99,0,4.72-1.63,4.72-4.38,0-2.88-1.93-4.31-5.05-4.31h-2.31v-2.71h2.41c2.92,0,4.68-1.59,4.68-4.75,0-2.27-1.12-3.73-3.36-3.73-2.38,0-4.24,1.66-4.48,5.56h-6.41c.82-5.46,5.43-8.58,11.94-8.58,5.67,0,9.63,2.37,9.63,6.58,0,3.43-2.71,5.53-6.89,6.04,4.38.41,7.6,2.34,7.6,6.45,0,4.88-4.72,7.77-10.65,7.77-6.89,0-11.26-3.7-11.7-10.04Z"/>
      </g>
      <g>
        <path d="m378.91,368.89l-14.17-9.73c-.76-.51-1.52-.87-2.24-.77l1.52-6.47,19.71-2.67c1.69-.24,3.06-.7,3.99-1.54l.14.03-2.39,10.16-.14-.04c-.35-1.47-1.4-1.75-3.15-1.65l-2.46.18-1.78,7.58,1.99,1.28c1.71,1.1,2.73,1.22,3.64.19l.11.03-1.65,7.01-.11-.03c-.42-1.16-1.28-2.38-3.02-3.58Zm-1.85-12.3l-9.59.7,8.19,5.25,1.4-5.95Z"/>
        <path d="m388.09,347.17c-.47-1.25-1.78-1.98-4.09-2.77l-11.77-4.03c-2.34-.8-3.79-1.02-4.93-.32l-.14-.05,3-8.76.14.05c.47,1.25,1.75,1.97,4.09,2.77l13.66,4.68.55-1.61c.89-2.62,1.08-4.17.61-8.15l4.7,1.61-5.7,16.63-.14-.05Z"/>
        <path d="m385.44,325.74l2-4.87,4.43,1.82-2,4.87-4.43-1.82Z"/>
        <path d="m397.08,322.65c-.32-1.3-1.53-2.17-3.73-3.23l-11.2-5.4c-2.22-1.07-3.64-1.46-4.85-.9l-.13-.06,4.02-8.34.13.06c.32,1.3,1.5,2.16,3.73,3.23l13,6.27.74-1.54c1.2-2.49,1.57-4,1.58-8.01l4.47,2.16-7.64,15.83-.13-.06Z"/>
        <path d="m402.88,302.33l-10.4-13.68c-.56-.72-1.17-1.3-1.88-1.43l3.47-5.66,19.55,3.64c1.68.3,3.13.3,4.27-.21l.13.08-5.45,8.89-.13-.08c.13-1.51-.78-2.1-2.47-2.55l-2.39-.6-4.07,6.64,1.49,1.84c1.27,1.57,2.21,2.01,3.39,1.32l.1.06-3.76,6.14-.1-.06c-.04-1.23-.47-2.67-1.75-4.35Zm2.1-12.26l-9.32-2.34,6.13,7.55,3.19-5.21Z"/>
        <path d="m408.72,278.99c-5.59-4.35-6.02-11.12-1.29-17.2,4.69-6.03,11.36-7.28,17-2.9,3.25,2.53,4.57,6.05,4.06,9.86l6.52.09.37.29-3.12,4.01-4.6-.64c-.39,1.22-1.04,2.43-1.9,3.55-4.73,6.08-11.42,7.31-17.04,2.94Zm14.76-4.71c.56-.72.91-1.45,1.02-2.22l-9.23-1.3,1.68-2.16,6.96.09c-.72-1.42-2.03-2.89-3.84-4.29-4.17-3.25-7.98-3.68-10.25-.75-2.29,2.94-.95,6.52,3.28,9.81,4.25,3.3,8.09,3.77,10.39.82Z"/>
        <path d="m431.51,261.9l-7.15-15.64c-.39-.83-.85-1.53-1.52-1.81l4.63-4.76,18.29,7.85c1.57.66,2.99.98,4.21.73l.1.1-7.28,7.49-.1-.1c.46-1.44-.3-2.22-1.85-3.03l-2.2-1.11-5.43,5.59,1.05,2.13c.9,1.82,1.72,2.45,3.02,2.04l.08.08-5.02,5.17-.08-.08c.23-1.21.13-2.71-.75-4.63Zm4.74-11.51l-8.59-4.33,4.32,8.72,4.26-4.39Z"/>
        <path d="m444.73,233.33l6.2,7.51c1.69,2.04,2.95,3.06,4.52,2.98l.09.11-4.99,4.12-.09-.11c.19-1.38-.61-2.77-2.3-4.82l-7.66-9.27c-1.57-1.9-2.67-2.86-3.83-3.02l-.09-.11,5.28-4.37,17.05,5.34-6.15-7.44c-1.69-2.04-2.95-3.06-4.48-3.02l-.09-.11,4.92-4.07.09.11c-.17,1.36.64,2.76,2.32,4.8l10.79,13.06-4.51,3.73-17.08-5.42Z"/>
        <path d="m455.92,215.02l17.25-11.53,2.66,3.98c-3.62.61-5.23.95-6.97,2.11l-.07.05,8.15,12.19c1.35,2.03,2.41,3.09,3.72,3.24l.08.12-7.67,5.13-.08-.12c.38-1.28-.21-2.65-1.57-4.68l-8.15-12.19-.05.03c-1.76,1.18-2.69,2.54-4.64,5.64l-2.66-3.98Z"/>
        <path d="m488.19,209.36l4.64-2.48,2.26,4.22-4.64,2.48-2.26-4.23Z"/>
        <path d="m513.22,207.83c.66-1.16.39-2.63-.47-4.91l-4.39-11.64c-.87-2.31-1.63-3.57-2.89-4l-.05-.14,8.67-3.27.05.14c-.66,1.16-.4,2.6.47,4.91l5.1,13.51,1.59-.6c2.59-.98,3.9-1.82,6.67-4.72l1.76,4.65-16.45,6.21-.05-.14Z"/>
        <path d="m530.95,201.22c.76-1.1.62-2.58-.04-4.93l-3.36-11.97c-.67-2.38-1.31-3.69-2.53-4.24l-.04-.14,16.39-4.6,1.29,4.59c-3.66-.44-5.33-.61-7.37-.04l-1.9.53,1.82,6.51.88-.25c1.67-.47,3.77-1.12,6.23-1.93l.77,2.74c-2.52.59-4.65,1.15-6.32,1.62l-.88.25,2.02,7.19,1.73-.48c2.43-.68,3.99-1.46,7.03-4.11l1.3,4.64-16.98,4.76-.04-.14Z"/>
        <path d="m544,174.75l-.03-.14,9.69-1.77.03.15c-.68.66-.3,1.97.47,3.08l4.07,5.62,1.91-6.74c.36-1.29.35-2.66-.61-3.03l-.03-.15,6.33-1.16.03.14c-.67.57-1.42,1.57-1.98,3.41l-3.25,10.22.85,4.66c.44,2.4.96,3.8,2.13,4.45l.03.14-9.23,1.69-.03-.15c.86-1.02.88-2.52.45-4.92l-.83-4.57-7.11-8.5c-1.05-1.36-1.84-2.06-2.89-2.43Z"/>
        <path d="m570.55,192.38c.95-.94,1.08-2.43.87-4.86l-1.1-12.39c-.22-2.46-.61-3.87-1.71-4.63v-.15s16.95-1.5,16.95-1.5l.42,4.75c-3.52-1.11-5.13-1.59-7.24-1.4l-1.96.17.59,6.74.91-.08c1.73-.15,3.92-.4,6.49-.75l.25,2.84c-2.59.11-4.79.28-6.52.43l-.91.08.66,7.44,1.79-.16c2.52-.22,4.19-.69,7.67-2.74l.42,4.8-17.58,1.55v-.15Z"/>
        <path d="m594.92,175.76l-.16,9.73c-.04,2.65.25,4.24,1.5,5.2v.15s-6.47-.11-6.47-.11v-.15c1.05-.92,1.34-2.51,1.38-5.15l.2-12.03c.04-2.47-.17-3.91-.95-4.78v-.15s6.85.11,6.85.11l9.49,15.13.16-9.65c.04-2.65-.25-4.24-1.44-5.2v-.15s6.38.11,6.38.11v.15c-1.02.93-1.31,2.51-1.35,5.16l-.28,16.94-5.85-.1-9.46-15.21Z"/>
        <path d="m613.69,190.94c1.12-.72,1.57-2.15,1.86-4.57l1.5-12.35c.3-2.45.21-3.91-.71-4.89l.02-.15,10.51,1.28c8.29,1.01,12.92,5.6,12.06,12.67-.85,7.01-6.4,10.45-14.75,9.43l-10.51-1.28.02-.15Zm10.37-1.43c4.29.52,7.3-2.01,7.95-7.39.68-5.55-1.59-8.58-5.94-9.11l-2.13-.26-2.01,16.5,2.13.26Z"/>
        <path d="m639.9,190.59l9.7-14.2c.51-.76.87-1.52.76-2.24l6.47,1.51,2.72,19.72c.24,1.69.71,3.06,1.55,3.98l-.03.14-10.17-2.36.03-.14c1.47-.35,1.75-1.4,1.64-3.15l-.18-2.46-7.59-1.76-1.28,2c-1.09,1.71-1.21,2.74-.18,3.64l-.03.11-7.02-1.63.03-.11c1.16-.43,2.38-1.29,3.57-3.03Zm12.3-1.88l-.73-9.59-5.23,8.2,5.96,1.39Z"/>
        <path d="m662.42,192.71l5.46,1.85c-.56,2.76-.05,5.27,2.67,6.22,1.59.54,2.89.17,3.38-1.25.62-1.75-.71-3.22-3.63-6.14-3.15-3.06-5.17-5.82-4.05-9.11,1.35-3.98,5.57-4.88,10.11-3.34,4.65,1.58,7.59,5,7.04,9.65l-5.43-1.84c.57-2.23-.04-4.55-2.34-5.36-1.58-.57-2.72-.05-3.16,1.16-.63,1.84.98,3.53,3.57,6.06,3.1,3.04,5.33,5.72,4.13,9.23-1.32,3.9-5.61,4.99-10.45,3.34-5.32-1.8-8.24-5.56-7.28-10.49Z"/>
        <path d="m687,208.88c1.3-.3,2.2-1.49,3.3-3.67l5.61-11.09c1.11-2.2,1.53-3.61.99-4.83l.07-.13,9.44,4.77c7.45,3.76,10.24,9.65,7.03,16-3.18,6.3-9.56,7.65-17.06,3.86l-9.44-4.77.07-.13Zm10.23,2.17c3.85,1.95,7.54.58,9.98-4.24,2.52-4.98,1.42-8.6-2.49-10.58l-1.92-.97-7.49,14.82,1.92.97Z"/>
        <path d="m709.8,220.7c1.33-.16,2.34-1.25,3.66-3.31l6.71-10.47c1.33-2.08,1.89-3.43,1.48-4.71l.08-.12,14.33,9.19-2.57,4.01c-2.11-3.03-3.09-4.39-4.87-5.53l-1.66-1.06-3.65,5.69.77.49c1.46.94,3.35,2.08,5.59,3.38l-1.54,2.4c-2.11-1.5-3.95-2.71-5.41-3.65l-.77-.49-4.03,6.28,1.51.97c2.13,1.37,3.74,2.01,7.74,2.52l-2.6,4.06-14.85-9.53.08-.12Z"/>
        <path d="m726.04,231.22c1.34-.05,2.44-1.05,3.93-2.98l7.59-9.86c1.51-1.95,2.18-3.26,1.88-4.56l.09-.11,7.34,5.65-.09.12c-1.34.05-2.43,1.03-3.93,2.98l-8.81,11.44,1.35,1.04c2.19,1.69,3.6,2.36,7.52,3.2l-3.03,3.94-13.93-10.73.09-.12Z"/>
        <path d="m746.05,247.31c1.33.11,2.55-.76,4.25-2.51l8.68-8.91c1.73-1.77,2.54-2.98,2.4-4.31l.1-.11,6.63,6.47-.1.1c-1.33-.11-2.53.74-4.25,2.51l-10.08,10.34,1.22,1.19c1.98,1.93,3.3,2.77,7.1,4.05l-3.47,3.56-12.59-12.28.1-.1Z"/>
        <path d="m759.58,260.62c1.32.22,2.6-.54,4.45-2.13l9.42-8.12c1.87-1.61,2.79-2.75,2.76-4.09l.11-.1,11.11,12.89-3.6,3.11c-1.16-3.5-1.71-5.09-3.09-6.69l-1.29-1.49-5.12,4.41.6.69c1.13,1.31,2.62,2.94,4.39,4.83l-2.16,1.86c-1.6-2.04-3.02-3.73-4.15-5.04l-.59-.69-5.65,4.87,1.17,1.36c1.65,1.92,3.01,3,6.7,4.62l-3.65,3.15-11.51-13.35.11-.1Z"/>
        <path d="m789.07,261.14l.12-.09,5.79,8.18-.12.09c-1.13-.68-2.14-.07-3.23,1.39l-8.28,11.04,13.25-3.98c1.93-.58,2.69-1.29,2.54-2.41l.12-.08,3.77,5.33-.12.08c-.92-.39-2.23-.26-4.13.26l-17.01,4.51c-.91.25-1.47.47-2.03.75l-3.39-4.8,11.04-16.46c1-1.54,1.69-2.75,1.69-3.82Z"/>
        <path d="m787.46,290.49l16.99-2.6c.9-.15,1.7-.4,2.16-.97l3.31,5.76-12.55,15.44c-1.07,1.33-1.76,2.6-1.86,3.85l-.13.07-5.21-9.04.13-.08c1.26.83,2.22.32,3.42-.95l1.67-1.81-3.89-6.75-2.33.43c-1.99.37-2.83.98-2.78,2.35l-.1.06-3.59-6.24.1-.06c1.1.55,2.56.86,4.65.54Zm9.76,7.71l6.51-7.07-9.56,1.77,3.05,5.3Z"/>
        <path d="m811.32,311.04l-8.92,3.89c-2.43,1.06-3.75,1.99-4.11,3.53l-.13.06-2.59-5.93.13-.06c1.27.57,2.83.17,5.26-.89l11.02-4.82c2.26-.99,3.49-1.78,3.95-2.85l.13-.06,2.74,6.28-9.82,14.91,8.84-3.86c2.43-1.06,3.75-1.99,4.13-3.47l.13-.06,2.55,5.85-.13.06c-1.26-.54-2.82-.15-5.25.91l-15.53,6.78-2.34-5.36,9.92-14.92Z"/>
        <path d="m825.9,326.89l6.31,19.79-4.57,1.46c.41-3.65.53-5.29-.1-7.28l-.03-.08-13.98,4.46c-2.33.74-3.64,1.47-4.15,2.68l-.14.04-2.81-8.8.14-.04c1.12.72,2.61.53,4.93-.21l13.98-4.46-.02-.06c-.64-2.02-1.7-3.29-4.15-6.03l4.57-1.46Z"/>
        <path d="m811.4,354.66c1.06.82,2.55.76,4.93.24l12.15-2.67c2.41-.53,3.76-1.1,4.37-2.29l.14-.03,3.66,16.63-4.65,1.02c.64-3.64.91-5.29.46-7.36l-.42-1.92-6.6,1.45.2.89c.37,1.69.9,3.83,1.57,6.34l-2.79.61c-.44-2.55-.89-4.71-1.26-6.41l-.2-.89-7.29,1.6.39,1.75c.54,2.47,1.22,4.07,3.7,7.25l-4.71,1.04-3.79-17.23.14-.03Z"/>
      </g>
      <g>
        <path d="m388.17,476.07c1.34.77,3.03.47,5.67-.51l13.46-4.99c2.67-.99,4.13-1.86,4.64-3.31l.16-.06,4.25,11.45c3.35,9.04,1.09,16.21-6.61,19.07-7.64,2.83-14.1-1.03-17.48-10.13l-4.25-11.46.16-.06Zm6.96,9.87c1.74,4.68,5.93,6.42,11.78,4.25,6.05-2.24,7.95-6.17,6.2-10.91l-.86-2.32-17.98,6.67.86,2.32Z"/>
        <path d="m409.83,502.13l7.99-4.34c2.5-1.36,3.82-2.42,4.12-3.93l.15-.08,5.1,9.39-.15.08c-1.43-.57-3.04-.05-5.54,1.31l-8.17,4.44c-4.5,2.45-5.81,4.74-4.09,7.9s4.57,3.66,9.05,1.23l8.17-4.44c2.5-1.36,3.82-2.42,4.12-3.93l.15-.08,3.5,6.44-.15.08c-1.43-.57-3.05-.08-5.56,1.28l-7.99,4.34c-7.16,3.89-12.02,2.04-15.32-4.04-3.07-5.67-3.09-11.45,4.64-15.64Z"/>
        <path d="m414.35,532.04c1.49.4,3.05-.34,5.34-1.98l11.68-8.34c2.32-1.66,3.5-2.87,3.61-4.41l.14-.1,6.21,8.7-.14.1c-1.49-.4-3.02.32-5.34,1.98l-13.56,9.68,1.14,1.6c1.85,2.6,3.18,3.81,7.23,6.05l-4.67,3.33-11.78-16.51.14-.1Z"/>
        <path d="m436.74,542.01c6.28-5.75,14.05-4.5,19.53,1.48,4.58,5,5.69,11.08,1.91,16.56l-5.04-5.5c2.26-2.85,3.01-6.11.71-8.61-2.66-2.9-7.19-1.97-10.89,1.42-4.48,4.1-4.89,8.43-1.77,11.83,2.91,3.18,6.89,3.35,10.67.95l2.96,3.23c-6.24,4.34-13.27,3.55-18.54-2.21-5.52-6.03-5.5-13.69.46-19.15Z"/>
        <path d="m449.46,573.78c1.54.02,2.87-1.08,4.69-3.23l9.27-10.95c1.84-2.17,2.68-3.64,2.41-5.16l.11-.13,14.99,12.69-3.55,4.19c-1.95-3.79-2.86-5.49-4.72-7.07l-1.73-1.47-5.04,5.95.8.68c1.53,1.29,3.51,2.88,5.88,4.71l-2.13,2.51c-2.19-2.03-4.11-3.7-5.64-4.99l-.8-.68-5.57,6.58,1.58,1.34c2.23,1.88,3.97,2.87,8.47,4.06l-3.59,4.25-15.53-13.15.11-.13Z"/>
        <path d="m472,582.31l5.53,3.69c-1.45,2.91-1.62,5.85,1.12,7.72,1.61,1.07,3.17,1.06,4.13-.38,1.21-1.76.17-3.8-2.21-7.92-2.6-4.35-4.02-8.03-1.79-11.36,2.69-4.03,7.66-3.77,12.26-.7,4.71,3.15,6.96,7.83,4.95,12.85l-5.5-3.67c1.3-2.31,1.31-5.08-1.01-6.67-1.59-1.1-3.01-.87-3.87.35-1.24,1.86.03,4.22,2.16,7.81,2.54,4.31,4.22,7.96,1.85,11.52-2.64,3.95-7.74,3.89-12.64.61-5.39-3.6-7.51-8.65-4.98-13.85Z"/>
        <path d="m498.31,608.28c1.48-.43,2.44-1.86,3.57-4.44l5.75-13.15c1.14-2.61,1.53-4.26.83-5.64l.07-.15,11.19,4.89c8.83,3.86,12.42,10.47,9.13,18-3.26,7.46-10.53,9.43-19.43,5.54l-11.19-4.89.07-.15Zm11.93,1.85c4.57,2,8.73.19,11.24-5.53,2.58-5.91,1.08-10.01-3.55-12.04l-2.27-.99-7.68,17.57,2.27.99Z"/>
        <path d="m527.92,620.63c1.41-.61,2.18-2.16,2.96-4.86l4-13.78c.8-2.74.97-4.42.1-5.69l.05-.16,18.87,5.48-1.53,5.28c-3.32-2.66-4.85-3.85-7.2-4.53l-2.18-.63-2.18,7.49,1.01.29c1.92.56,4.38,1.2,7.29,1.9l-.92,3.16c-2.83-.96-5.26-1.71-7.19-2.26l-1.01-.29-2.4,8.27,1.99.58c2.8.81,4.8,1,9.39.25l-1.55,5.34-19.55-5.67.05-.16Z"/>
        <path d="m562.01,616.69c.87-8.14,7.25-12.68,16.1-11.74,8.78.93,14.07,6.72,13.19,14.92-.87,8.14-7.25,12.68-16.03,11.74-8.84-.94-14.13-6.76-13.26-14.93Zm13.63,11.45c4.25.45,6.95-3.05,7.6-9.19.64-6.08-1.25-10.07-5.5-10.52-4.29-.46-6.98,3.05-7.63,9.19-.64,6.08,1.25,10.07,5.54,10.52Z"/>
        <path d="m604.16,620.7l-.98.04.21,5.8c.1,2.81.5,4.49,1.76,5.43v.17s-10.67.38-10.67.38v-.17c1.15-1.02,1.39-2.73,1.29-5.54l-.51-14.34c-.1-2.85-.47-4.5-1.69-5.44v-.17s12.43-.44,12.43-.44c7.02-.25,11.08,1.54,11.26,6.42.14,3.93-2.29,6.12-6.33,6.94l9.57,11.54v.27s-8.9.32-8.9.32l-7.42-11.21Zm.44-2.83c3.29-.12,5.14-1.4,5.03-4.59-.1-2.78-1.94-3.94-5.09-3.82l-1.76.06.3,8.41,1.53-.06Z"/>
        <path d="m620.31,618.82c-1.42-8.05,3.45-14.18,12.21-15.73,8.69-1.54,15.37,2.56,16.8,10.67,1.42,8.05-3.45,14.18-12.14,15.72-8.75,1.55-15.44-2.58-16.87-10.66Zm16.26,7.22c4.21-.74,5.83-4.85,4.75-10.93-1.06-6.01-3.99-9.32-8.2-8.58-4.24.75-5.86,4.86-4.79,10.94,1.06,6.01,3.99,9.32,8.23,8.57Z"/>
        <path d="m661.15,611.37l5.76-1.9,1.73,5.25-5.76,1.9-1.73-5.25Z"/>
        <path d="m670.76,593.12l21.64-10.26,2.37,5c-4.23.09-6.13.21-8.31,1.24l-.09.04,7.25,15.29c1.21,2.54,2.24,3.93,3.7,4.33l.07.15-9.62,4.56-.07-.15c.65-1.4.2-3.06-1.01-5.6l-7.25-15.29-.06.03c-2.21,1.04-3.49,2.45-6.25,5.66l-2.37-4.99Z"/>
        <path d="m702.48,601.44l-3.68-19.49c-.2-1.03-.53-1.94-1.21-2.45l6.5-4.06,18.31,13.85c1.57,1.18,3.07,1.92,4.51,1.98l.09.14-10.22,6.37-.09-.14c.91-1.49.28-2.57-1.23-3.91l-2.16-1.86-7.63,4.76.59,2.67c.51,2.28,1.25,3.22,2.82,3.12l.07.11-7.05,4.4-.07-.11c.59-1.29.89-3,.44-5.39Zm8.5-11.57l-8.42-7.22,2.43,10.96,5.99-3.73Z"/>
        <path d="m729.46,589.22c.29-1.52-.56-3.02-2.36-5.18l-9.15-11.05c-1.82-2.19-3.11-3.28-4.65-3.28l-.11-.13,8.96-7.42c5.15-4.26,9.69-5.91,12.59-2.41,2.1,2.53,1.12,5.82-2.62,9.39l.15.18c4.57-3.21,8.63-3.84,11.13-.81,3.22,3.89,1.06,8.51-4.85,13.4l-8.99,7.44-.11-.13Zm-1.14-18.44c2.25-1.86,2.76-3.69.98-5.84-1.8-2.17-3.69-1.79-5.86,0l-1.46,1.21,4.85,5.85,1.49-1.23Zm7.89,9.15c2.35-1.95,3.05-4.03.87-6.66-2.16-2.61-4.46-2.52-6.89-.5l-1.62,1.34,5.97,7.21,1.67-1.38Z"/>
        <path d="m748.04,567.86l-8.6-17.87c-.46-.95-1.02-1.74-1.8-2.05l5.23-5.6,21.27,8.64c1.82.73,3.47,1.06,4.87.75l.12.12-8.22,8.8-.12-.11c.49-1.67-.4-2.56-2.2-3.45l-2.56-1.23-6.14,6.57,1.26,2.43c1.08,2.07,2.04,2.79,3.53,2.28l.1.09-5.67,6.07-.1-.09c.24-1.4.09-3.12-.97-5.32Zm5.21-13.37l-10-4.8,5.18,9.95,4.82-5.16Z"/>
        <path d="m767.56,534.29l-.57.8,4.74,3.35c2.3,1.62,3.88,2.33,5.39,1.9l.14.1-6.16,8.73-.14-.1c-.12-1.54-1.33-2.77-3.63-4.39l-11.72-8.28c-2.33-1.64-3.86-2.35-5.35-1.95l-.14-.1,7.18-10.17c4.05-5.74,7.94-7.89,11.93-5.07,3.21,2.27,3.49,5.54,1.69,9.25l14.98-.63.22.15-5.15,7.29-13.42-.88Zm-1.99-2.07c1.9-2.69,2-4.95-.61-6.79-2.27-1.6-4.31-.84-6.13,1.74l-1.02,1.44,6.87,4.85.88-1.25Z"/>
        <path d="m775.84,520.3c-7.55-3.93-9.04-11.67-5.29-18.86,3.13-6.02,8.47-9.14,14.9-7.47l-3.45,6.62c-3.46-1.15-6.77-.73-8.34,2.28-1.82,3.49.61,7.43,5.06,9.75,5.39,2.81,9.59,1.71,11.72-2.39,1.99-3.82.79-7.62-2.76-10.35l2.02-3.88c6.21,4.38,7.87,11.25,4.27,18.17-3.78,7.25-10.98,9.85-18.15,6.12Z"/>
        <path d="m797.24,496.26l-14.96-13.03c-.8-.68-1.62-1.2-2.46-1.18l2.6-7.21,22.96-.46c1.97-.05,3.6-.4,4.77-1.24l.16.06-4.08,11.33-.16-.06c-.21-1.73-1.38-2.19-3.39-2.3l-2.84-.12-3.05,8.46,2.12,1.74c1.81,1.48,2.97,1.76,4.15.7l.13.05-2.81,7.82-.13-.05c-.33-1.38-1.16-2.9-3-4.5Zm-.49-14.35l-11.09-.46,8.7,7.1,2.39-6.64Z"/>
      </g>
    </g>
  </g>
</svg>