<?xml version="1.0" encoding="UTF-8"?>
<svg id="Capa_1" data-name="Capa 1" xmlns="http://www.w3.org/2000/svg" viewBox="0 0 300.53 200.69">
  <defs>
    <style>
      .cls-1 {
        fill: none;
        stroke: #000;
        stroke-miterlimit: 10;
      }
    </style>
  </defs>
  <rect class="cls-1" x=".5" y=".5" width="299.53" height="199.69"/>
  <g>
    <g>
      <path d="m90.68,103.69c1.32-1.03,1.85-1.52,1.85-2.38,0-.63-.27-.99-.8-.99-.69,0-1.03.68-1.02,1.79h-1.68c.11-1.63,1.21-2.59,2.96-2.59,1.48,0,2.39.65,2.39,1.82s-.88,1.71-2.13,2.37c-.61.33-1.11.63-1.47.91h3.6s0,1.43,0,1.43h-5.26v-.25c0-.8.43-1.24,1.58-2.12Z"/>
      <path d="m95.12,102.87c0-2.15,1.06-3.35,2.91-3.35s2.91,1.2,2.91,3.35-1.06,3.34-2.91,3.34-2.91-1.2-2.91-3.34Zm2.91,2.56c.7,0,1-.67,1-2.56s-.3-2.57-1-2.57-1,.67-1,2.57.29,2.56,1,2.56Z"/>
    </g>
    <g>
      <path d="m201.58,103.64c1.32-1.03,1.85-1.52,1.85-2.38,0-.63-.27-.99-.8-.99-.69,0-1.03.68-1.02,1.79h-1.68c.11-1.63,1.21-2.59,2.96-2.59,1.48,0,2.39.65,2.39,1.82s-.88,1.71-2.13,2.37c-.61.33-1.11.63-1.47.91h3.6s0,1.43,0,1.43h-5.26v-.25c0-.8.43-1.24,1.58-2.12Z"/>
      <path d="m205.93,103.65h.98c.06.97.64,1.52,1.48,1.52.74,0,1.18-.41,1.18-1.09,0-.72-.48-1.08-1.26-1.08h-.58v-.68h.6c.73,0,1.17-.4,1.17-1.19,0-.57-.28-.93-.84-.93-.59,0-1.06.41-1.12,1.39h-1.6c.2-1.36,1.35-2.14,2.98-2.14,1.41,0,2.4.59,2.4,1.64,0,.86-.68,1.38-1.72,1.51,1.09.1,1.9.58,1.9,1.61,0,1.22-1.18,1.94-2.66,1.94-1.72,0-2.81-.92-2.92-2.51Z"/>
    </g>
    <g>
      <path d="m94.95,92.18l-3.54-2.43c-.19-.13-.38-.22-.56-.19l.38-1.61,4.92-.67c.42-.06.76-.17.99-.38h.04s-.6,2.54-.6,2.54h-.04c-.09-.38-.35-.44-.79-.42l-.61.04-.44,1.89.5.32c.43.27.68.3.91.05h.03s-.41,1.76-.41,1.76h-.03c-.11-.3-.32-.6-.75-.9Zm-.46-3.07l-2.39.18,2.04,1.31.35-1.49Z"/>
      <path d="m97.25,86.75c-.12-.31-.44-.49-1.02-.69l-2.94-1.01c-.58-.2-.94-.25-1.23-.08h-.03s.75-2.2.75-2.2h.03c.12.32.44.5,1.02.7l3.41,1.17.14-.4c.22-.65.27-1.04.15-2.03l1.17.4-1.42,4.15h-.03Z"/>
      <path d="m96.58,81.41l.5-1.21,1.11.45-.5,1.22-1.11-.46Z"/>
      <path d="m99.49,80.63c-.08-.32-.38-.54-.93-.81l-2.79-1.35c-.56-.27-.91-.36-1.21-.23l-.03-.02,1-2.08.03.02c.08.32.38.54.93.81l3.24,1.57.18-.38c.3-.62.39-1,.39-2l1.12.54-1.91,3.95-.03-.02Z"/>
      <path d="m100.94,75.56l-2.6-3.41c-.14-.18-.29-.32-.47-.36l.87-1.41,4.88.91c.42.08.78.07,1.06-.05l.03.02-1.36,2.22-.03-.02c.03-.38-.2-.52-.62-.64l-.6-.15-1.02,1.66.37.46c.32.39.55.5.85.33l.02.02-.94,1.53-.03-.02c0-.31-.12-.67-.44-1.09Zm.52-3.06l-2.33-.58,1.53,1.88.8-1.3Z"/>
      <path d="m102.39,69.74c-1.4-1.09-1.5-2.78-.32-4.29,1.17-1.51,2.84-1.82,4.24-.72.81.63,1.14,1.51,1.01,2.46l1.63.02.09.07-.78,1-1.15-.16c-.1.3-.26.61-.47.89-1.18,1.52-2.85,1.82-4.25.73Zm3.69-1.18c.14-.18.23-.36.25-.55l-2.3-.32.42-.54,1.74.02c-.18-.35-.51-.72-.96-1.07-1.04-.81-1.99-.92-2.56-.19-.57.73-.24,1.63.82,2.45,1.06.82,2.02.94,2.59.21Z"/>
      <path d="m108.08,65.47l-1.78-3.9c-.1-.21-.21-.38-.38-.45l1.16-1.19,4.56,1.96c.39.17.75.24,1.05.18l.03.03-1.82,1.87-.03-.03c.11-.36-.07-.55-.46-.76l-.55-.28-1.36,1.39.26.53c.22.45.43.61.75.51l.02.02-1.25,1.29-.02-.02c.06-.3.03-.68-.19-1.16Zm1.18-2.87l-2.14-1.08,1.08,2.18,1.06-1.09Z"/>
      <path d="m111.38,58.34l1.55,1.87c.42.51.74.76,1.13.74l.02.03-1.24,1.03-.02-.03c.05-.35-.15-.69-.57-1.2l-1.91-2.32c-.39-.48-.67-.72-.96-.75l-.02-.03,1.32-1.09,4.25,1.33-1.53-1.86c-.42-.51-.74-.76-1.12-.75l-.02-.03,1.23-1.02.02.03c-.04.34.16.69.58,1.2l2.69,3.26-1.13.93-4.26-1.35Z"/>
      <path d="m114.18,53.77l4.31-2.88.66.99c-.9.15-1.31.24-1.74.53h-.02s2.03,3.06,2.03,3.06c.34.51.6.77.93.81l.02.03-1.92,1.28-.02-.03c.1-.32-.05-.66-.39-1.17l-2.03-3.04h-.01c-.44.3-.67.64-1.16,1.42l-.66-.99Z"/>
      <path d="m122.23,52.36l1.16-.62.56,1.05-1.16.62-.56-1.05Z"/>
      <path d="m128.48,51.98c.16-.29.1-.66-.12-1.23l-1.1-2.9c-.22-.58-.41-.89-.72-1v-.03s2.15-.82,2.15-.82v.03c-.15.29-.09.65.13,1.23l1.27,3.37.4-.15c.65-.24.97-.45,1.67-1.18l.44,1.16-4.11,1.55v-.03Z"/>
      <path d="m132.9,50.33c.19-.27.15-.65-.01-1.23l-.84-2.99c-.17-.59-.33-.92-.63-1.06v-.04s4.08-1.15,4.08-1.15l.32,1.14c-.91-.11-1.33-.15-1.84,0l-.47.13.46,1.62.22-.06c.42-.12.94-.28,1.56-.48l.19.68c-.63.15-1.16.29-1.58.4l-.22.06.5,1.79.43-.12c.61-.17,1-.36,1.75-1.03l.32,1.16-4.24,1.19v-.04Z"/>
      <path d="m136.16,43.72v-.04s2.41-.44,2.41-.44v.04c-.16.17-.07.49.12.77l1.02,1.4.48-1.68c.09-.32.09-.66-.15-.76v-.04s1.57-.29,1.57-.29v.04c-.16.14-.35.39-.49.85l-.81,2.55.21,1.16c.11.6.24.95.53,1.11v.04s-2.3.42-2.3.42v-.04c.21-.26.21-.63.1-1.23l-.21-1.14-1.77-2.12c-.26-.34-.46-.51-.72-.61Z"/>
      <path d="m142.79,48.12c.24-.23.27-.61.22-1.21l-.27-3.09c-.05-.61-.15-.97-.43-1.16v-.04s4.23-.37,4.23-.37l.1,1.18c-.88-.28-1.28-.4-1.81-.35l-.49.04.15,1.68.23-.02c.43-.04.98-.1,1.62-.19l.06.71c-.65.03-1.2.07-1.63.11l-.23.02.16,1.86.45-.04c.63-.06,1.05-.17,1.91-.68l.11,1.2-4.39.39v-.04Z"/>
      <path d="m148.87,43.97l-.04,2.43c-.01.66.06,1.06.38,1.3v.04s-1.62-.03-1.62-.03v-.04c.26-.23.33-.63.34-1.29l.05-3c0-.62-.04-.98-.24-1.19v-.04s1.71.03,1.71.03l2.37,3.78.04-2.41c.01-.66-.06-1.06-.36-1.3v-.04s1.59.03,1.59.03v.04c-.25.23-.33.63-.34,1.29l-.07,4.23-1.46-.02-2.36-3.8Z"/>
      <path d="m153.56,47.76c.28-.18.39-.54.46-1.14l.38-3.08c.07-.61.05-.98-.18-1.22v-.04s2.63.32,2.63.32c2.07.25,3.22,1.4,3.01,3.16-.21,1.75-1.6,2.61-3.68,2.35l-2.62-.32v-.04Zm2.59-.36c1.07.13,1.82-.5,1.98-1.84.17-1.38-.4-2.14-1.48-2.27l-.53-.06-.5,4.12.53.06Z"/>
      <path d="m160.1,47.67l2.42-3.54c.13-.19.22-.38.19-.56l1.62.38.68,4.92c.06.42.18.76.39.99v.04s-2.55-.59-2.55-.59v-.04c.38-.09.44-.35.42-.79l-.05-.61-1.89-.44-.32.5c-.27.43-.3.68-.05.91v.03s-1.76-.41-1.76-.41v-.03c.29-.11.6-.32.9-.76Zm3.07-.47l-.18-2.39-1.31,2.05,1.49.35Z"/>
      <path d="m165.72,48.2l1.36.46c-.14.69-.01,1.31.67,1.55.4.13.72.04.84-.31.16-.44-.18-.8-.91-1.53-.79-.76-1.29-1.45-1.01-2.27.34-.99,1.39-1.22,2.52-.83,1.16.39,1.89,1.25,1.76,2.41l-1.36-.46c.14-.56,0-1.14-.58-1.34-.39-.14-.68-.01-.79.29-.16.46.24.88.89,1.51.77.76,1.33,1.43,1.03,2.3-.33.97-1.4,1.25-2.61.83-1.33-.45-2.06-1.39-1.82-2.62Z"/>
      <path d="m171.85,52.24c.32-.07.55-.37.82-.92l1.4-2.77c.28-.55.38-.9.25-1.21l.02-.03,2.36,1.19c1.86.94,2.55,2.41,1.75,3.99-.79,1.57-2.39,1.91-4.26.96l-2.36-1.19.02-.03Zm2.55.54c.96.49,1.88.15,2.49-1.06.63-1.24.35-2.15-.62-2.64l-.48-.24-1.87,3.7.48.24Z"/>
      <path d="m177.55,55.19c.33-.04.58-.31.91-.83l1.68-2.61c.33-.52.47-.86.37-1.17l.02-.03,3.58,2.29-.64,1c-.53-.76-.77-1.1-1.22-1.38l-.41-.27-.91,1.42.19.12c.36.23.84.52,1.39.84l-.38.6c-.53-.37-.99-.68-1.35-.91l-.19-.12-1.01,1.57.38.24c.53.34.93.5,1.93.63l-.65,1.01-3.71-2.38.02-.03Z"/>
      <path d="m181.6,57.81c.33-.01.61-.26.98-.74l1.89-2.46c.38-.49.54-.81.47-1.14l.02-.03,1.83,1.41-.02.03c-.33.01-.61.26-.98.74l-2.2,2.85.34.26c.55.42.9.59,1.88.8l-.76.98-3.48-2.68.02-.03Z"/>
      <path d="m186.6,61.83c.33.03.64-.19,1.06-.63l2.17-2.22c.43-.44.63-.74.6-1.08l.03-.03,1.66,1.61-.03.03c-.33-.03-.63.18-1.06.63l-2.52,2.58.3.3c.49.48.82.69,1.77,1.01l-.87.89-3.14-3.07.03-.03Z"/>
      <path d="m189.97,65.15c.33.06.65-.13,1.11-.53l2.35-2.03c.47-.4.7-.69.69-1.02l.03-.02,2.77,3.22-.9.78c-.29-.87-.43-1.27-.77-1.67l-.32-.37-1.28,1.1.15.17c.28.33.65.73,1.1,1.2l-.54.46c-.4-.51-.75-.93-1.04-1.26l-.15-.17-1.41,1.22.29.34c.41.48.75.75,1.67,1.15l-.91.79-2.87-3.33.03-.02Z"/>
      <path d="m197.33,65.28l.03-.02,1.45,2.04-.03.02c-.28-.17-.53-.02-.81.35l-2.07,2.76,3.31-.99c.48-.14.67-.32.63-.6l.03-.02.94,1.33-.03.02c-.23-.1-.56-.06-1.03.07l-4.24,1.13c-.23.06-.37.12-.51.19l-.85-1.2,2.76-4.11c.25-.38.42-.69.42-.95Z"/>
      <path d="m196.93,72.61l4.24-.65c.22-.04.43-.1.54-.24l.83,1.44-3.13,3.85c-.27.33-.44.65-.46.96l-.03.02-1.3-2.26.03-.02c.31.21.55.08.85-.24l.42-.45-.97-1.68-.58.11c-.5.09-.71.25-.7.59h-.03s-.9-1.54-.9-1.54h.03c.27.12.64.2,1.16.12Zm2.44,1.92l1.62-1.77-2.39.44.76,1.32Z"/>
      <path d="m202.89,77.74l-2.23.97c-.61.26-.94.5-1.03.88h-.03s-.65-1.47-.65-1.47h.03c.32.13.71.03,1.31-.24l2.75-1.2c.57-.25.87-.44.99-.71h.03s.68,1.55.68,1.55l-2.45,3.72,2.21-.96c.61-.26.94-.5,1.03-.87h.03s.64,1.45.64,1.45h-.03c-.32-.12-.71-.02-1.31.24l-3.88,1.69-.58-1.34,2.47-3.72Z"/>
      <path d="m206.53,81.69l1.58,4.94-1.14.36c.1-.91.13-1.32-.03-1.82v-.02s-3.5,1.11-3.5,1.11c-.58.19-.91.37-1.03.67h-.04s-.7-2.19-.7-2.19h.03c.28.17.65.12,1.23-.06l3.49-1.11h0c-.16-.52-.42-.83-1.03-1.52l1.14-.36Z"/>
      <path d="m202.91,88.63c.26.21.64.19,1.23.06l3.03-.67c.6-.13.94-.27,1.09-.57h.04s.91,4.14.91,4.14l-1.16.26c.16-.91.23-1.32.11-1.84l-.11-.48-1.65.36.05.22c.09.42.23.96.39,1.58l-.7.15c-.11-.64-.22-1.18-.31-1.6l-.05-.22-1.82.4.1.44c.14.62.31,1.02.92,1.81l-1.18.26-.95-4.3h.04Z"/>
    </g>
    <g>
      <path d="m96.61,116.92c.32.21.75.17,1.42-.03l3.43-1.02c.68-.2,1.06-.39,1.21-.75h.04s1.4,4.69,1.4,4.69l-1.31.39c.11-1.06.15-1.54-.02-2.12l-.16-.54-1.87.55.07.25c.14.48.34,1.08.58,1.79l-.79.23c-.18-.72-.35-1.33-.49-1.81l-.07-.25-2.06.61.15.5c.21.7.44,1.14,1.21,2.01l-1.33.4-1.45-4.87h.04Z"/>
      <path d="m98.42,122.75c.34.18.76.08,1.41-.19l3.3-1.4c.66-.28,1.01-.51,1.12-.88l.04-.02,1.04,2.46-.04.02c-.34-.18-.75-.09-1.41.19l-3.83,1.62.19.45c.31.73.57,1.1,1.43,1.87l-1.32.56-1.97-4.67.04-.02Z"/>
      <path d="m100.8,128.15c.36.15.77.02,1.39-.31l3.16-1.68c.63-.33.96-.6,1.04-.97l.04-.02,1.25,2.36-.04.02c-.36-.15-.76-.02-1.39.31l-3.16,1.68c-.62.33-.96.6-1.04.97l-.04.02-1.25-2.36.04-.02Z"/>
      <path d="m105.16,133.79l.67-1.51-1.64.06c-.45.01-.79.2-.76.49l-.04.02-1.12-1.69.04-.02c.28.17.81.24,1.27.23l2.67-.02,1.12-2.5c.22-.46.3-.78.26-1.12l.03-.02,1.61,2.43-.04.04c-.24-.1-.51.08-.7.49l-.6,1.35,1.46-.02c.39-.01.76-.18.77-.43l.03-.02,1.07,1.62-.04.02c-.29-.17-.73-.25-1.2-.25h-2.5s-1.21,2.72-1.21,2.72c-.21.45-.32.81-.28,1.14l-.04.02-1.64-2.46.04-.02c.23.09.57-.15.74-.52Z"/>
      <path d="m106.52,137.23c.38.07.75-.13,1.3-.58l2.78-2.26c.55-.45.82-.77.83-1.16l.03-.03,1.68,2.07-.03.03c-.38-.07-.75.13-1.3.58l-2.78,2.26c-.54.44-.82.77-.83,1.16l-.03.03-1.68-2.07.03-.03Z"/>
      <path d="m112.69,140l-.17-.17-1.03,1.02c-.5.5-.74.86-.7,1.24l-.03.03-1.88-1.89.03-.03c.38.04.74-.21,1.23-.7l2.54-2.53c.5-.5.74-.85.71-1.23l.03-.03,2.19,2.2c1.24,1.24,1.6,2.29.74,3.15-.7.69-1.51.62-2.35.02l-.48,3.71-.05.05-1.57-1.58.79-3.26Zm.59-.4c.58.58,1.13.7,1.69.14.49-.49.39-1.02-.17-1.58l-.31-.31-1.49,1.48.27.27Z"/>
      <path d="m115.98,146.86c.38-.03.69-.34,1.09-.92l2.03-2.95c.4-.59.58-.97.47-1.34l.02-.03,2.51,1.73c1.98,1.37,2.55,3.16,1.39,4.84-1.15,1.67-3.03,1.81-5.02.44l-2.51-1.73.02-.03Zm2.84,1.02c1.03.71,2.13.46,3.02-.82.91-1.33.74-2.4-.3-3.12l-.51-.35-2.72,3.94.51.35Z"/>
      <path d="m122.65,151.29c.38-.08.64-.43.96-1.05l1.64-3.19c.32-.63.45-1.04.29-1.39l.02-.04,4.36,2.24-.63,1.22c-.69-.81-1.01-1.17-1.55-1.45l-.51-.26-.89,1.73.23.12c.44.23,1.02.5,1.7.81l-.38.73c-.65-.37-1.21-.67-1.65-.9l-.23-.12-.98,1.91.46.24c.65.33,1.13.47,2.29.51l-.63,1.24-4.52-2.32.02-.04Z"/>
      <path d="m131.56,148.68v-.04s2.76.89,2.76.89v.04c-.39.04-.52.35-.52.88v3.98s2.37-3.2,2.37-3.2c.35-.47.4-.76.17-.99v-.04s1.8.58,1.8.58v.04c-.29.07-.57.33-.92.77l-3.15,3.97c-.17.21-.26.36-.34.52l-1.61-.52-.28-5.7c-.03-.53-.08-.93-.27-1.17Z"/>
      <path d="m136.83,156.9c.34-.18.51-.58.66-1.26l.76-3.5c.15-.7.17-1.12-.07-1.42v-.04s2.62.57,2.62.57v.04c-.35.18-.51.57-.66,1.26l-.76,3.5c-.15.69-.17,1.12.07,1.42v.04s-2.62-.57-2.62-.57v-.04Z"/>
      <path d="m140.77,151.39v-.04s2.87.33,2.87.33v.04c-.37.11-.43.45-.33.96l.78,3.9,1.69-3.61c.25-.53.24-.83-.03-1.01v-.04s1.87.21,1.87.21v.04c-.27.12-.49.43-.74.94l-2.3,4.52c-.12.24-.18.41-.23.58l-1.68-.19-1.41-5.53c-.14-.51-.26-.89-.5-1.1Z"/>
      <path d="m147.15,157.4l1.72-4.64c.09-.25.14-.49.06-.68l1.91-.03,2.14,5.32c.19.45.41.81.71,1.01v.04s-3.01.05-3.01.05v-.04c.39-.2.39-.51.24-1l-.22-.67-2.24.04-.22.65c-.19.55-.15.85.2,1.03v.03s-2.07.03-2.07.03v-.03c.29-.2.58-.53.79-1.1Zm3.31-1.38l-.87-2.63-.89,2.66,1.76-.03Z"/>
      <path d="m156.56,155.18l-.24.03.2,1.43c.1.7.24,1.1.58,1.31v.04s-2.64.37-2.64.37v-.04c.25-.28.27-.71.17-1.41l-.5-3.55c-.1-.71-.23-1.11-.56-1.31v-.04s3.07-.43,3.07-.43c1.74-.24,2.79.1,2.96,1.31.14.97-.41,1.58-1.4,1.89l2.68,2.62v.07s-2.2.31-2.2.31l-2.13-2.59Zm.04-.72c.81-.11,1.24-.48,1.13-1.27-.1-.69-.58-.93-1.36-.82l-.44.06.29,2.08.38-.05Z"/>
      <path d="m160.92,154.45l1.48-.34.31,1.34-1.48.34-.31-1.34Z"/>
      <path d="m164.01,151.74l1.11,3.15c.23.66.46,1.03.87,1.15v.04s-1.77.63-1.77.63v-.04c.21-.34.15-.77-.09-1.43l-1.19-3.38c-.24-.67-.45-1.04-.8-1.17v-.04s2.37-.84,2.37-.84l2.73,3.18.12-4.18,2.32-.82v.04c-.17.32-.1.74.14,1.41l1.19,3.38c.23.66.45,1.04.81,1.17v.04s-2.49.88-2.49.88v-.04c.21-.34.15-.77-.08-1.43l-1.13-3.2-.22,5.27-.42.15-3.47-3.91Z"/>
      <path d="m171.39,150.7c-.98-1.79-.32-3.63,1.62-4.7,1.93-1.06,3.84-.63,4.83,1.18.98,1.79.32,3.63-1.61,4.69-1.95,1.07-3.86.63-4.84-1.17Zm4.42.4c.94-.51.99-1.61.25-2.97-.73-1.34-1.69-1.88-2.63-1.37-.94.52-1,1.62-.25,2.97.73,1.34,1.69,1.88,2.63,1.37Z"/>
      <path d="m178.81,145.01l1.69,2.24c.46.61.81.92,1.26.91l.03.03-1.49,1.12-.03-.03c.07-.39-.14-.81-.6-1.41l-2.09-2.77c-.43-.57-.73-.86-1.06-.92l-.03-.03,1.58-1.19,4.83,1.75-1.67-2.22c-.46-.61-.81-.92-1.25-.92l-.03-.03,1.47-1.11.03.03c-.07.39.15.8.61,1.41l2.94,3.9-1.35,1.02-4.84-1.78Z"/>
      <path d="m184.23,138.83l-.29.28,1.31,1.36.15-.15c.36-.35.86-.86,1.41-1.43l.6.62c-.6.53-1.11,1.02-1.47,1.37l-.15.15,1.07,1.1c.49.5.84.76,1.23.71l.03.03-1.93,1.87-.03-.03c.04-.38-.2-.74-.69-1.24l-2.49-2.57c-.5-.51-.84-.76-1.22-.73l-.03-.03,3.64-3.52.97,1c-.98.31-1.46.59-2.12,1.22Z"/>
      <path d="m187.91,138.66c-1.6-1.27-1.7-3.22-.32-4.96,1.37-1.72,3.3-2.06,4.91-.78,1.6,1.27,1.7,3.22.33,4.95-1.38,1.74-3.31,2.07-4.92.79Zm4.23-1.34c.66-.83.29-1.87-.92-2.83-1.19-.95-2.29-1.08-2.95-.25-.67.84-.29,1.88.91,2.84,1.19.95,2.29,1.08,2.96.24Z"/>
      <path d="m194.41,130.32l-.12.21,1.25.73c.61.36,1.01.5,1.38.36l.04.02-1.35,2.3-.04-.02c-.06-.38-.39-.66-.99-1.02l-3.09-1.81c-.61-.36-1.01-.5-1.37-.37l-.04-.02,1.57-2.68c.89-1.51,1.81-2.13,2.86-1.51.85.5.98,1.3.62,2.26l3.71-.47.06.03-1.13,1.92-3.36.06Zm-.54-.47c.42-.71.39-1.27-.29-1.67-.6-.35-1.09-.12-1.49.56l-.22.38,1.81,1.06.19-.33Z"/>
      <path d="m193.11,125.51l2.36-5.49,1.27.54c-.78.72-1.11,1.05-1.35,1.6v.02s3.87,1.67,3.87,1.67c.65.28,1.07.37,1.41.2l.04.02-1.05,2.44-.04-.02c-.11-.37-.47-.61-1.11-.88l-3.88-1.67v.02c-.25.56-.26,1.03-.24,2.09l-1.27-.54Z"/>
      <path d="m201.61,121.64c-.15-.35-.54-.55-1.21-.75l-3.43-1.02c-.68-.2-1.1-.25-1.42-.03h-.04s1.4-4.71,1.4-4.71l1.31.39c-.67.83-.97,1.21-1.14,1.79l-.16.54,1.87.55.07-.25c.14-.48.31-1.09.49-1.82l.79.23c-.24.7-.43,1.31-.58,1.79l-.07.25,2.06.61.15-.5c.21-.7.26-1.2.08-2.34l1.33.4-1.45,4.87h-.04Z"/>
    </g>
    <g>
      <path d="m138.55,64.19c-.22-.12-.43-.26-.63-.41-.46-.32-.91-.64-1.36-.96-.28-.19-.6-.35-.86-.57-.41-.34-.9-.46-1.4-.55-.06-.01-.16.03-.2.08-.03.04,0,.13.04.19.23.42.47.83.69,1.26.12.25.18.52.3.77.31.62.64,1.22.94,1.84.18.37.28.77.45,1.13.2.41.46.78.66,1.18.25.52.46,1.06.91,1.47.3.28.99.42,1.32.18.71-.51,1.37-1.05,1.37-2.05,0-.14.02-.29,0-.43-.07-.5-.38-.88-.78-1.11-.33-.19-.75-.21-1.12-.33-.08-.03-.19-.16-.17-.23.03-.18.18-.36.16-.52-.04-.33.07-.73-.32-.96Z"/>
      <path d="m135.66,70.61c.15.13.35.26.39.43.09.34.08.71.11,1.07.05.55.26.99.81,1.2.1.04.18.11.28.14.29.09.58.16.97.26-.31-.75-.55-1.38-.83-1.99-.27-.61-.6-1.19-.88-1.79-.32-.71-.61-1.44-.93-2.15-.21-.46-.45-.91-.67-1.37-.14-.3-.24-.61-.38-.91-.32-.7-.67-1.38-.99-2.08-.16-.35-.29-.71-.45-1.06-.23-.51-.49-1-.73-1.51-.2-.42-.41-.83-.58-1.26-.09-.24-.23-.46-.38-.65-.29.13-.59.27-.88.41.05.63.1,1.26.21,1.88.17.93.4,1.85.66,2.76.15.53.37,1.03.6,1.53.18.4.49.75.62,1.16.33,1.03,1.13,1.78,1.63,2.72.28.52.93.83,1.4,1.24Z"/>
      <path d="m129.13,70.24c-.63.87-.11,2.22.94,2.45.35.08.7.14,1.06.19.39.05.89-.06,1.11-.3.17-.18.32-.38.4-.66.15-.55-.11-1.01-.23-1.49-.12-.52-.34-1.02-.5-1.53-.31-1.04-.6-2.1-.92-3.14-.25-.83-.54-1.65-.84-2.56-.21.29-.47.54-.61.85-.2.46-.33.95-.46,1.43-.17.62-.28,1.26-.46,1.88-.22.75-.09,1.22.54,1.75.14.11.29.21.44.31-.13.28-.25.53-.37.78-.01.02-.08.02-.09.04Z"/>
      <path d="m133.73,58.23c.6.27,1.26.43,1.9.59.41.11.87.06,1.24.23.27.12.58.21.82.44.19.19.56.18.81.32.62.35,1.13.85,1.44,1.48.14.28.17.64.15.96-.02.41-.15.81-.21,1.21,0,.06.06.17.12.2.4.23.84.41,1.2.69.34.27.72.53.91.98.17.41.45.77.67,1.16.08.14.11.31.14.46.16.75.04,1.49-.13,2.21-.06.27-.25.52-.44.74-.3.35-.59.78-.98.97-.34.17-.57.45-.89.62-.34.19-.65.43-.96.66-.25.19-.3,1.07-.03,1.28.55.43.73,1.08,1.09,1.62.13.2.33.36.44.58.29.55.54,1.13.83,1.69.21.39.47.75.71,1.12.39.63.8,1.25,1.17,1.9.59,1.04,1.18,2.07,1.73,3.13.38.72.71,1.47,1.03,2.22.32.76.53,1.59.94,2.29.45.76.62,1.6.94,2.4.16.4.18.87.42,1.21.11.17.15.33.21.49.3.78.61,1.57.89,2.35.17.46.29.94.45,1.4.21.62.4,1.25.69,1.83.13.25.45.41.54.73.08.29.19.58.31.86.14.36.28.72.45,1.07.04.07.23.13.33.1.35-.09.69-.25,1.04-.32.6-.11,1.21-.18,1.82-.26.41-.05.83-.12,1.25-.14.61-.02,1.23,0,1.85,0,.43,0,.86-.02,1.28,0,.37.02.74.07,1.11.1.11,0,.22-.03.33-.04,0,.02,0,.08,0,.13.32-.01.61-.16.94.07.18.12.49.03.72.09.6.17,1.21.34,1.79.57.69.28,1.36.64,2.04.96.38.18.79.3,1.15.5.47.26.92.55,1.36.85.54.36,1.07.72,1.59,1.11.22.17.38.42.61.59.28.21.62.35.9.56.28.21.53.48.8.71.07.06.18.07.24.13.53.45,1.05.92,1.59,1.36.1.08.25.09.37.15.17.09.28.19,0,.28-.03,0-.06.04-.06.07-.07.44-.53.81-.28,1.3.24.48.55.93.79,1.42.13.26.4.33.57.54.08.1.31.09.47.12.14.03.33.01.41.1.06.06.02.3-.05.38-.29.31-.27.68-.28,1.05,0,.4.47.78.92.75.19-.01.38-.03.62-.05.01.16.08.33.03.45-.16.38-.29.82-.57,1.08-.9.83-1.66.82-2.24.62-.41.62-.79,1.25-1.24,1.83-.21.27-.54.45-.84.64-.14.09-.41.05-.26.37.03.06-.13.24-.24.33-.54.44-1.06.97-1.83.89-.3-.03-.58-.23-.87-.36-.2-.09-.4-.21-.61-.29-.28-.11-.54-.19-.79-.4-.29-.23-.68-.34-1.05-.42-.44-.09-.89-.21-1.11-.59-.16-.29-.35-.2-.54-.24-.48-.11-1-.14-1.43-.34-.54-.25-.85-.74-.86-1.38,0-.07,0-.14-.03-.2-.08-.28.12-.35.3-.31.86.17,1.52-.25,1.7-1.13.07-.35.11-.7.16-1.06.63.03.77-.37.86-.98.11-.84.21-1.68.29-2.52.02-.22-.01-.47-.08-.68-.2-.65-.36-1.33-.66-1.94-.22-.44-.48-.92-.93-1.22-.06-.04-.14-.05-.16-.06.05.38.1.74.15,1.09.02.15.28.26.07.46-.16.16.04.32.03.49-.08.88-.29,1.72-.58,2.54-.24.68-.57,1.33-.89,1.98-.13.26-.34.49-.51.73-.05.08-.08.18-.12.26-.1.19-.21.39-.32.58-.24.39-.65.59-1.02.79-.42.22-.9.11-1.34-.09-.29-.13-.32-.41-.3-.66.01-.17.13-.34.21-.5.32-.63.71-1.17,1.42-1.45.25-.1.54-.32.57-.75.03-.51.3-1,.35-1.51.06-.63.2-1.29-.15-1.91-.1-.18-.05-.44-.07-.66-.08-.66-.44-1.17-.8-1.7-.38-.55-.84-.94-1.44-1.21-.17-.08-.3-.23-.44-.36-.36-.32-.79-.27-1.22-.32-.66-.08-1.32-.12-1.98-.02-.16.02-.31.08-.46.13-.62.21-1.23.46-1.86.64-.45.13-.82.37-1.22.59-.3.17-.31.34-.18.63.24.54.41,1.12.65,1.66.11.24.19.49.35.72.21.31.31.71.43,1.07.15.44.28.89.41,1.34.04.12.04.25.11.35.04.11.08.22.12.34.02.06.01.13.04.18.15.35.32.69.46,1.04.1.24.16.51.25.75.2.52.41,1.04.61,1.56.16.39.33.78.48,1.17.05.14.05.3.1.44.1.26.21.53.33.78.11.22.29.42.36.65.05.14-.04.32.04.45.07.13.15.26.21.4.05.12.09.24.17.44-.14.2-.05.4.25.6.13.08.15.33.25.59.28.09.15.47.26.75.2.54.41,1.07.61,1.6.12.33.23.67.34,1.02.11.26.22.52.33.78.13.32.26.65.4.97.14.32.31.63.43.96.03.09-.07.23-.12.36.11,0,.21.01.3.02-.03.02-.06.05-.1.07.16.35.32.7.48,1.06,0,0-.06.05-.02.02.13.31.25.56.34.82.11.32.17.66.28.99.03.09.16.15.2.25.1.26.17.54.27.81.03.07.14.11.15.18.02.18,0,.37,0,.5.15.28.31.54.42.82.09.22.11.44.32.64.19.18.3.53.29.81,0,.27.09.45.22.65.09.14.12.33.18.49.14.33.3.66.44.99.15.37.27.74.41,1.11.15.41.32.81.46,1.22.06.18.08.38.15.55.18.41.46.79.54,1.21.06.3.16.56.31.8,16.02-6.71,27.27-22.53,27.27-40.99,0-24.53-19.89-44.42-44.42-44.42-5.8,0-11.34,1.11-16.42,3.13.11.05.22.11.33.16Z"/>
      <path d="m164.56,139.41c-.5-1.28-1.03-2.54-1.53-3.82-.17-.42-.3-.85-.46-1.27-.2-.5-.42-.99-.62-1.49-.2-.52-.35-1.06-.56-1.58-.29-.71-.62-1.41-.9-2.12-.34-.85-.64-1.71-.99-2.56-.33-.82-.7-1.63-1.04-2.45-.1-.25-.14-.54-.24-.8-.29-.72-.6-1.44-.89-2.16-.46-1.17-.9-2.34-1.35-3.51-.4-1.02-.8-2.04-1.2-3.06-.25-.65-.48-1.3-.73-1.95-.25-.63-.51-1.24-.77-1.87-.2-.48-.39-.96-.58-1.43-.15.2-.25.44-.43.54-.54.3-1.11.58-1.69.79-.29.1-.24.19-.16.39.28.67.56,1.34.82,2.01.3.76.57,1.53.87,2.29.17.43.35.86.53,1.29.31.75.63,1.51.93,2.26.23.58.42,1.18.65,1.77.32.83.68,1.64,1,2.47.27.67.52,1.34.77,2.02.17.45.29.92.47,1.37.27.67.62,1.31.87,1.98.38,1.03.71,2.08,1.2,3.06.25.51.41,1.07.61,1.61.36.98.71,1.97,1.09,2.94.31.78.66,1.55.98,2.32.19.45.26.93.52,1.38.34.59.51,1.27.76,1.91.02.06.05.11.07.17.89-.27,1.77-.56,2.63-.87-.2-.55-.4-1.1-.61-1.64Z"/>
      <path d="m137.41,75.99c.61-.25,1.26-.42,1.88-.64.11-.04.2-.18.27-.29.16-.28-.07-.42-.24-.55-.24-.19-.49-.28-.81-.12-.5.25-1.03.46-1.53.71-.37.19-.71.43-1.06.65.02.05.04.11.06.16.47.1.91.29,1.43.09Z"/>
      <path d="m137.93,84.47c.2.57.48,1.12.7,1.69.11.29.15.61.3.89.48.93.96,1.85,1.49,2.75.37.63.79,1.24,1.2,1.84.26.39.54.77.85,1.12.28.32.63.57.94.87.55.53,1.07,1.1,1.66,1.58.49.4,1.04.77,1.62,1.03.52.24,1.01.61,1.65.58.42-.02.7-.26.59-.67-.37-1.38-.73-2.75-1.13-4.12-.16-.56-.4-1.11-.61-1.66-.17-.44-.33-.88-.52-1.31-.3-.71-.62-1.41-.93-2.11-.31-.69-.61-1.38-.93-2.06-.13-.27-.3-.53-.43-.8-.19-.41-.32-.84-.54-1.23-.45-.83-.92-1.66-1.42-2.46-.39-.63-.84-1.23-1.29-1.83-.51-.69-1.11-.81-1.89-.43-.39.19-.8.36-1.2.52-.76.31-1.15.89-1.28,1.66.1.52.17,1.04.31,1.52.26.89.55,1.77.86,2.64Z"/>
      <path d="m137.27,78.1c.58-.13,1.15-.28,1.7-.51.47-.19.93-.46,1.35-.76.32-.23.27-.55-.04-.75-.41-.26-.77-.26-1.26-.03-.94.43-1.88.8-2.67,1.52.17.48.42.64.92.53Z"/>
      <path d="m138.59,125.33c-.08-.28-.23-.55-.37-.82-.46-.87-1.28-1.4-2-2.01-.57-.49-1.24-.86-1.95-1.34,0,.35-.06.62,0,.86.15.59.35,1.16.54,1.73.17.51.35,1.01.53,1.51.06.18.12.37.22.53.23.39.49.76.76,1.18.2,0,.46,0,.73-.01.3-.02.39.18.4.41,0,.14-.06.29-.11.43-.14.42-.19.81.21,1.13.13.1.22.25.33.37.02.03.06.05.1.05.2.02.42-.01.6.05.26.09.51.14.77.04.15-.05.33-.13.4-.26.18-.32.32-.66.46-1,.16-.36.07-.79-.16-.99-.33-.28-.81-.37-1.21-.56-.19-.09-.4-.2-.52-.37-.05-.07.14-.29.19-.45.05-.16.13-.35.09-.49Z"/>
      <path d="m172.96,112.42c-.21-.89-.45-1.79-.76-2.65-.2-.56-.52-1.09-.82-1.62-.23-.42-.5-.82-.79-1.3-.12.36-.19.57-.26.77-.09.26-.24.5-.28.76-.07.43-.07.87-.11,1.31-.09.87-.19,1.74.03,2.6.11.44.24.94.78.99.49.04.37.25.26.51-.18.45-.39.89-.56,1.35-.13.33.1.59.3.77.26.22.59.4.91.5.25.08.52.24.84.02.42-.28.66-.68.83-1.1.24-.61.15-1.28-.65-1.54-.15-.05-.37-.23-.37-.35,0-.16.18-.32.29-.47.13-.18.41-.39.37-.53Z"/>
      <path d="m159.4,142.56c.1-.37-.37-.52-.28-.9.02-.09-.11-.41-.31-.59-.16-.14-.19-.43-.28-.65-.29-.73-.69-1.43-.84-2.18-.11-.54-.65-.89-.52-1.49.02-.09-.07-.21-.12-.3-.16-.31-.34-.6-.48-.91-.06-.13-.04-.29-.08-.43-.11-.36-.24-.72-.36-1.08-.01-.04.03-.1.05-.17-.27-.05-.47-.15-.39-.51.02-.1-.14-.23-.2-.35-.09-.19-.29-.44-.23-.59.12-.33-.18-.45-.23-.68-.1-.42-.46-.72-.47-1.21,0-.15-.15-.43-.26-.64-.1-.18-.15-.38-.24-.61,0,0,.09-.03.24-.09-.16-.09-.28-.15-.4-.22-.24-.61-.48-1.23-.73-1.85.03-.01.07-.02.1-.03-.18-.25-.52-.45-.32-.85.02-.03,0-.11,0-.11-.4-.08-.32-.48-.47-.72-.14-.22-.29-.49-.28-.73.02-.54-.34-.88-.55-1.31-.06-.13-.06-.29-.11-.42-.06-.15-.18-.29-.23-.44-.04-.14.01-.3-.04-.43-.07-.17-.2-.31-.35-.55,0,0,.05-.09.11-.2,0,0,0-.02-.02-.03q-.26-.16-.23-.47s0-.09-.02-.1c-.44-.27-.33-.78-.51-1.15-.21-.45-.48-.89-.68-1.35-.13-.31-.18-.65-.29-.97-.06-.18-.18-.35-.26-.52-.19-.42-.52-.83-.52-1.25,0-.58-.53-.9-.52-1.43,0-.06-.1-.12-.12-.19-.04-.13-.05-.26-.01-.38-.08-.12-.19-.23-.25-.36-.25-.53-.5-1.06-.73-1.61-.1-.25-.13-.54-.22-.8-.05-.16-.15-.3-.23-.45-.21-.38-.3-.8-.44-1.19-.09-.25-.19-.54-.33-.78-.07-.12-.3-.24-.42-.21-.4.08-.79.22-1.17.36-.64.23-1.27.48-1.91.73-.17.07-.37.13-.5.25-.49.45-.91.98-1.44,1.37-.44.33-.57.82-.8,1.24-.15.26-.13.63-.17.95-.03.27-.02.55-.05.82-.08.8.11,1.54.49,2.22.27.49.52,1,.88,1.42.61.71,1.37,1.26,2.21,1.69.29.15.58.15.92.04.42-.14.89-.24,1.35,0,.22.11.52.06.72.17.18.1.39.16.52.42.19.4-.03.68-.19.9-.21.28-.49.53-.93.58-.32.04-.63.13-.96.06-.17-.04-.36-.05-.52-.11-.35-.12-.67-.31-1.03-.38-.48-.1-.96-.14-1.34-.5-.01-.01-.05,0-.07,0-.66-.03-1.1-.52-1.64-.8-.64-.33-1.15-.79-1.64-1.3-.41-.43-.71-.91-1.04-1.44-.01.29-.07.59-.04.88.13,1.15.7,2.13,1.24,3.12.12.21.37.35.57.51.63.52,1.24,1.07,1.89,1.55.18.13.5.09.75.09.09,0,.23-.23.27-.21.14.08.29.2.37.34.29.53,1,.81,1.57.59.5-.2.5-.22.88-.59.06-.06.28-.02.37.05.17.13.33.3.43.48.07.14.02.34.06.5.16.77-.2,1.34-.7,1.85-.14.14-.29.28-.44.44.1.33.1.6-.14.99-.33.54-.75,1.13-.72,1.85,0,.1-.11.19-.15.3-.19.45-.38.89-.55,1.35-.16.44-.51.61-.91.7-.37.09-.75.17-1.13.2-.18.01-.38-.09-.57-.15-.09-.03-.2-.09-.28-.07-.34.07-.68.18-1.02.23-.13.02-.28-.1-.43-.14-.61-.15-1.22-.29-1.86-.45-.27.51-.75.8-1.37,1.01-.65.21-1.17-.1-1.75-.19-.35-.06-.42-.56-.1-.74.5-.29.58-.75.44-1.17-.08-.26-.47-.44-.73-.63-.07-.06-.2-.04-.29-.07-.38-.1-.46-.31-.13-.54.47-.34.37-.81.35-1.24-.02-.39-.21-.77-.26-1.17-.1-.78-.64-1.04-1.31-1.11-.25-.03-.23-.13-.2-.3.17-.77.44-1.53.47-2.3.02-.56.13-1.11.18-1.66.03-.34.14-.68.21-1.02.1-.49.17-.99.28-1.48.15-.67.28-1.34.48-1.99.24-.77.53-1.53.82-2.29.22-.56.47-1.11.74-1.64.25-.49.53-.97.85-1.43.28-.4.63-.76.94-1.14.25-.31.44-.66.71-.94.37-.39.8-.73,1.2-1.11.19-.18.35-.4.54-.57.53-.47,1.03-.98,1.61-1.36.25-.16.45-.36.68-.52.53-.39,1.09-.72,1.7-.97.23-.1.43-.26.66-.41-.2-.54-.4-1.09-.61-1.65-.08-.2-.19-.38-.27-.58-.05-.13-.15-.31-.1-.41.23-.52-.15-.82-.35-1.2-.17-.31-.21-.69-.36-1.02-.22-.5-.5-.98-.73-1.47-.14-.31-.24-.65-.37-.97-.15-.38-.32-.74-.47-1.12-.07-.18-.1-.37-.17-.54-.33-.78-.69-1.55-1.01-2.34-.29-.72-.54-1.46-.83-2.19-.26-.66-.6-1.29-.81-1.96-.25-.76-.39-1.55-.59-2.33-.18-.69-.38-1.38-.55-2.08-.08-.33-.11-.68-.18-1.01-.14-.6-.31-1.19-.44-1.79-.09-.45-.12-.9-.19-1.35-.05-.29-.13-.58-.21-.86-.12-.41-.37-.82-.36-1.22.02-.69-.4-1.27-.39-1.94,0-.28.14-.57-.09-.83-.13-.15-.2-.36-.34-.5-.09-.08-.27-.1-.41-.09-.63.04-1.26.1-1.89.17-.17.02-.34.14-.51.15-.27.01-.55.08-.82-.11-.09-.06-.3.06-.43.02-.51-.14-.96-.34-1.4-.68-.36-.28-.57-.62-.85-.93-.56-.62-.52-1.4-.77-2.09-.11-.31-.02-.71.05-1.06.1-.48.27-.95.41-1.42,0-.03.06-.04.11-.07-.5-.41-1.07-.68-1.4-1.22-.14-.22-.25-.47-.3-.73-.07-.37-.16-.76-.1-1.12.08-.49.29-.97.45-1.45.09-.26.2-.51.3-.76.03-.07.04-.18.09-.21.39-.22.47-.65.7-.98.26-.37.5-.76.74-1.14.07-.12.14-.25.21-.37-13.47,7.63-22.56,22.09-22.56,38.67,0,24.53,19.89,44.42,44.42,44.42,3.3,0,6.51-.36,9.61-1.05-.02-.06-.04-.13-.02-.18Z"/>
      <path d="m150.13,99.91c.29-.15.54-.43.71-.7.1-.15.08-.48-.02-.62-.09-.11-.41-.12-.59-.06-.29.1-.55.31-.82.47-.3.17-.6.36-.92.51-.41.19-.84.35-1.26.52-.6.24-1.19.47-1.87.74.32.07.6.16.89.18,1.41.12,2.67-.41,3.89-1.03Z"/>
      <path d="m149.21,102.16c.76-.36,1.35-.91,1.96-1.45.24-.21.27-.56.1-.73-.85.45-1.66.96-2.54,1.31-.85.33-1.71.64-2.64.99,1.12.57,2.1.36,3.12-.12Z"/>
    </g>
  </g>
</svg>