<?xml version="1.0" encoding="UTF-8"?>
<svg id="Capa_1" data-name="Capa 1" xmlns="http://www.w3.org/2000/svg" viewBox="0 0 300.65 200.77">
  <defs>
    <style>
      .cls-1 {
        fill: none;
        stroke: #000;
        stroke-miterlimit: 10;
      }
    </style>
  </defs>
  <rect class="cls-1" x=".5" y=".5" width="299.65" height="199.77"/>
  <g>
    <g>
      <path d="m143.1,66.3c.7-.21,1.45-.34,2.07-.69,1.49-.83,3.1-1.2,4.75-1.48,1.21-.21,2.42-.42,3.64-.63,1.1-.19,2.19-.44,3.29-.54,1.16-.11,2.34-.08,3.5-.13.5-.02,1.02-.15,1.51-.09,1.69.21,3.36.49,5.05.73.28.04.57-.03.93-.05-.07-.2-.08-.33-.14-.42-1.05-1.58-2.34-2.88-3.99-3.88-1.73-1.04-3.56-1.72-5.51-2.09-1.08-.2-2.17-.5-3.29-.19-.95.27-1.89.54-2.85.77-1.71.41-3.26,1.23-4.79,2.04-.59.31-.97.4-1.56.04,0-.24-.1-.56.02-.74.38-.58.84-1.11,1.32-1.72-.26-.12-.43-.26-.62-.27-1.99-.12-4-.16-5.94.34-1.31.34-2.56.94-3.83,1.43-.04.01-.1.05-.1.07-.07.65-.57.64-1.04.74-.2.04-.38.2-.55.33-.94.74-1.89,1.48-2.81,2.25-.23.2-.37.51-.58.81,1.15,0,2.16.08,3.16-.02,1.91-.19,1.9-.23,3.31,1.03-.78.96-1.85,1.32-3.02,1.5-.55.08-1.12.17-1.62.39-1.26.54-2.46,1.23-3.73,1.73-2.1.83-3.58,2.44-5.13,3.94-1.03.99-1.41,2.5-1.2,3.8.36,2.22,1.41,4.18,3.47,5.43.8.48,1.5,1.12,2.22,1.67-.04.83-.48,1.02-1.14.95-1.01-.11-2.02-.4-3.03-.02.34,1.32.35,1.33,1.9,2.57,1.08.86,2.33.83,3.36-.04.52-.43,1.08-.82,1.67-1.16,1.26-.71,2.55-1.33,3.93-1.79.97-.32,1.9-.77,2.87-1.11.71-.25,1.48-.65,2.17-.56,1.83.25,3.47-.97,5.29-.54.5-.61,1.09-.11,1.64-.13.15,0,.31.12.46.11,1.02-.08,2.04-.28,3.05-.26,1.19.02,2.37.21,3.56.34,1.03.11,1.03.11,1.3,1.23-.32.13-.65.35-1.01.4-1.39.2-2.79.37-4.19.52-1.48.16-2.93.54-4.44.57-.49,0-.97.41-1.47.46-1.61.17-3.17.54-4.69,1.03-.67.22-1.32.54-1.96.85-.58.27-1.18.53-1.7.89-.51.35-1.1.01-1.64.36-1.14.75-2.38,1.35-3.56,2.04-1.33.78-1.71,2.08-1.82,3.51-.06.75.18,1.35.81,1.73,1.43-.92,2.77-1.91,4.22-2.7,1.51-.82,3.08-1.53,4.69-2.13,1.34-.5,2.74-.82,4.14-1.12,1.08-.23,2.2-.38,3.3-.42,2.31-.08,4.63-.16,6.94-.04,2.28.11,4.43.9,6.6,1.57,2.46.76,4.66,1.98,6.73,3.48.67.49,1.32.99,2.03,1.53.18-.15.31-.22.37-.32.09-.14.16-.3.18-.47.26-1.56-.33-2.83-1.44-3.84-.84-.76-1.75-1.48-2.71-2.07-1.55-.94-2.99-2.19-5-2.09-.38.02-.78-.3-1.18-.48.55-1.2,1.49-1.29,2.53-1.1,3.93.73,7.28,2.55,10.09,5.45,1.24-1.19,2.12-2.58,2.56-4.23.31-1.16-.3-1.83-1.45-1.57-.54.12-1.08.31-1.59.53-.95.41-1.06.37-1.41-.77.93-.7,1.85-1.46,2.84-2.12,1.1-.73,1.96-1.66,2.67-2.75.57-.88.97-1.82.8-2.91-.11-.71-.23-1.42-.34-2.13-.39-2.4-2.05-3.9-3.96-5.01-1.46-.85-3.14-1.39-4.78-1.85-2.77-.78-5.63-1.15-8.49-1.34-1.86-.12-3.75-.19-5.59.39-.78.25-1.58.43-2.37.63-1.18.3-2.38.53-3.53.9-.78.25-1.52.67-2.25,1.06-1.06.56-2.09,1.16-3.28,1.83-.21-.41-.51-.76-.56-1.14-.14-1.05.93-2.49,1.96-2.8Z"/>
      <path d="m168.35,103.98c.47-.49.57-1.11.46-1.7-.29-1.57-.6-3.14-1.03-4.67-.31-1.1-1.01-1.99-2.09-2.52-.23-.11-.4-.32-.62-.45-1.01-.62-1.98-1.35-3.06-1.81-1.27-.55-2.63-.88-3.96-1.27-1.83-.54-3.71-.81-5.62-.94-.83-.05-1.72.23-2.46-.41-.07-.06-.29-.06-.37,0-.7.6-1.54.34-2.32.4-1.9.14-3.78.36-5.6.94-1.79.57-3.6,1.12-5.25,2.06-.28.16-.46.46-.74.63-.87.52-1.8.96-2.64,1.53-.4.27-.78.73-.93,1.19-.43,1.3-.74,2.65-1.1,3.97-.42,1.56-.24,2.92,1,4.14.9.88,1.53,1.99,1.24,3.37-.2.92-.38,1.84-.64,2.74-.36,1.21.18,1.94,1.23,2.47.53.27,1.2.32,1.65.68,1.52,1.2,3.4,1.21,5.13,1.73.45.13.92.13,1.27-.37.18-.26.56-.38.83-.59.89-.67,1.78-1.34,3-1.24.13.01.28-.23.54-.46-1.21-.47-1.56-1.35-1.67-2.44-.06-.59.14-.89.62-1.12.93-.45,1.85-.9,2.77-1.35.61.82.56,1.28-.14,1.71-.5.3-.99.62-1.68,1.04.48.49.81.92,1.22,1.24.79.6,1.62,1.15,2.5,1.76,0,0,.18-.02.23-.11.45-.72,1.09-1.13,1.86-1.48.54-.24.92-.82,1.51-1.38-.68-.44-1.16-.76-1.66-1.07-.65-.41-.7-.73-.2-1.38.33-.43.43-1.74.08-1.86-1.1-.38-.59-.97-.23-1.48.31-.43.35-.76-.01-1.14-.09-.09-.22-.19-.23-.3-.03-.28-.08-.6.03-.82.06-.12.46-.16.67-.11.44.12.89.28,1.28.51.73.43,1.37,1.05,2.14,1.35,2.26.9,4.54.81,6.78-.17.46-.2.99-.34,1.48-.34.69,0,.96.54.49,1.02-.55.58-1.2,1.26-1.92,1.45-1.64.42-3.28,1.02-5.04.82-.79-.09-1.6-.02-2.45-.02-.05.3-.16.54-.1.71.17.48.38.96.65,1.39.82,1.3.83,1.7-.04,2.91-.2.28-.38.57-.6.91.73.44,1.43.73,1.97,1.2,1.05.89,2.08,1.45,3.53.95,1.16-.4,2.4-.53,3.5-1.13.67-.36,1.34-.73,2.05-1.01,1.09-.42,1.62-1.33,1.37-2.42-.15-.67-.22-1.36-.46-2-.59-1.6-.15-2.92.91-4.14.31-.36.55-.78.87-1.12Zm-35.91-4.96c-.06-1.31.88-1.72,1.58-2.15.82-.5,1.77-.72,2.82-.68,1.36.06,2.71.03,4.03.37.78.2,1.01-.28,1.16-.85.25-.97.88-1.65,1.64-2.23.24-.18.59-.22.9-.32.76,1.6-.69,2.79-.51,4.37.97.32,2,.71,3.05,1,.67.18,1.04.56,1.17,1.21-.26.43-.53.86-.77,1.3-.4.72-1.76,1.91-2.4,2.28-.9.51-1.79.27-2.64.01-.55-.16-.78-.06-1.03.4-.39.73-.41.72-1.34,1.04-.11-.79-.21-1.55-.34-2.45-1.29.19-2.44.36-3.59.53-.05.12-.09.23-.14.35-.21-.26-.42-.53-.67-.85,1.08-.96,2.1-1.86,3.12-2.76-1.9-1.01-3.97-.76-6.05-.58Zm15.18,7.73c-.34-.05-.66-.17-1-.24-1.12-.23-1.93.16-2.41,1.42-2.25-.3-4.52-.49-6.73-.95-.75-.15-1.43-.91-2.02-1.5-.41-.42-.12-.96.49-.97.46,0,.97.05,1.37.26,1.56.83,3.24.96,4.92.76.84-.1,1.67-.51,2.46-.9.96-.47,1.92-.89,3.06-1.1-.34.82-.18,1.39.37,1.96.26.27.32.73.54,1.26-.49,0-.77.03-1.05,0Zm13.49-7.16c.96.84,1.98,1.74,3.04,2.66-.21.26-.42.51-.57.7-2.23-.41-4.35-.69-6.43.35-1.26.63-2.34.15-3.48-.58-1.4-.89-1.75-2.19-2.17-3.63.19-.14.37-.39.59-.43,2.82-.56,5.35-2.21,8.29-2.32,1.49-.06,3.03-.5,4.46.21.79.39,1.49.98,2.19,1.53.15.12.12.46.24.99-2.22-.09-4.28-.62-6.15.52Z"/>
      <path d="m160.81,135.87c.17,1.05,1.06,1.36,2.04.96,1.36-.57,2.02-1.74,2.55-2.93.72-1.62,1.51-3.16,2.78-4.38-.46-2.17-1.58-3.83-3.27-5.4-.1,1.34-.1,2.43-.29,3.48-.1.6-.39,1.26-.8,1.7-.39.42-.97.94-1.69.39-.44-.34-.83-.16-1.14.2-1.36,1.59-3.01,2.5-5.17,2.38-.38-.02-.85.21-1.16.47-1.28,1.08-2.8,1.68-4.35,2.19-.27.09-.6.13-.86.05-1.57-.47-3.09-1.07-4.37-2.13-.5-.41-1-.66-1.64-.61-1.88.16-3.29-.74-4.55-2-.27-.27-.57-.62-.89-.66-.3-.04-.65.27-.95.41-1.44-.38-2.08-1.32-2.12-2.75-.03-.97-.15-1.93-.24-3.06-1.96,1.39-2.69,3.32-3.28,5.31,1,1.12,1.88,2.2,2.4,3.57.36.95,1.05,1.77,1.56,2.67.44.79,1.27.98,1.99,1.31.23.1.74-.14.98-.37.87-.81.79-2.82-.54-3.57-.46-.26-.97-.41-1.47-.62.01-.13-.02-.28.05-.37.49-.66,1.11-.68,2.05-.13,1.77,1.04,2.47,2.73,2.24,4.61-.2,1.59.39,2.41,1.62,3.14.78.46,1.61.63,2.44.9,1.07.35,1.91.18,2.82-.14.29-1.91-.07-2.5-1.77-2.97-.28-.08-.53-.25-.77-.36.09-.79.48-1.04,1.16-.87,1.33.33,2.56.8,3.17,2.19.11.25.29.47.48.78.19-.3.36-.5.45-.73.57-1.41,1.82-1.89,3.13-2.24.76-.2.88-.07,1.18.97-.36.1-.73.2-1.09.31-.66.2-1.15.59-1.43,1.22-.43.96-.01,1.71.97,1.98.78.21,1.45-.25,2.1-.24,1.28.02,2.02-.77,2.92-1.36.87-.57,1.12-1.33.91-2.34-.22-1.05.09-2.07.5-3.02.51-1.19,1.48-1.9,2.71-2.22.74-.19.95.03,1.08.92-.07.04-.14.11-.21.13-1.87.39-2.53,1.38-2.24,3.2Z"/>
      <path d="m155.54,125.88c1.1-.53,2.2-.7,3.33.03.68.44,1.42.82,2.16,1.15.44.19.94.24,1.38.34.78-1.91-.31-4.66-2.36-4.81-.18-.3-.31-.6-.5-.85-1.05-1.41-2.55-2.01-4.19-1.75-1.89.3-3.34-.4-4.69-1.51-.67-.55-1.12-.67-1.63,0-.59.77-1.48.99-2.23,1.3-.72.3-1.58.57-2.55.27-.71-.22-1.75-.23-2.45.38-.69.6-1.63.97-1.97,1.97-.07.22-.45.37-.72.48-1.87.75-2.64,2.58-1.81,4.59.51-.14,1.06-.23,1.55-.45.7-.32,1.38-.71,2.04-1.13,1.14-.73,2.26-.46,3.33.1.56.29.77.93.73,1.56-.01.21-.22.5-.4.56-.14.04-.52-.19-.55-.35-.17-.84-.63-.81-1.24-.52-.23.11-.48.19-.7.32-.59.36-.75.93-.68,1.57.08.67.57,1.03,1.16,1.02.85-.02,1.69-.2,2.53-.33.72-.11,1.44-.34,2.15-.32.68.01,1.35.28,1.56,1.31-.61.1-1.18.19-1.81.29.86,1.47,2.18,1.39,3.47,1.29,1.47-.11,1.68-.29,2.13-1.42-.53-.16-1.24.39-1.63-.36.11-.78.72-1.07,1.38-1.1.72-.02,1.45.13,2.16.25.68.12,1.34.39,2.02.46,1.22.12,1.87-.55,1.75-1.66-.08-.69-.69-1.24-1.61-1.47-.7-.18-.92.19-1.01.79-.02.11-.28.29-.39.26-.17-.05-.37-.21-.44-.37-.26-.6.11-1.57.74-1.87Zm-2.79-3.42c-.68-.2-1.09-.07-1.21.81-.09.69-.58,1.33-.85,2-.19.47-.56.76-.97.68-.3-.06-.62-.45-.77-.77-.25-.53-.35-1.13-.57-1.68-.15-.39-.39-.75-.6-1.14-1.11.05-2.14.6-2.83-.64-.04-.53.48-.68.89-.81,2.61-.79,5.24-.82,7.86-.03.41.12.74.47,1.11.72-.58.85-1.21,1.11-2.07.85Z"/>
      <path d="m129.88,125.31c0,.27.17.53.29.89.83-1.51,1.64-2.9,2.35-4.33.64-1.29,1.48-2.41,2.67-3.18.49-.31.4-.54.24-1.03-.6.03-1.12.03-1.62.1-.32.05-.69.12-.94.31-.83.65-1.86,1.16-1.98,2.4,0,.08-.07.15-.12.23-.95,1.41-.87,3.02-.89,4.61Z"/>
      <path d="m167.89,59.22c1.02.67,1.99,1.42,2.93,2.18.86.71,1.46,1.65,1.34,2.82-.09.87.39,1.37,1.02,1.6,1.47.52,2.27,1.69,2.96,2.9.78,1.37,1.45,2.83,1.96,4.31.55,1.59.5,3.26-.02,4.88-.3.93-.64,1.86-.89,2.8-.12.43-.07.9-.1,1.35,0,.09,0,.18-.02.26-.35,1.35-.25,2.75-.72,4.1-.48,1.4-1.21,2.56-2.29,3.56-.78.71-1.22,1.58-1.34,2.73-.13,1.15-.78,2.23-1.16,3.36-.16.47-.33.99-.29,1.47.15,1.71.49,3.42.59,5.13.1,1.81.05,3.64-.87,5.29-.38.68-.33,1.23.11,1.89,1.02,1.54.81,3.31.77,5.03-.02.9-.14,1.79-.27,2.68-.04.27-.22.52-.37.76-.36.55-.44,1.1-.18,1.71.76,1.78.91,3.66.89,5.56,0,.83.11,1.64-.07,2.51-.35,1.76-1.08,3.31-2.24,4.57-1.14,1.25-1.89,2.67-2.54,4.17-.62,1.44-1.62,2.32-3.07,2.81-1.05.35-2.07.8-3.09,1.25-.42.19-.85.44-1.18.75-.25.23-.51.45-.78.64,19.92-4.19,34.87-21.85,34.87-43.01,0-17.85-10.65-33.22-25.94-40.1Z"/>
      <path d="m140.35,142.05c-.86-.84-1.89-1.31-3-1.71-1.17-.43-2.31-.95-3.45-1.45-.17-.08-.33-.25-.43-.42-.56-1.02-1.09-2.06-1.66-3.07-.38-.67-.72-1.38-1.24-1.93-1.58-1.69-2.8-3.68-2.91-5.92-.12-2.43-.16-4.97.88-7.31.21-.48.33-.99.03-1.47-.86-1.4-.71-2.98-.8-4.51-.03-.46-.02-.93-.01-1.39.02-1.46.52-2.7,1.65-3.51-.84-1.94-1.8-3.68-1.49-5.8.27-1.87.39-3.77.53-5.66.03-.45,0-1.01-.24-1.36-1.11-1.59-1.68-3.37-2.08-5.23-.07-.31-.25-.64-.47-.86-1.89-1.83-2.93-4.04-3.13-6.65-.08-1.05-.09-2.11-.26-3.14-.12-.74-.47-1.45-.71-2.18-.83-2.45-.59-4.77.53-7.12.63-1.31,1.22-2.64,2.11-3.78.48-.62,1.14-1.14,1.83-1.54.79-.46,1.39-.87,1.29-1.94-.09-.96.41-1.74,1.19-2.32.88-.65,1.83-1.23,2.6-2,.16-.16.32-.31.49-.45-15.15,6.94-25.68,22.23-25.68,39.98,0,21.1,14.87,38.73,34.71,42.98-.1-.08-.19-.16-.27-.24Z"/>
      <path d="m169.72,125.2c0-.77-.03-1.55-.11-2.32-.08-.8-.05-1.66-.97-2.12-.19-.1-.27-.52-.3-.81-.05-.57-.39-.9-.75-1.29-.92-.99-2.09-1.04-3.37-1.06-.08.27-.16.54-.24.79,1.37.74,2.25,1.83,2.95,3.08.85,1.53,1.66,3.08,2.59,4.83.09-.48.2-.79.19-1.1Z"/>
    </g>
    <g>
      <g>
        <path d="m90.72,104.01c1.32-1.03,1.85-1.52,1.85-2.38,0-.63-.27-.99-.8-.99-.69,0-1.03.68-1.02,1.79h-1.69c.11-1.64,1.21-2.59,2.97-2.59,1.48,0,2.39.65,2.39,1.82s-.88,1.71-2.13,2.37c-.61.33-1.11.63-1.47.92h3.6s0,1.43,0,1.43h-5.26v-.25c0-.8.43-1.24,1.58-2.12Z"/>
        <path d="m95.16,103.19c0-2.15,1.06-3.35,2.91-3.35s2.91,1.2,2.91,3.35-1.06,3.35-2.91,3.35-2.91-1.2-2.91-3.35Zm2.91,2.56c.7,0,1-.67,1-2.56s-.3-2.57-1-2.57-1,.67-1,2.57.29,2.56,1,2.56Z"/>
      </g>
      <g>
        <path d="m201.66,103.96c1.32-1.03,1.85-1.52,1.85-2.38,0-.63-.27-.99-.8-.99-.69,0-1.03.68-1.02,1.79h-1.69c.11-1.64,1.21-2.59,2.97-2.59,1.48,0,2.39.65,2.39,1.82s-.88,1.71-2.13,2.37c-.61.33-1.11.63-1.47.92h3.6s0,1.43,0,1.43h-5.26v-.25c0-.8.43-1.24,1.58-2.12Z"/>
        <path d="m206.01,103.97h.98c.06.97.64,1.53,1.48,1.53.75,0,1.18-.41,1.18-1.09,0-.72-.48-1.08-1.26-1.08h-.58v-.68h.6c.73,0,1.17-.4,1.17-1.19,0-.57-.28-.93-.84-.93-.59,0-1.06.41-1.12,1.39h-1.6c.2-1.36,1.36-2.14,2.98-2.14,1.41,0,2.41.59,2.41,1.64,0,.86-.68,1.38-1.72,1.51,1.09.1,1.9.58,1.9,1.61,0,1.22-1.18,1.94-2.66,1.94-1.72,0-2.81-.92-2.92-2.51Z"/>
      </g>
      <g>
        <path d="m94.99,92.49l-3.54-2.43c-.19-.13-.38-.22-.56-.19l.38-1.61,4.92-.67c.42-.06.77-.17,1-.38h.04s-.6,2.54-.6,2.54h-.04c-.09-.38-.35-.45-.79-.42l-.61.04-.45,1.89.5.32c.43.27.68.3.91.05h.03s-.41,1.76-.41,1.76h-.03c-.11-.3-.32-.6-.75-.9Zm-.46-3.07l-2.39.18,2.04,1.31.35-1.49Z"/>
        <path d="m97.29,87.07c-.12-.31-.44-.49-1.02-.69l-2.94-1.01c-.58-.2-.95-.25-1.23-.08h-.03s.75-2.2.75-2.2h.03c.12.32.44.5,1.02.7l3.41,1.17.14-.4c.22-.65.27-1.04.15-2.04l1.17.4-1.42,4.15h-.03Z"/>
        <path d="m96.62,81.72l.5-1.22,1.11.46-.5,1.22-1.11-.46Z"/>
        <path d="m99.53,80.94c-.08-.32-.38-.54-.93-.81l-2.8-1.35c-.56-.27-.91-.36-1.21-.23l-.03-.02,1-2.08.03.02c.08.32.38.54.93.81l3.25,1.57.18-.38c.3-.62.39-1,.4-2l1.12.54-1.91,3.95-.03-.02Z"/>
        <path d="m100.98,75.87l-2.6-3.42c-.14-.18-.29-.32-.47-.36l.87-1.41,4.88.91c.42.08.78.07,1.07-.05l.03.02-1.36,2.22-.03-.02c.03-.38-.2-.52-.62-.64l-.6-.15-1.02,1.66.37.46c.32.39.55.5.85.33l.02.02-.94,1.53-.03-.02c0-.31-.12-.67-.44-1.09Zm.52-3.06l-2.33-.58,1.53,1.88.8-1.3Z"/>
        <path d="m102.44,70.04c-1.4-1.09-1.5-2.78-.32-4.3,1.17-1.51,2.84-1.82,4.24-.72.81.63,1.14,1.51,1.01,2.46l1.63.02.09.07-.78,1-1.15-.16c-.1.31-.26.61-.47.89-1.18,1.52-2.85,1.83-4.25.73Zm3.69-1.18c.14-.18.23-.36.25-.55l-2.3-.32.42-.54,1.74.02c-.18-.35-.51-.72-.96-1.07-1.04-.81-1.99-.92-2.56-.19-.57.74-.24,1.63.82,2.45,1.06.83,2.02.94,2.59.21Z"/>
        <path d="m108.13,65.78l-1.78-3.91c-.1-.21-.21-.38-.38-.45l1.16-1.19,4.57,1.96c.39.17.75.24,1.05.18l.03.03-1.82,1.87-.03-.03c.11-.36-.08-.55-.46-.76l-.55-.28-1.36,1.4.26.53c.22.45.43.61.76.51l.02.02-1.25,1.29-.02-.02c.06-.3.03-.68-.19-1.16Zm1.18-2.87l-2.14-1.08,1.08,2.18,1.06-1.1Z"/>
        <path d="m111.43,58.64l1.55,1.87c.42.51.74.76,1.13.74l.02.03-1.25,1.03-.02-.03c.05-.35-.15-.69-.57-1.2l-1.91-2.32c-.39-.48-.67-.72-.96-.75l-.02-.03,1.32-1.09,4.26,1.33-1.53-1.86c-.42-.51-.74-.76-1.12-.75l-.02-.03,1.23-1.02.02.03c-.04.34.16.69.58,1.2l2.7,3.26-1.13.93-4.26-1.35Z"/>
        <path d="m114.22,54.07l4.31-2.88.66,1c-.9.15-1.31.24-1.74.53h-.02s2.03,3.06,2.03,3.06c.34.51.6.77.93.81l.02.03-1.92,1.28-.02-.03c.1-.32-.05-.66-.39-1.17l-2.03-3.04h-.01c-.44.3-.67.64-1.16,1.42l-.66-.99Z"/>
        <path d="m122.28,52.66l1.16-.62.56,1.05-1.16.62-.56-1.06Z"/>
        <path d="m128.53,52.27c.17-.29.1-.66-.12-1.23l-1.1-2.91c-.22-.58-.41-.89-.72-1v-.03s2.15-.82,2.15-.82v.03c-.15.29-.09.65.13,1.23l1.27,3.37.4-.15c.65-.24.97-.45,1.67-1.18l.44,1.16-4.11,1.55v-.03Z"/>
        <path d="m132.96,50.62c.19-.27.15-.65-.01-1.23l-.84-2.99c-.17-.59-.33-.92-.63-1.06v-.04s4.08-1.15,4.08-1.15l.32,1.15c-.92-.11-1.33-.15-1.84,0l-.47.13.46,1.63.22-.06c.42-.12.94-.28,1.56-.48l.19.69c-.63.15-1.16.29-1.58.4l-.22.06.5,1.79.43-.12c.61-.17,1-.36,1.76-1.03l.32,1.16-4.24,1.19v-.04Z"/>
        <path d="m136.22,44.01v-.04s2.41-.44,2.41-.44v.04c-.16.17-.07.49.13.77l1.02,1.4.48-1.68c.09-.32.09-.67-.15-.76v-.04s1.58-.29,1.58-.29v.04c-.16.14-.35.39-.49.85l-.81,2.55.21,1.16c.11.6.24.95.53,1.11v.04s-2.3.42-2.3.42v-.04c.21-.26.21-.63.1-1.23l-.21-1.14-1.78-2.12c-.26-.34-.46-.51-.72-.61Z"/>
        <path d="m142.85,48.41c.24-.23.27-.61.22-1.21l-.27-3.09c-.05-.61-.15-.97-.43-1.16v-.04s4.23-.37,4.23-.37l.1,1.19c-.88-.28-1.28-.4-1.81-.35l-.49.04.15,1.68.23-.02c.43-.04.98-.1,1.62-.19l.06.71c-.65.03-1.2.07-1.63.11l-.23.02.16,1.86.45-.04c.63-.06,1.05-.17,1.92-.69l.11,1.2-4.39.39v-.04Z"/>
        <path d="m148.93,44.26l-.04,2.43c-.01.66.06,1.06.38,1.3v.04s-1.62-.03-1.62-.03v-.04c.26-.23.33-.63.35-1.29l.05-3c.01-.62-.04-.98-.24-1.19v-.04s1.71.03,1.71.03l2.37,3.78.04-2.41c.01-.66-.06-1.06-.36-1.3v-.04s1.59.03,1.59.03v.04c-.25.23-.33.63-.34,1.29l-.07,4.23-1.46-.02-2.36-3.8Z"/>
        <path d="m153.62,48.06c.28-.18.39-.54.46-1.14l.38-3.08c.07-.61.05-.98-.18-1.22v-.04s2.63.32,2.63.32c2.07.25,3.23,1.4,3.01,3.16-.21,1.75-1.6,2.61-3.68,2.36l-2.62-.32v-.04Zm2.59-.36c1.07.13,1.82-.5,1.99-1.84.17-1.38-.4-2.14-1.48-2.27l-.53-.06-.5,4.12.53.06Z"/>
        <path d="m160.16,47.97l2.42-3.55c.13-.19.22-.38.19-.56l1.62.38.68,4.92c.06.42.18.77.39,1v.04s-2.55-.59-2.55-.59v-.04c.38-.09.44-.35.42-.79l-.05-.61-1.9-.44-.32.5c-.27.43-.3.68-.05.91v.03s-1.76-.41-1.76-.41v-.03c.3-.11.6-.32.9-.76Zm3.07-.47l-.18-2.39-1.31,2.05,1.49.35Z"/>
        <path d="m165.79,48.5l1.36.46c-.14.69-.01,1.31.67,1.55.4.13.72.04.84-.31.16-.44-.18-.8-.91-1.53-.79-.76-1.29-1.45-1.01-2.27.34-.99,1.39-1.22,2.52-.83,1.16.39,1.9,1.25,1.76,2.41l-1.36-.46c.14-.56,0-1.14-.58-1.34-.39-.14-.68-.01-.79.29-.16.46.24.88.89,1.51.77.76,1.33,1.43,1.03,2.31-.33.97-1.4,1.25-2.61.84-1.33-.45-2.06-1.39-1.82-2.62Z"/>
        <path d="m171.93,52.53c.32-.07.55-.37.82-.92l1.4-2.77c.28-.55.38-.9.25-1.21l.02-.03,2.36,1.19c1.86.94,2.56,2.41,1.76,3.99-.79,1.57-2.39,1.91-4.26.96l-2.36-1.19.02-.03Zm2.55.54c.96.49,1.88.15,2.49-1.06.63-1.24.35-2.15-.62-2.64l-.48-.24-1.87,3.7.48.24Z"/>
        <path d="m177.62,55.49c.33-.04.59-.31.91-.83l1.68-2.61c.33-.52.47-.86.37-1.18l.02-.03,3.58,2.3-.64,1c-.53-.76-.77-1.1-1.22-1.38l-.41-.27-.91,1.42.19.12c.36.23.84.52,1.4.84l-.38.6c-.53-.37-.99-.68-1.35-.91l-.19-.12-1.01,1.57.38.24c.53.34.93.5,1.93.63l-.65,1.01-3.71-2.38.02-.03Z"/>
        <path d="m181.68,58.11c.33-.01.61-.26.98-.75l1.9-2.46c.38-.49.54-.81.47-1.14l.02-.03,1.83,1.41-.02.03c-.33.01-.61.26-.98.75l-2.2,2.86.34.26c.55.42.9.59,1.88.8l-.76.98-3.48-2.68.02-.03Z"/>
        <path d="m186.67,62.13c.33.03.64-.19,1.06-.63l2.17-2.22c.43-.44.63-.75.6-1.08l.03-.03,1.66,1.62-.03.03c-.33-.03-.63.18-1.06.63l-2.52,2.58.31.3c.49.48.82.69,1.77,1.01l-.87.89-3.14-3.07.03-.03Z"/>
        <path d="m190.05,65.45c.33.06.65-.13,1.11-.53l2.35-2.03c.47-.4.7-.69.69-1.02l.03-.02,2.77,3.22-.9.78c-.29-.87-.43-1.27-.77-1.67l-.32-.37-1.28,1.1.15.17c.28.33.65.74,1.1,1.21l-.54.46c-.4-.51-.75-.93-1.04-1.26l-.15-.17-1.41,1.22.29.34c.41.48.75.75,1.67,1.15l-.91.79-2.88-3.33.03-.02Z"/>
        <path d="m197.41,65.59l.03-.02,1.45,2.04-.03.02c-.28-.17-.53-.02-.81.35l-2.07,2.76,3.31-.99c.48-.14.67-.32.63-.6l.03-.02.94,1.33-.03.02c-.23-.1-.56-.06-1.03.07l-4.25,1.13c-.23.06-.37.12-.51.19l-.85-1.2,2.76-4.11c.25-.38.42-.69.42-.95Z"/>
        <path d="m197.01,72.91l4.24-.65c.22-.04.42-.1.54-.24l.83,1.44-3.13,3.85c-.27.33-.44.65-.46.96l-.03.02-1.3-2.26.03-.02c.31.21.55.08.85-.24l.42-.45-.97-1.69-.58.11c-.5.09-.71.25-.69.59h-.03s-.9-1.54-.9-1.54h.03c.27.12.64.2,1.16.12Zm2.44,1.92l1.63-1.77-2.39.44.76,1.32Z"/>
        <path d="m202.97,78.05l-2.23.97c-.61.26-.94.5-1.03.88h-.03s-.65-1.47-.65-1.47h.03c.32.13.71.03,1.31-.24l2.75-1.2c.57-.25.87-.44.99-.71h.03s.69,1.55.69,1.55l-2.45,3.72,2.21-.96c.61-.26.94-.5,1.03-.87h.03s.64,1.45.64,1.45h-.03c-.31-.12-.7-.02-1.31.24l-3.88,1.69-.59-1.34,2.48-3.73Z"/>
        <path d="m206.61,82l1.58,4.94-1.14.36c.1-.91.13-1.32-.02-1.82v-.02s-3.5,1.11-3.5,1.11c-.58.19-.91.37-1.04.67h-.03s-.7-2.19-.7-2.19h.04c.28.17.65.12,1.23-.06l3.49-1.11h0c-.16-.52-.42-.83-1.04-1.52l1.14-.36Z"/>
        <path d="m202.99,88.94c.26.21.64.19,1.23.06l3.03-.67c.6-.13.94-.27,1.09-.57h.04s.91,4.14.91,4.14l-1.16.26c.16-.91.23-1.32.11-1.84l-.11-.48-1.65.36.05.22c.09.42.23.96.39,1.58l-.7.15c-.11-.64-.22-1.18-.31-1.6l-.05-.22-1.82.4.1.44c.14.62.31,1.02.92,1.81l-1.18.26-.95-4.3h.04Z"/>
      </g>
      <g>
        <path d="m97.31,119.26c.33.19.76.12,1.42-.13l3.36-1.25c.67-.25,1.03-.46,1.16-.83h.04s1.06,2.85,1.06,2.85c.84,2.26.27,4.05-1.65,4.76-1.91.71-3.52-.26-4.36-2.53l-1.06-2.86h.04Zm1.74,2.46c.43,1.17,1.48,1.6,2.94,1.06,1.51-.56,1.99-1.54,1.55-2.73l-.22-.58-4.49,1.67.22.58Z"/>
        <path d="m102.71,125.76l2-1.08c.63-.34.95-.6,1.03-.98l.04-.02,1.27,2.35-.04.02c-.36-.14-.76-.01-1.38.33l-2.04,1.11c-1.12.61-1.45,1.18-1.02,1.97s1.14.91,2.26.31l2.04-1.11c.63-.34.95-.6,1.03-.98l.04-.02.87,1.61-.04.02c-.36-.14-.76-.02-1.39.32l-2,1.08c-1.79.97-3,.51-3.83-1.01-.77-1.41-.77-2.86,1.16-3.91Z"/>
        <path d="m103.84,133.23c.37.1.76-.09,1.33-.49l2.92-2.08c.58-.41.87-.72.9-1.1l.03-.02,1.55,2.17-.03.02c-.37-.1-.75.08-1.33.49l-3.39,2.42.29.4c.46.65.79.95,1.81,1.51l-1.17.83-2.94-4.12.03-.02Z"/>
        <path d="m109.43,135.72c1.57-1.44,3.51-1.12,4.88.37,1.14,1.25,1.42,2.77.48,4.13l-1.26-1.37c.56-.71.75-1.53.18-2.15-.66-.72-1.8-.49-2.72.35-1.12,1.02-1.22,2.11-.44,2.96.73.79,1.72.84,2.66.24l.74.81c-1.56,1.08-3.31.89-4.63-.55-1.38-1.51-1.37-3.42.11-4.78Z"/>
        <path d="m112.61,143.66c.38,0,.72-.27,1.17-.81l2.31-2.73c.46-.54.67-.91.6-1.29l.03-.03,3.74,3.17-.89,1.05c-.49-.95-.71-1.37-1.18-1.76l-.43-.37-1.26,1.49.2.17c.38.32.88.72,1.47,1.18l-.53.63c-.55-.51-1.03-.92-1.41-1.25l-.2-.17-1.39,1.64.39.33c.56.47.99.72,2.12,1.01l-.9,1.06-3.88-3.28.03-.03Z"/>
        <path d="m118.24,145.79l1.38.92c-.36.73-.41,1.46.28,1.93.4.27.79.26,1.03-.09.3-.44.04-.95-.55-1.98-.65-1.09-1-2-.45-2.84.67-1.01,1.91-.94,3.06-.17,1.18.79,1.74,1.96,1.24,3.21l-1.37-.92c.32-.58.33-1.27-.25-1.67-.4-.28-.75-.22-.97.09-.31.46,0,1.05.54,1.95.64,1.08,1.05,1.99.46,2.88-.66.99-1.93.97-3.16.15-1.34-.9-1.88-2.16-1.24-3.46Z"/>
        <path d="m124.81,152.27c.37-.11.61-.46.89-1.11l1.44-3.28c.29-.65.38-1.06.21-1.41l.02-.04,2.8,1.22c2.21.96,3.1,2.61,2.28,4.49-.81,1.86-2.63,2.36-4.85,1.38l-2.8-1.22.02-.04Zm2.98.46c1.14.5,2.18.05,2.81-1.38.64-1.47.27-2.5-.89-3.01l-.57-.25-1.92,4.39.57.25Z"/>
        <path d="m132.2,155.35c.35-.15.54-.54.74-1.21l1-3.44c.2-.68.24-1.1.02-1.42v-.04s4.72,1.37,4.72,1.37l-.38,1.32c-.83-.66-1.21-.96-1.8-1.13l-.54-.16-.54,1.87.25.07c.48.14,1.09.3,1.82.48l-.23.79c-.71-.24-1.31-.43-1.79-.56l-.25-.07-.6,2.07.5.14c.7.2,1.2.25,2.35.06l-.39,1.33-4.88-1.42v-.04Z"/>
        <path d="m140.71,154.37c.22-2.03,1.81-3.17,4.02-2.93,2.19.23,3.51,1.68,3.29,3.73-.22,2.03-1.81,3.17-4,2.93-2.21-.23-3.53-1.69-3.31-3.73Zm3.4,2.86c1.06.11,1.73-.76,1.9-2.3.16-1.52-.31-2.51-1.37-2.63-1.07-.11-1.74.76-1.91,2.29-.16,1.52.31,2.51,1.38,2.63Z"/>
        <path d="m151.24,155.37h-.25s.05,1.46.05,1.46c.03.7.13,1.12.44,1.36v.04s-2.66.09-2.66.09v-.04c.29-.26.35-.68.32-1.38l-.13-3.58c-.03-.71-.12-1.12-.42-1.36v-.04s3.1-.11,3.1-.11c1.75-.06,2.77.38,2.81,1.6.03.98-.57,1.53-1.58,1.73l2.39,2.88v.07s-2.22.08-2.22.08l-1.85-2.8Zm.11-.71c.82-.03,1.28-.35,1.26-1.15-.02-.69-.48-.98-1.27-.95l-.44.02.07,2.1h.38Z"/>
        <path d="m155.27,154.9c-.36-2.01.86-3.54,3.05-3.93,2.17-.38,3.84.64,4.2,2.67.36,2.01-.86,3.54-3.03,3.92-2.19.39-3.86-.64-4.21-2.66Zm4.06,1.8c1.05-.19,1.46-1.21,1.19-2.73-.27-1.5-1-2.33-2.05-2.14-1.06.19-1.46,1.21-1.2,2.73.27,1.5,1,2.33,2.06,2.14Z"/>
        <path d="m165.47,153.04l1.44-.48.43,1.31-1.44.48-.43-1.31Z"/>
        <path d="m167.87,148.48l5.4-2.56.59,1.25c-1.06.02-1.53.05-2.07.31h-.02s1.81,3.83,1.81,3.83c.3.64.56.98.92,1.08l.02.04-2.4,1.14-.02-.04c.16-.35.05-.76-.25-1.4l-1.81-3.82h-.02c-.55.27-.87.62-1.56,1.42l-.59-1.25Z"/>
        <path d="m175.79,150.56l-.92-4.87c-.05-.26-.13-.49-.3-.61l1.62-1.01,4.57,3.46c.39.29.77.48,1.13.5l.02.04-2.55,1.59-.02-.04c.23-.37.07-.64-.31-.98l-.54-.46-1.9,1.19.15.67c.13.57.31.8.7.78l.02.03-1.76,1.1-.02-.03c.15-.32.22-.75.11-1.35Zm2.12-2.89l-2.1-1.8.61,2.74,1.49-.93Z"/>
        <path d="m182.53,147.51c.07-.38-.14-.75-.59-1.29l-2.29-2.76c-.45-.55-.78-.82-1.16-.82l-.03-.03,2.24-1.85c1.29-1.06,2.42-1.48,3.14-.6.52.63.28,1.45-.65,2.35l.04.05c1.14-.8,2.15-.96,2.78-.2.81.97.26,2.12-1.21,3.35l-2.24,1.86-.03-.03Zm-.28-4.6c.56-.46.69-.92.25-1.46-.45-.54-.92-.45-1.46,0l-.37.3,1.21,1.46.37-.31Zm1.97,2.28c.59-.49.76-1.01.22-1.66-.54-.65-1.11-.63-1.72-.13l-.4.34,1.49,1.8.42-.35Z"/>
        <path d="m187.17,142.18l-2.15-4.46c-.12-.24-.25-.44-.45-.51l1.31-1.4,5.31,2.16c.46.18.87.26,1.22.19l.03.03-2.05,2.2-.03-.03c.12-.42-.1-.64-.55-.86l-.64-.31-1.53,1.64.31.61c.27.52.51.7.88.57l.02.02-1.42,1.52-.02-.02c.06-.35.02-.78-.24-1.33Zm1.3-3.34l-2.5-1.2,1.29,2.49,1.2-1.29Z"/>
        <path d="m192.04,133.79l-.14.2,1.18.84c.57.41.97.58,1.35.47l.03.02-1.54,2.18-.03-.02c-.03-.38-.33-.69-.91-1.1l-2.93-2.07c-.58-.41-.96-.59-1.34-.49l-.03-.02,1.79-2.54c1.01-1.43,1.98-1.97,2.98-1.27.8.57.87,1.38.42,2.31l3.74-.16.06.04-1.29,1.82-3.35-.22Zm-.5-.52c.47-.67.5-1.23-.15-1.69-.57-.4-1.08-.21-1.53.43l-.25.36,1.72,1.21.22-.31Z"/>
        <path d="m194.11,130.3c-1.89-.98-2.26-2.91-1.32-4.71.78-1.5,2.11-2.28,3.72-1.86l-.86,1.65c-.86-.29-1.69-.18-2.08.57-.45.87.15,1.86,1.26,2.43,1.35.7,2.4.43,2.93-.6.5-.95.2-1.9-.69-2.58l.51-.97c1.55,1.09,1.97,2.81,1.07,4.54-.94,1.81-2.74,2.46-4.53,1.53Z"/>
        <path d="m199.45,124.3l-3.74-3.25c-.2-.17-.41-.3-.61-.29l.65-1.8,5.73-.12c.49-.01.9-.1,1.19-.31h.04s-1.02,2.84-1.02,2.84h-.04c-.05-.45-.34-.56-.85-.59l-.71-.03-.76,2.11.53.43c.45.37.74.44,1.04.17h.03s-.7,1.96-.7,1.96h-.03c-.08-.36-.29-.74-.75-1.14Zm-.12-3.58l-2.77-.11,2.17,1.77.6-1.66Z"/>
      </g>
    </g>
  </g>
</svg>