<?xml version="1.0" encoding="UTF-8"?>
<svg id="Capa_1" data-name="Capa 1" xmlns="http://www.w3.org/2000/svg" viewBox="0 0 1201 801">
  <defs>
    <style>
      .cls-1 {
        fill: none;
        stroke: #000;
        stroke-miterlimit: 10;
      }
    </style>
  </defs>
  <rect class="cls-1" x=".5" y=".5" width="1200" height="800"/>
  <g>
    <g>
      <path d="m361.79,413.9c5.29-4.14,7.4-6.07,7.4-9.53,0-2.51-1.09-3.97-3.19-3.97-2.75,0-4.14,2.71-4.11,7.16h-6.75c.44-6.55,4.85-10.38,11.87-10.38,5.94,0,9.57,2.61,9.57,7.29s-3.53,6.85-8.55,9.5c-2.44,1.32-4.44,2.51-5.9,3.66l14.42-.03v5.77h-21.07v-.98c0-3.19,1.73-4.95,6.31-8.48Z"/>
      <path d="m379.56,410.61c0-8.62,4.24-13.43,11.67-13.43s11.67,4.82,11.67,13.43-4.24,13.4-11.67,13.4-11.67-4.82-11.67-13.4Zm11.67,10.24c2.82,0,4-2.68,4-10.24s-1.19-10.28-4-10.28-4,2.68-4,10.28,1.15,10.24,4,10.24Z"/>
    </g>
    <g>
      <path d="m806.07,413.7c5.29-4.14,7.4-6.07,7.4-9.53,0-2.51-1.09-3.97-3.19-3.97-2.75,0-4.14,2.71-4.11,7.16h-6.75c.44-6.55,4.85-10.38,11.87-10.38,5.94,0,9.57,2.61,9.57,7.29s-3.53,6.85-8.55,9.5c-2.44,1.32-4.44,2.51-5.9,3.66l14.42-.03v5.77h-21.07v-.98c0-3.19,1.73-4.95,6.31-8.48Z"/>
      <path d="m823.5,413.77h3.94c.24,3.9,2.58,6.11,5.94,6.11,2.98,0,4.72-1.63,4.72-4.38,0-2.88-1.93-4.31-5.06-4.31h-2.31v-2.71h2.41c2.92,0,4.68-1.59,4.68-4.75,0-2.27-1.12-3.73-3.36-3.73-2.37,0-4.24,1.66-4.48,5.56h-6.41c.81-5.46,5.43-8.58,11.94-8.58,5.67,0,9.63,2.37,9.63,6.58,0,3.43-2.71,5.53-6.89,6.04,4.38.41,7.6,2.34,7.6,6.45,0,4.88-4.72,7.77-10.65,7.77-6.89,0-11.26-3.7-11.7-10.04Z"/>
    </g>
    <g>
      <path d="m378.91,367.78l-14.17-9.73c-.76-.51-1.52-.87-2.24-.77l1.52-6.47,19.71-2.67c1.69-.24,3.06-.7,3.98-1.54l.14.03-2.39,10.16-.14-.04c-.35-1.47-1.4-1.75-3.15-1.65l-2.46.18-1.78,7.58,1.99,1.28c1.71,1.1,2.73,1.22,3.64.19l.11.03-1.65,7.01-.11-.03c-.42-1.16-1.28-2.38-3.02-3.58Zm-1.85-12.3l-9.59.7,8.19,5.25,1.4-5.95Z"/>
      <path d="m388.09,346.06c-.47-1.25-1.78-1.98-4.09-2.77l-11.77-4.03c-2.34-.8-3.79-1.02-4.93-.32l-.14-.05,3-8.76.14.05c.47,1.25,1.75,1.97,4.09,2.77l13.66,4.68.55-1.61c.9-2.62,1.08-4.17.62-8.15l4.7,1.61-5.7,16.63-.14-.05Z"/>
      <path d="m385.44,324.64l2-4.87,4.43,1.82-2,4.87-4.43-1.82Z"/>
      <path d="m397.08,321.54c-.32-1.3-1.53-2.17-3.73-3.23l-11.2-5.4c-2.22-1.07-3.64-1.46-4.85-.9l-.13-.06,4.02-8.34.13.06c.32,1.3,1.5,2.16,3.73,3.23l13,6.27.74-1.54c1.2-2.49,1.57-4,1.58-8.01l4.48,2.16-7.64,15.83-.13-.06Z"/>
      <path d="m402.88,301.22l-10.4-13.68c-.56-.72-1.17-1.3-1.88-1.43l3.47-5.66,19.55,3.64c1.68.3,3.13.3,4.27-.21l.13.08-5.45,8.89-.13-.08c.13-1.51-.78-2.1-2.47-2.55l-2.39-.6-4.07,6.64,1.49,1.84c1.27,1.57,2.21,2.01,3.39,1.32l.1.06-3.76,6.14-.1-.06c-.04-1.23-.47-2.67-1.75-4.35Zm2.1-12.26l-9.32-2.34,6.13,7.55,3.19-5.21Z"/>
      <path d="m408.72,277.89c-5.59-4.35-6.02-11.12-1.29-17.2,4.69-6.03,11.36-7.28,17-2.9,3.25,2.53,4.57,6.05,4.06,9.86l6.52.09.37.29-3.12,4.01-4.6-.64c-.39,1.22-1.04,2.43-1.9,3.55-4.73,6.08-11.42,7.31-17.04,2.94Zm14.76-4.71c.56-.72.91-1.45,1.02-2.22l-9.23-1.3,1.68-2.16,6.96.09c-.72-1.42-2.03-2.89-3.84-4.29-4.17-3.25-7.98-3.68-10.25-.75-2.29,2.94-.95,6.52,3.28,9.81,4.25,3.3,8.09,3.77,10.39.82Z"/>
      <path d="m431.5,260.8l-7.15-15.64c-.39-.83-.85-1.53-1.52-1.81l4.63-4.76,18.29,7.85c1.57.66,2.99.98,4.21.73l.11.1-7.28,7.49-.11-.1c.46-1.44-.3-2.22-1.85-3.03l-2.2-1.11-5.43,5.59,1.05,2.13c.9,1.82,1.72,2.45,3.02,2.04l.08.08-5.02,5.17-.09-.08c.23-1.21.13-2.71-.75-4.63Zm4.75-11.51l-8.59-4.33,4.32,8.72,4.27-4.39Z"/>
      <path d="m444.72,232.23l6.2,7.51c1.69,2.04,2.95,3.06,4.52,2.98l.09.11-4.99,4.12-.09-.11c.19-1.38-.61-2.77-2.3-4.82l-7.66-9.27c-1.57-1.9-2.67-2.86-3.83-3.02l-.09-.11,5.28-4.37,17.05,5.34-6.15-7.44c-1.69-2.04-2.95-3.06-4.48-3.02l-.09-.11,4.92-4.07.09.11c-.17,1.36.64,2.76,2.32,4.8l10.79,13.06-4.51,3.73-17.08-5.42Z"/>
      <path d="m455.92,213.92l17.25-11.53,2.66,3.98c-3.62.61-5.23.95-6.97,2.11l-.07.05,8.15,12.19c1.35,2.03,2.41,3.09,3.72,3.24l.08.12-7.67,5.13-.08-.12c.38-1.28-.21-2.65-1.57-4.68l-8.15-12.19-.05.03c-1.76,1.18-2.69,2.54-4.64,5.64l-2.66-3.98Z"/>
      <path d="m488.19,208.26l4.64-2.48,2.26,4.22-4.64,2.48-2.26-4.23Z"/>
      <path d="m513.22,206.73c.66-1.16.39-2.63-.47-4.91l-4.4-11.64c-.87-2.31-1.63-3.57-2.89-4l-.05-.14,8.67-3.27.05.14c-.66,1.16-.4,2.6.47,4.91l5.1,13.51,1.6-.6c2.58-.98,3.9-1.82,6.67-4.72l1.76,4.65-16.45,6.21-.05-.14Z"/>
      <path d="m530.95,200.12c.76-1.1.62-2.58-.04-4.93l-3.36-11.97c-.67-2.38-1.31-3.69-2.53-4.24l-.04-.14,16.39-4.6,1.29,4.59c-3.66-.44-5.33-.61-7.37-.04l-1.9.53,1.82,6.51.88-.25c1.67-.47,3.77-1.12,6.23-1.93l.77,2.74c-2.52.59-4.65,1.15-6.32,1.62l-.88.25,2.02,7.19,1.73-.48c2.43-.68,3.99-1.46,7.03-4.11l1.3,4.64-16.98,4.76-.04-.14Z"/>
      <path d="m543.99,173.65l-.03-.14,9.69-1.77.03.15c-.69.66-.3,1.97.47,3.08l4.08,5.62,1.91-6.74c.36-1.29.35-2.66-.61-3.03l-.03-.15,6.33-1.16.03.14c-.67.57-1.42,1.57-1.98,3.41l-3.24,10.22.85,4.66c.44,2.4.96,3.8,2.13,4.45l.03.14-9.23,1.69-.03-.15c.86-1.02.89-2.52.45-4.92l-.83-4.57-7.11-8.5c-1.06-1.36-1.84-2.06-2.89-2.43Z"/>
      <path d="m570.55,191.27c.95-.94,1.08-2.43.87-4.86l-1.1-12.39c-.22-2.46-.61-3.87-1.71-4.63v-.15s16.95-1.5,16.95-1.5l.42,4.75c-3.52-1.11-5.13-1.59-7.24-1.4l-1.96.17.6,6.74.91-.08c1.73-.15,3.92-.4,6.49-.75l.25,2.84c-2.59.11-4.79.28-6.52.43l-.91.08.66,7.44,1.79-.16c2.52-.22,4.19-.69,7.67-2.74l.43,4.8-17.58,1.55v-.15Z"/>
      <path d="m594.92,174.66l-.16,9.73c-.04,2.65.25,4.24,1.5,5.2v.15s-6.47-.11-6.47-.11v-.15c1.05-.92,1.34-2.51,1.38-5.15l.2-12.03c.04-2.47-.17-3.91-.95-4.78v-.15s6.85.11,6.85.11l9.49,15.13.16-9.65c.04-2.65-.25-4.24-1.44-5.2v-.15s6.38.11,6.38.11v.15c-1.02.93-1.31,2.51-1.35,5.16l-.28,16.94-5.85-.1-9.46-15.21Z"/>
      <path d="m613.68,189.83c1.12-.72,1.57-2.15,1.86-4.57l1.5-12.35c.3-2.45.21-3.91-.71-4.89l.02-.15,10.51,1.28c8.29,1.01,12.92,5.6,12.06,12.67-.85,7.01-6.4,10.45-14.75,9.43l-10.51-1.28.02-.15Zm10.37-1.43c4.29.52,7.3-2.01,7.95-7.39.68-5.55-1.59-8.58-5.94-9.11l-2.13-.26-2.01,16.5,2.13.26Z"/>
      <path d="m639.89,189.48l9.7-14.2c.51-.76.87-1.52.76-2.24l6.47,1.51,2.72,19.72c.24,1.69.71,3.06,1.55,3.98l-.03.14-10.17-2.36.03-.14c1.47-.35,1.75-1.4,1.64-3.15l-.18-2.46-7.59-1.76-1.28,2c-1.09,1.71-1.21,2.74-.18,3.64l-.03.11-7.02-1.63.03-.11c1.16-.43,2.38-1.29,3.57-3.03Zm12.3-1.88l-.73-9.59-5.23,8.2,5.96,1.39Z"/>
      <path d="m662.41,191.6l5.46,1.85c-.57,2.76-.05,5.27,2.67,6.22,1.59.54,2.89.17,3.37-1.25.62-1.75-.71-3.22-3.63-6.14-3.15-3.06-5.17-5.82-4.05-9.11,1.35-3.98,5.57-4.88,10.11-3.34,4.65,1.58,7.59,5,7.03,9.65l-5.43-1.84c.57-2.23-.04-4.55-2.34-5.36-1.58-.57-2.71-.05-3.16,1.16-.63,1.84.97,3.53,3.57,6.06,3.1,3.04,5.33,5.72,4.13,9.23-1.33,3.9-5.61,4.99-10.46,3.34-5.32-1.8-8.24-5.56-7.28-10.49Z"/>
      <path d="m686.99,207.77c1.3-.3,2.2-1.49,3.3-3.67l5.61-11.09c1.11-2.2,1.53-3.61.99-4.83l.07-.13,9.44,4.77c7.45,3.76,10.24,9.65,7.03,16-3.18,6.3-9.56,7.65-17.06,3.86l-9.44-4.77.07-.13Zm10.23,2.17c3.85,1.95,7.54.58,9.98-4.24,2.52-4.98,1.42-8.6-2.49-10.58l-1.92-.97-7.49,14.82,1.92.97Z"/>
      <path d="m709.8,219.59c1.33-.16,2.34-1.25,3.66-3.31l6.71-10.47c1.33-2.08,1.89-3.43,1.48-4.71l.08-.12,14.33,9.19-2.57,4.01c-2.11-3.03-3.09-4.39-4.87-5.53l-1.66-1.06-3.65,5.69.77.49c1.46.94,3.35,2.08,5.59,3.38l-1.54,2.4c-2.11-1.5-3.96-2.71-5.42-3.65l-.77-.49-4.03,6.28,1.51.97c2.13,1.37,3.74,2.01,7.74,2.52l-2.6,4.06-14.85-9.53.08-.12Z"/>
      <path d="m726.04,230.12c1.34-.05,2.44-1.05,3.93-2.98l7.59-9.86c1.51-1.95,2.18-3.26,1.88-4.56l.09-.11,7.34,5.65-.09.12c-1.34.05-2.43,1.03-3.93,2.98l-8.81,11.44,1.35,1.04c2.19,1.69,3.6,2.36,7.52,3.2l-3.03,3.94-13.93-10.73.09-.12Z"/>
      <path d="m746.05,246.2c1.33.11,2.55-.76,4.25-2.51l8.69-8.91c1.73-1.77,2.54-2.98,2.4-4.31l.1-.11,6.63,6.47-.1.1c-1.33-.11-2.53.74-4.25,2.51l-10.08,10.34,1.22,1.19c1.98,1.93,3.3,2.77,7.1,4.05l-3.47,3.56-12.59-12.28.1-.1Z"/>
      <path d="m759.58,259.51c1.32.22,2.6-.54,4.45-2.13l9.42-8.12c1.87-1.61,2.79-2.75,2.76-4.09l.11-.1,11.11,12.89-3.61,3.11c-1.16-3.5-1.71-5.09-3.09-6.69l-1.29-1.49-5.12,4.41.59.69c1.13,1.31,2.62,2.94,4.39,4.83l-2.16,1.86c-1.6-2.04-3.02-3.73-4.15-5.04l-.6-.69-5.65,4.87,1.17,1.36c1.65,1.92,3.01,3,6.7,4.62l-3.65,3.15-11.51-13.35.11-.1Z"/>
      <path d="m789.07,260.04l.12-.09,5.79,8.18-.12.09c-1.13-.68-2.14-.07-3.23,1.39l-8.28,11.04,13.24-3.98c1.93-.58,2.69-1.29,2.54-2.41l.12-.08,3.77,5.33-.12.08c-.93-.39-2.23-.26-4.13.26l-17.01,4.51c-.91.25-1.47.47-2.03.75l-3.4-4.8,11.04-16.46c1-1.54,1.69-2.75,1.69-3.82Z"/>
      <path d="m787.46,289.38l16.99-2.6c.9-.15,1.7-.4,2.16-.97l3.32,5.76-12.55,15.44c-1.07,1.33-1.76,2.6-1.85,3.85l-.13.07-5.21-9.04.13-.08c1.26.83,2.22.32,3.42-.95l1.67-1.81-3.89-6.75-2.33.43c-1.99.37-2.83.98-2.79,2.35l-.1.06-3.59-6.24.1-.06c1.1.55,2.57.86,4.65.54Zm9.76,7.71l6.51-7.07-9.56,1.77,3.05,5.3Z"/>
      <path d="m811.31,309.93l-8.92,3.89c-2.43,1.06-3.75,1.99-4.11,3.53l-.13.06-2.59-5.93.13-.06c1.27.57,2.84.17,5.26-.89l11.02-4.82c2.26-.99,3.49-1.78,3.96-2.85l.13-.06,2.74,6.28-9.82,14.91,8.84-3.86c2.43-1.06,3.75-1.99,4.13-3.47l.13-.06,2.55,5.85-.13.06c-1.26-.54-2.83-.15-5.25.91l-15.53,6.78-2.34-5.36,9.92-14.92Z"/>
      <path d="m825.9,325.79l6.31,19.79-4.57,1.46c.41-3.65.53-5.29-.1-7.28l-.03-.08-13.98,4.46c-2.33.74-3.64,1.47-4.15,2.68l-.14.04-2.81-8.8.14-.04c1.13.72,2.61.53,4.93-.21l13.99-4.46-.02-.06c-.64-2.02-1.7-3.29-4.14-6.03l4.57-1.46Z"/>
      <path d="m811.4,353.56c1.05.82,2.55.76,4.93.24l12.15-2.67c2.41-.53,3.76-1.1,4.37-2.29l.14-.03,3.66,16.63-4.65,1.02c.64-3.64.91-5.29.46-7.36l-.42-1.92-6.6,1.45.19.89c.37,1.69.91,3.83,1.57,6.34l-2.79.61c-.44-2.55-.89-4.71-1.26-6.41l-.19-.89-7.29,1.6.38,1.75c.54,2.47,1.23,4.07,3.7,7.25l-4.71,1.04-3.79-17.23.14-.03Z"/>
    </g>
    <g>
      <path d="m385.55,466.9c1.28.86,2.99.67,5.69-.13l13.75-4.09c2.73-.81,4.24-1.58,4.84-3l.16-.05,5.59,18.83-5.27,1.56c.44-4.23.61-6.16-.09-8.5l-.65-2.18-7.48,2.22.3,1.01c.57,1.92,1.36,4.34,2.34,7.16l-3.15.94c-.72-2.9-1.41-5.35-1.98-7.26l-.3-1.01-8.26,2.45.59,1.98c.83,2.8,1.75,4.57,4.87,8.04l-5.33,1.59-5.8-19.51.16-.05Z"/>
      <path d="m392.78,490.29c1.37.71,3.05.33,5.65-.76l13.23-5.59c2.63-1.11,4.04-2.04,4.48-3.52l.15-.07,4.16,9.85-.15.07c-1.37-.71-3.02-.34-5.65.77l-15.35,6.49.77,1.81c1.24,2.94,2.28,4.42,5.75,7.49l-5.28,2.23-7.91-18.7.16-.07Z"/>
      <path d="m402.33,511.91c1.42.59,3.07.06,5.55-1.26l12.67-6.73c2.52-1.34,3.84-2.39,4.15-3.89l.15-.08,5.01,9.44-.15.08c-1.43-.59-3.04-.08-5.55,1.26l-12.67,6.73c-2.49,1.32-3.84,2.39-4.15,3.89l-.15.08-5.01-9.44.15-.08Z"/>
      <path d="m419.81,534.52l2.69-6.07-6.56.24c-1.8.05-3.15.79-3.06,1.95l-.14.09-4.51-6.79.14-.09c1.14.67,3.24.95,5.1.93l10.71-.07,4.5-10.03c.89-1.85,1.22-3.13,1.05-4.49l.14-.09,6.46,9.72-.15.14c-.95-.39-2.02.33-2.8,1.98l-2.41,5.39,5.84-.09c1.55-.05,3.03-.71,3.09-1.73l.14-.09,4.3,6.47-.14.09c-1.16-.7-2.94-.98-4.82-1h-10.01s-4.87,10.9-4.87,10.9c-.85,1.78-1.27,3.24-1.12,4.57l-.14.09-6.55-9.86.14-.09c.9.38,2.28-.62,2.97-2.09Z"/>
      <path d="m425.25,548.3c1.51.3,3.02-.53,5.2-2.31l11.13-9.06c2.21-1.8,3.3-3.09,3.32-4.63l.13-.11,6.75,8.28-.13.11c-1.51-.3-3,.51-5.2,2.31l-11.12,9.06c-2.18,1.78-3.3,3.09-3.32,4.63l-.13.11-6.75-8.28.13-.11Z"/>
      <path d="m449.96,559.38l-.69-.7-4.11,4.1c-1.99,1.99-2.96,3.43-2.79,4.99l-.12.12-7.55-7.57.12-.12c1.54.15,2.95-.83,4.94-2.82l10.16-10.13c2.02-2.01,2.98-3.4,2.84-4.94l.12-.12,8.79,8.82c4.96,4.97,6.42,9.17,2.96,12.62-2.79,2.78-6.05,2.48-9.4.08l-1.94,14.87-.19.19-6.3-6.32,3.16-13.07Zm2.38-1.6c2.32,2.33,4.53,2.81,6.79.56,1.97-1.96,1.57-4.1-.66-6.33l-1.24-1.25-5.96,5.94,1.08,1.08Z"/>
      <path d="m463.13,586.87c1.54-.14,2.75-1.36,4.35-3.68l8.15-11.82c1.62-2.35,2.31-3.89,1.89-5.38l.1-.14,10.06,6.93c7.94,5.47,10.21,12.64,5.55,19.41-4.62,6.71-12.14,7.26-20.13,1.76l-10.06-6.93.09-.14Zm11.37,4.08c4.11,2.83,8.54,1.84,12.08-3.3,3.66-5.31,2.96-9.63-1.2-12.5l-2.04-1.41-10.88,15.8,2.04,1.41Z"/>
      <path d="m489.88,604.63c1.51-.33,2.55-1.7,3.84-4.21l6.56-12.77c1.3-2.54,1.79-4.16,1.18-5.58l.08-.15,17.48,8.97-2.51,4.89c-2.76-3.25-4.03-4.7-6.21-5.82l-2.02-1.04-3.56,6.94.94.48c1.78.91,4.08,2.02,6.8,3.26l-1.5,2.93c-2.6-1.48-4.84-2.67-6.63-3.59l-.93-.48-3.94,7.67,1.84.95c2.6,1.33,4.52,1.9,9.18,2.04l-2.54,4.95-18.12-9.3.08-.15Z"/>
      <path d="m525.57,594.16l.05-.16,11,3.58-.05.16c-1.51.15-2.03,1.41-2.03,3.51l-.04,15.93,9.52-12.82c1.39-1.87,1.6-3.05.69-3.98l.05-.16,7.16,2.33-.05.16c-1.13.28-2.24,1.3-3.65,3.1l-12.63,15.91c-.67.85-1.04,1.44-1.36,2.09l-6.45-2.1-1.14-22.85c-.13-2.11-.33-3.71-1.08-4.7Z"/>
      <path d="m546.67,627.08c1.37-.71,2.03-2.3,2.63-5.06l3.05-14.03c.61-2.79.66-4.48-.29-5.69l.04-.17,10.45,2.27-.04.17c-1.37.71-2.02,2.27-2.63,5.06l-3.05,14.03c-.6,2.75-.66,4.48.29,5.69l-.04.17-10.45-2.27.04-.17Z"/>
      <path d="m562.48,605l.02-.17,11.5,1.32-.02.17c-1.45.45-1.71,1.78-1.3,3.85l3.13,15.63,6.78-14.46c.99-2.11.96-3.31-.12-4.04l.02-.17,7.49.86-.02.17c-1.05.49-1.94,1.72-2.96,3.76l-9.22,18.11c-.49.97-.73,1.62-.92,2.32l-6.74-.77-5.66-22.17c-.55-2.04-1.06-3.57-1.99-4.4Z"/>
      <path d="m588.01,629.09l6.89-18.61c.36-.99.55-1.94.23-2.72l7.67-.12,8.56,21.31c.74,1.82,1.65,3.23,2.85,4.03v.17s-12.04.19-12.04.19v-.17c1.55-.81,1.56-2.06.95-3.99l-.89-2.7-8.99.15-.87,2.59c-.74,2.22-.59,3.4.81,4.13v.14s-8.31.13-8.31.13v-.13c1.17-.8,2.3-2.11,3.15-4.4Zm13.25-5.54l-3.5-10.53-3.56,10.64,7.06-.11Z"/>
      <path d="m625.71,620.18l-.98.14.8,5.75c.39,2.79.96,4.42,2.31,5.23l.02.17-10.59,1.48-.02-.17c1.04-1.14,1.11-2.86.72-5.65l-1.99-14.22c-.39-2.83-.93-4.43-2.24-5.24l-.02-.17,12.34-1.72c6.96-.97,11.19.39,11.87,5.23.55,3.9-1.65,6.33-5.59,7.57l10.72,10.5.04.27-8.84,1.23-8.54-10.39Zm.15-2.86c3.26-.46,4.97-1.93,4.53-5.09-.38-2.75-2.33-3.72-5.46-3.28l-1.75.24,1.16,8.34,1.51-.21Z"/>
      <path d="m643.2,617.28l5.91-1.38,1.25,5.38-5.91,1.38-1.25-5.39Z"/>
      <path d="m655.57,606.42l4.46,12.64c.94,2.65,1.85,4.13,3.49,4.6l.06.16-7.13,2.52-.06-.16c.89-1.36.64-3.07-.29-5.73l-4.77-13.53c-.95-2.69-1.79-4.15-3.2-4.7l-.06-.16,9.53-3.36,10.93,12.73.49-16.76,9.31-3.28.06.16c-.73,1.3-.46,2.97.49,5.66l4.77,13.53c.94,2.65,1.79,4.15,3.24,4.69l.06.16-10.01,3.53-.06-.16c.89-1.36.68-3.08-.26-5.74l-4.53-12.83-.9,21.11-1.7.6-13.91-15.67Z"/>
      <path d="m685.13,602.25c-3.93-7.17-1.29-14.54,6.51-18.82,7.74-4.25,15.38-2.52,19.35,4.71,3.93,7.17,1.29,14.54-6.45,18.79-7.79,4.28-15.45,2.52-19.41-4.68Zm17.72,1.62c3.75-2.06,3.96-6.47.99-11.88-2.94-5.36-6.77-7.55-10.52-5.49-3.78,2.07-3.99,6.49-1.02,11.9,2.94,5.35,6.77,7.55,10.55,5.47Z"/>
      <path d="m714.87,579.46l6.76,8.97c1.84,2.44,3.24,3.68,5.06,3.66l.1.14-5.96,4.49-.1-.14c.3-1.58-.56-3.23-2.4-5.67l-8.36-11.08c-1.72-2.28-2.93-3.44-4.26-3.67l-.1-.14,6.31-4.76,19.37,7.03-6.7-8.89c-1.84-2.44-3.24-3.68-5.01-3.7l-.1-.14,5.88-4.43.1.14c-.27,1.56.59,3.21,2.43,5.65l11.77,15.61-5.39,4.07-19.4-7.13Z"/>
      <path d="m736.56,554.68l-1.14,1.11,5.26,5.43.61-.59c1.44-1.39,3.44-3.43,5.63-5.74l2.41,2.48c-2.39,2.12-4.46,4.08-5.89,5.47l-.61.59,4.27,4.41c1.96,2.02,3.36,3.03,4.95,2.86l.12.12-7.72,7.48-.12-.12c.17-1.53-.79-2.96-2.75-4.99l-9.99-10.31c-1.98-2.05-3.36-3.03-4.9-2.91l-.12-.12,14.57-14.12,3.9,4.02c-3.91,1.23-5.87,2.38-8.48,4.91Z"/>
      <path d="m751.32,554.02c-6.39-5.09-6.8-12.91-1.27-19.87,5.49-6.9,13.21-8.26,19.66-3.13,6.39,5.09,6.8,12.91,1.31,19.82-5.53,6.95-13.27,8.29-19.7,3.18Zm16.97-5.36c2.66-3.34,1.15-7.49-3.68-11.34-4.78-3.8-9.16-4.34-11.82-1-2.68,3.37-1.17,7.52,3.66,11.36,4.78,3.8,9.16,4.34,11.84.97Z"/>
      <path d="m777.34,520.59l-.5.85,5.01,2.93c2.43,1.42,4.06,1.99,5.53,1.43l.15.09-5.4,9.22-.15-.09c-.25-1.52-1.56-2.64-3.98-4.07l-12.38-7.26c-2.46-1.44-4.05-2.02-5.5-1.49l-.15-.09,6.3-10.74c3.55-6.06,7.24-8.53,11.46-6.06,3.39,1.99,3.94,5.22,2.47,9.07l14.88-1.9.23.14-4.51,7.7-13.44.26Zm-2.15-1.89c1.66-2.84,1.57-5.1-1.18-6.71-2.4-1.41-4.36-.47-5.96,2.25l-.89,1.52,7.26,4.25.77-1.32Z"/>
      <path d="m772.15,501.32l9.45-22,5.08,2.18c-3.11,2.87-4.47,4.21-5.42,6.42l-.04.09,15.55,6.68c2.59,1.11,4.28,1.47,5.64.8l.16.07-4.21,9.78-.15-.07c-.44-1.48-1.87-2.43-4.46-3.54l-15.55-6.68-.03.06c-.96,2.24-1.01,4.15-.94,8.38l-5.08-2.18Z"/>
      <path d="m806.21,485.82c-.61-1.42-2.14-2.19-4.84-3l-13.75-4.09c-2.73-.81-4.41-.99-5.69-.13l-.16-.05,5.59-18.82,5.27,1.56c-2.68,3.31-3.88,4.83-4.57,7.17l-.65,2.18,7.48,2.22.3-1.01c.57-1.92,1.23-4.38,1.95-7.28l3.15.94c-.98,2.82-1.74,5.25-2.31,7.17l-.3,1.01,8.26,2.46.59-1.98c.83-2.8,1.03-4.79.31-9.39l5.33,1.58-5.8,19.51-.16-.05Z"/>
    </g>
    <g>
      <path d="m553.58,255.66c-.87-.5-1.71-1.05-2.53-1.62-1.83-1.27-3.63-2.58-5.46-3.84-1.13-.78-2.39-1.41-3.44-2.28-1.66-1.37-3.61-1.85-5.63-2.2-.25-.04-.64.13-.78.33-.11.14.03.53.15.76.91,1.69,1.89,3.34,2.75,5.05.49.98.72,2.1,1.2,3.09,1.22,2.48,2.58,4.89,3.77,7.38.7,1.47,1.1,3.08,1.81,4.54.78,1.62,1.84,3.11,2.63,4.73,1.02,2.09,1.86,4.25,3.63,5.9,1.21,1.14,3.99,1.67,5.31.71,2.83-2.04,5.5-4.22,5.5-8.21.01-.57.1-1.15.03-1.71-.26-2.02-1.53-3.51-3.14-4.44-1.31-.75-2.99-.85-4.47-1.33-.32-.1-.74-.66-.7-.94.11-.72.72-1.44.65-2.1-.16-1.33.29-2.93-1.29-3.83Z"/>
      <path d="m541.99,281.38c.59.51,1.41,1.04,1.58,1.7.35,1.37.34,2.84.46,4.27.18,2.22,1.03,3.97,3.25,4.81.38.15.72.43,1.11.54,1.16.34,2.33.63,3.87,1.04-1.24-3-2.2-5.52-3.31-7.98-1.1-2.43-2.41-4.76-3.52-7.19-1.3-2.84-2.45-5.75-3.73-8.6-.83-1.86-1.82-3.65-2.67-5.49-.55-1.19-.95-2.46-1.51-3.66-1.3-2.79-2.67-5.55-3.96-8.34-.65-1.4-1.16-2.86-1.81-4.25-.94-2.03-1.95-4.02-2.91-6.04-.8-1.68-1.65-3.33-2.31-5.06-.37-.98-.9-1.82-1.53-2.59-1.18.54-2.35,1.08-3.51,1.64.18,2.52.39,5.04.83,7.52.66,3.72,1.62,7.4,2.64,11.04.59,2.1,1.48,4.14,2.4,6.13.73,1.59,1.97,2.99,2.5,4.63,1.34,4.14,4.53,7.14,6.52,10.89,1.1,2.07,3.71,3.33,5.62,4.99Z"/>
      <path d="m515.81,279.91c-2.51,3.47-.45,8.9,3.75,9.82,1.4.31,2.81.56,4.23.76,1.55.21,3.55-.25,4.44-1.22.68-.74,1.28-1.53,1.58-2.64.61-2.2-.44-4.03-.9-5.97-.49-2.08-1.37-4.07-1.99-6.13-1.26-4.18-2.41-8.4-3.69-12.57-1.02-3.33-2.16-6.62-3.35-10.27-.86,1.17-1.9,2.18-2.44,3.41-.81,1.83-1.33,3.79-1.85,5.73-.67,2.5-1.12,5.06-1.84,7.54-.87,3.01-.38,4.91,2.15,6.99.55.46,1.18.82,1.78,1.23-.53,1.12-1,2.13-1.49,3.12-.05.1-.3.08-.37.18Z"/>
      <path d="m534.24,231.8c2.39,1.1,5.03,1.71,7.6,2.38,1.63.42,3.49.24,4.97.92,1.07.49,2.31.82,3.29,1.76.78.74,2.25.7,3.26,1.27,2.49,1.4,4.51,3.39,5.78,5.94.56,1.12.66,2.58.59,3.86-.09,1.63-.6,3.23-.85,4.85-.04.25.23.68.48.82,1.59.93,3.37,1.63,4.79,2.76,1.37,1.09,2.88,2.12,3.64,3.93.68,1.64,1.82,3.08,2.68,4.65.31.56.43,1.23.57,1.86.65,3,.14,5.96-.52,8.86-.24,1.07-1.01,2.09-1.75,2.96-1.2,1.42-2.35,3.13-3.92,3.9-1.37.68-2.28,1.79-3.55,2.5-1.35.76-2.59,1.72-3.84,2.65-1.02.77-1.19,4.27-.1,5.12,2.2,1.72,2.91,4.34,4.36,6.51.54.8,1.33,1.46,1.77,2.3,1.17,2.22,2.15,4.55,3.33,6.76.83,1.56,1.9,2.99,2.83,4.49,1.57,2.52,3.19,5.02,4.67,7.6,2.38,4.15,4.73,8.31,6.94,12.55,1.51,2.89,2.83,5.88,4.12,8.88,1.3,3.04,2.1,6.35,3.76,9.18,1.79,3.05,2.49,6.42,3.75,9.61.63,1.6.74,3.5,1.67,4.86.46.66.6,1.3.85,1.95,1.22,3.13,2.43,6.27,3.57,9.43.67,1.84,1.17,3.75,1.81,5.6.86,2.47,1.6,5,2.76,7.33.5,1.01,1.8,1.63,2.15,2.93.31,1.17.78,2.31,1.22,3.45.57,1.45,1.12,2.9,1.81,4.29.15.3.91.51,1.3.41,1.41-.36,2.76-1.01,4.18-1.28,2.41-.46,4.86-.72,7.3-1.03,1.66-.22,3.33-.49,5-.55,2.46-.09,4.93-.02,7.4-.02,1.72,0,3.43-.06,5.15,0,1.48.06,2.95.3,4.43.41.43.03.88-.1,1.33-.16,0,.08.02.33.03.52,1.26-.04,2.44-.64,3.75.26.7.49,1.95.1,2.87.37,2.42.68,4.85,1.35,7.17,2.29,2.78,1.13,5.43,2.57,8.16,3.83,1.52.7,3.15,1.2,4.61,2,1.88,1.03,3.67,2.22,5.46,3.41,2.16,1.43,4.3,2.88,6.38,4.43.9.67,1.53,1.7,2.43,2.37,1.13.85,2.48,1.41,3.62,2.26,1.14.85,2.12,1.9,3.19,2.84.27.23.71.28.98.51,2.13,1.81,4.21,3.67,6.36,5.46.39.32,1.01.34,1.47.59.66.35,1.14.78-.03,1.12-.11.03-.24.17-.26.28-.29,1.77-2.14,3.25-1.14,5.23.98,1.93,2.22,3.74,3.17,5.68.51,1.05,1.59,1.33,2.26,2.14.33.4,1.23.35,1.87.48.56.12,1.31.04,1.63.38.23.25.1,1.21-.21,1.54-1.15,1.23-1.09,2.73-1.12,4.2-.03,1.61,1.87,3.12,3.67,2.99.77-.06,1.53-.13,2.48-.21.05.65.31,1.32.11,1.79-.66,1.51-1.16,3.29-2.3,4.34-3.62,3.34-6.64,3.28-8.98,2.5-1.64,2.47-3.16,5.01-4.95,7.35-.83,1.08-2.17,1.8-3.35,2.58-.57.38-1.66.19-1.05,1.48.11.24-.54.97-.96,1.32-2.16,1.77-4.24,3.89-7.33,3.55-1.2-.13-2.33-.91-3.48-1.42-.82-.36-1.6-.82-2.43-1.16-1.1-.44-2.17-.78-3.18-1.58-1.14-.91-2.74-1.38-4.22-1.7-1.76-.38-3.58-.83-4.43-2.35-.64-1.15-1.4-.8-2.18-.98-1.93-.44-4-.56-5.75-1.38-2.16-1.01-3.41-2.98-3.44-5.52,0-.27-.03-.55-.1-.81-.3-1.12.47-1.39,1.22-1.24,3.46.67,6.07-1.01,6.8-4.54.29-1.4.44-2.82.65-4.23,2.51.14,3.1-1.48,3.43-3.94.44-3.36.83-6.72,1.15-10.1.08-.9-.05-1.87-.31-2.74-.79-2.62-1.42-5.35-2.64-7.77-.9-1.78-1.92-3.7-3.74-4.88-.25-.16-.57-.2-.65-.22.21,1.53.38,2.95.59,4.37.09.61,1.1,1.05.29,1.84-.65.63.17,1.27.11,1.98-.3,3.51-1.14,6.9-2.33,10.18-.98,2.72-2.27,5.33-3.55,7.93-.52,1.06-1.38,1.95-2.06,2.93-.22.32-.31.71-.49,1.06-.41.78-.83,1.56-1.28,2.32-.94,1.58-2.6,2.38-4.1,3.15-1.69.88-3.61.44-5.35-.35-1.15-.53-1.27-1.64-1.19-2.66.06-.69.5-1.36.83-2.02,1.29-2.53,2.84-4.7,5.71-5.82,1.01-.39,2.18-1.28,2.29-3.02.13-2.04,1.19-4.02,1.39-6.06.25-2.54.81-5.17-.58-7.67-.39-.71-.18-1.75-.28-2.63-.3-2.63-1.75-4.67-3.21-6.8-1.52-2.21-3.38-3.77-5.76-4.86-.67-.31-1.21-.92-1.78-1.44-1.42-1.3-3.16-1.07-4.89-1.27-2.66-.31-5.28-.48-7.93-.09-.63.09-1.25.31-1.85.52-2.49.86-4.93,1.86-7.46,2.57-1.8.51-3.3,1.47-4.87,2.38-1.2.7-1.25,1.37-.73,2.54.95,2.18,1.63,4.48,2.59,6.65.43.96.77,1.96,1.4,2.89.85,1.25,1.22,2.83,1.72,4.29.6,1.78,1.13,3.58,1.66,5.38.14.49.17,1.01.45,1.4.16.45.33.89.48,1.34.07.23.05.51.14.73.61,1.39,1.29,2.75,1.86,4.15.4.98.62,2.03,1,3.02.79,2.1,1.63,4.19,2.46,6.27.63,1.56,1.31,3.11,1.92,4.68.21.56.21,1.2.42,1.76.4,1.06.84,2.11,1.34,3.12.45.89,1.14,1.69,1.46,2.62.19.56-.14,1.3.17,1.78.28.53.59,1.04.85,1.58.22.46.36.96.67,1.78-.57.8-.2,1.61,1.01,2.4.51.33.59,1.32,1.02,2.37,1.13.35.62,1.89,1.02,3.01.78,2.15,1.64,4.27,2.43,6.42.49,1.34.91,2.7,1.36,4.07.43,1.02.87,2.08,1.31,3.14.54,1.29,1.05,2.59,1.62,3.87.57,1.29,1.25,2.52,1.73,3.84.13.37-.28.93-.46,1.45.45.03.82.05,1.2.07-.13.09-.26.19-.38.28.64,1.4,1.29,2.8,1.94,4.23-.04.03-.24.19-.08.06.52,1.24,1.01,2.25,1.35,3.3.43,1.3.7,2.65,1.12,3.95.12.38.66.62.8.99.41,1.06.7,2.17,1.09,3.24.1.28.57.46.6.72.09.73.03,1.47.03,1.99.59,1.14,1.23,2.18,1.69,3.3.36.89.42,1.77,1.28,2.56.76.71,1.19,2.14,1.17,3.24-.02,1.1.35,1.79.9,2.6.38.56.46,1.31.73,1.95.56,1.33,1.2,2.63,1.74,3.97.59,1.47,1.1,2.98,1.66,4.47.61,1.63,1.27,3.24,1.86,4.87.26.72.31,1.51.61,2.21.71,1.64,1.85,3.17,2.18,4.86.23,1.21.63,2.24,1.23,3.19,64.18-26.88,109.27-90.28,109.27-164.21,0-98.29-79.68-177.96-177.96-177.96-23.23,0-45.42,4.46-65.76,12.55.44.22.88.44,1.32.64Z"/>
      <path d="m657.77,557.02c-1.99-5.12-4.11-10.19-6.14-15.3-.67-1.68-1.19-3.42-1.85-5.1-.79-2.01-1.7-3.97-2.47-5.98-.8-2.09-1.42-4.25-2.25-6.32-1.14-2.85-2.47-5.64-3.61-8.49-1.37-3.4-2.58-6.87-3.96-10.27-1.33-3.29-2.82-6.52-4.17-9.8-.42-1.02-.55-2.16-.95-3.19-1.15-2.9-2.42-5.75-3.56-8.66-1.83-4.67-3.59-9.37-5.4-14.05-1.59-4.1-3.22-8.17-4.81-12.27-1-2.59-1.92-5.22-2.93-7.81-.99-2.51-2.06-4.99-3.09-7.48-.79-1.92-1.57-3.84-2.34-5.73-.6.79-1.01,1.78-1.74,2.18-2.18,1.2-4.43,2.34-6.76,3.18-1.15.41-.98.78-.65,1.57,1.11,2.68,2.22,5.36,3.28,8.06,1.19,3.04,2.3,6.12,3.47,9.16.67,1.74,1.41,3.44,2.12,5.17,1.24,3.02,2.51,6.03,3.71,9.07.92,2.34,1.68,4.73,2.6,7.07,1.3,3.31,2.71,6.58,4.02,9.89,1.07,2.68,2.09,5.37,3.09,8.08.67,1.81,1.16,3.7,1.89,5.48,1.1,2.68,2.49,5.24,3.48,7.95,1.5,4.13,2.83,8.31,4.79,12.27,1.02,2.05,1.64,4.3,2.44,6.45,1.46,3.93,2.85,7.89,4.39,11.8,1.23,3.13,2.64,6.2,3.94,9.31.76,1.81,1.04,3.74,2.07,5.53,1.35,2.35,2.05,5.08,3.06,7.64.09.22.18.45.27.67,3.56-1.06,7.08-2.23,10.54-3.5-.8-2.2-1.6-4.4-2.45-6.58Z"/>
      <path d="m549.02,302.94c2.45-.99,5.03-1.66,7.52-2.57.45-.16.81-.72,1.08-1.18.65-1.11-.28-1.68-.94-2.21-.94-.75-1.98-1.13-3.24-.5-2.01,1.01-4.12,1.83-6.13,2.86-1.48.76-2.85,1.73-4.27,2.6.08.22.16.43.24.65,1.88.4,3.65,1.18,5.73.34Z"/>
      <path d="m551.09,336.91c.82,2.3,1.91,4.5,2.81,6.77.46,1.16.62,2.45,1.18,3.55,1.91,3.71,3.86,7.41,5.95,11.03,1.47,2.54,3.15,4.96,4.81,7.39,1.06,1.55,2.15,3.1,3.4,4.49,1.14,1.27,2.54,2.3,3.78,3.48,2.22,2.1,4.28,4.39,6.64,6.32,1.98,1.61,4.16,3.08,6.47,4.14,2.09.96,4.04,2.45,6.61,2.32,1.7-.09,2.81-1.03,2.37-2.7-1.46-5.51-2.93-11.03-4.51-16.51-.65-2.26-1.59-4.43-2.43-6.63-.67-1.76-1.34-3.52-2.08-5.25-1.22-2.84-2.48-5.65-3.74-8.47-1.23-2.75-2.45-5.51-3.73-8.24-.51-1.1-1.2-2.12-1.71-3.22-.75-1.63-1.3-3.37-2.15-4.94-1.81-3.34-3.67-6.65-5.68-9.87-1.58-2.53-3.38-4.92-5.16-7.32-2.06-2.76-4.46-3.24-7.57-1.73-1.57.76-3.2,1.43-4.82,2.08-3.06,1.23-4.59,3.56-5.14,6.66.42,2.1.67,4.15,1.25,6.1,1.04,3.55,2.2,7.07,3.45,10.56Z"/>
      <path d="m548.42,311.39c2.31-.53,4.62-1.14,6.81-2.02,1.9-.77,3.73-1.84,5.4-3.03,1.28-.91,1.1-2.21-.18-3-1.65-1.03-3.09-1.03-5.05-.13-3.75,1.71-7.53,3.22-10.68,6.07.68,1.92,1.68,2.58,3.7,2.12Z"/>
      <path d="m553.74,500.6c-.33-1.14-.91-2.22-1.48-3.28-1.86-3.48-5.14-5.6-8.01-8.05-2.29-1.95-4.96-3.45-7.82-5.38-.01,1.4-.23,2.48.02,3.45.6,2.35,1.4,4.64,2.17,6.95.67,2.03,1.39,4.03,2.11,6.05.26.72.47,1.47.86,2.12.93,1.56,1.96,3.06,3.04,4.74.79,0,1.85.02,2.91-.04,1.21-.08,1.55.71,1.58,1.64.02.57-.26,1.17-.44,1.74-.54,1.67-.74,3.24.85,4.53.51.41.88.99,1.32,1.49.09.1.25.2.38.21.8.07,1.66-.04,2.41.2,1.05.35,2.06.55,3.09.17.59-.22,1.32-.54,1.61-1.03.73-1.27,1.28-2.66,1.86-4.02.62-1.46.28-3.18-.65-3.98-1.31-1.11-3.23-1.47-4.85-2.24-.77-.37-1.61-.82-2.07-1.47-.2-.28.56-1.16.77-1.8.21-.64.51-1.39.35-1.97Z"/>
      <path d="m691.41,448.88c-.85-3.59-1.81-7.16-3.04-10.63-.81-2.26-2.1-4.36-3.27-6.48-.93-1.68-1.99-3.29-3.18-5.22-.49,1.44-.74,2.27-1.04,3.08-.38,1.02-.97,2-1.14,3.06-.28,1.73-.27,3.5-.44,5.25-.35,3.47-.78,6.95.1,10.41.45,1.76.97,3.78,3.11,3.95,1.96.15,1.47,1.01,1.04,2.05-.74,1.8-1.55,3.58-2.26,5.39-.52,1.33.38,2.37,1.2,3.07,1.04.89,2.35,1.59,3.65,2,1.02.31,2.07.97,3.37.08,1.67-1.13,2.65-2.74,3.31-4.41.96-2.43.59-5.12-2.6-6.18-.62-.21-1.48-.92-1.49-1.41,0-.63.73-1.27,1.17-1.89.52-.72,1.63-1.56,1.5-2.11Z"/>
      <path d="m637.09,569.62c.39-1.49-1.48-2.09-1.11-3.59.08-.35-.45-1.65-1.24-2.36-.64-.57-.76-1.73-1.12-2.62-1.17-2.91-2.75-5.73-3.36-8.75-.44-2.15-2.6-3.58-2.1-5.98.07-.36-.29-.82-.5-1.22-.64-1.22-1.36-2.41-1.94-3.66-.24-.52-.15-1.17-.32-1.73-.45-1.44-.98-2.87-1.44-4.31-.05-.17.12-.42.21-.67-1.08-.2-1.87-.61-1.58-2.03.08-.39-.57-.91-.81-1.4-.38-.78-1.16-1.76-.94-2.35.5-1.32-.71-1.8-.92-2.73-.39-1.66-1.85-2.88-1.87-4.84,0-.59-.6-1.74-1.06-2.57-.39-.71-.6-1.52-.95-2.44.03-.01.34-.13.96-.36-.66-.36-1.12-.61-1.6-.87-.95-2.42-1.94-4.92-2.92-7.41.14-.05.28-.09.42-.14-.74-1.01-2.06-1.79-1.3-3.39.06-.13.03-.45,0-.46-1.62-.31-1.26-1.92-1.87-2.88-.55-.88-1.17-1.95-1.14-2.91.07-2.17-1.38-3.55-2.22-5.24-.25-.51-.24-1.15-.45-1.68-.25-.62-.71-1.15-.9-1.78-.17-.54.04-1.22-.17-1.74-.27-.67-.79-1.25-1.41-2.19-.02.03.19-.36.42-.81.01.02-.01-.08-.08-.12q-1.02-.63-.92-1.9c.01-.13,0-.35-.08-.4-1.75-1.08-1.32-3.11-2.03-4.63-.86-1.82-1.92-3.55-2.71-5.4-.53-1.23-.72-2.61-1.15-3.89-.25-.73-.71-1.38-1.03-2.09-.76-1.66-2.09-3.34-2.08-5.01,0-2.32-2.12-3.59-2.08-5.74,0-.25-.4-.48-.49-.76-.15-.5-.2-1.04-.05-1.52-.34-.48-.75-.93-1-1.45-1-2.13-2.01-4.26-2.91-6.44-.42-1.02-.54-2.16-.89-3.21-.21-.64-.59-1.22-.93-1.81-.86-1.51-1.21-3.19-1.78-4.77-.36-1-.75-2.17-1.33-3.13-.29-.48-1.19-.96-1.7-.86-1.6.33-3.16.9-4.71,1.46-2.56.94-5.11,1.93-7.65,2.93-.7.28-1.48.53-2.01,1.02-1.95,1.8-3.65,3.91-5.77,5.47-1.78,1.32-2.26,3.27-3.22,4.96-.6,1.06-.53,2.52-.68,3.8-.13,1.09-.09,2.2-.21,3.29-.34,3.19.43,6.15,1.95,8.91,1.07,1.95,2.1,3.99,3.53,5.67,2.43,2.86,5.5,5.03,8.84,6.77,1.17.61,2.33.61,3.7.15,1.7-.58,3.55-.95,5.41-.03.87.43,2.07.23,2.9.7.72.4,1.58.64,2.09,1.68.77,1.59-.1,2.72-.77,3.61-.84,1.12-1.96,2.11-3.72,2.32-1.29.15-2.53.51-3.84.22-.7-.15-1.43-.2-2.1-.43-1.39-.48-2.7-1.23-4.12-1.53-1.91-.4-3.87-.55-5.36-2.02-.05-.05-.19.02-.29.01-2.65-.12-4.39-2.08-6.55-3.19-2.56-1.32-4.62-3.16-6.58-5.22-1.63-1.71-2.86-3.63-4.15-5.77-.06,1.17-.28,2.36-.15,3.51.51,4.61,2.81,8.55,4.98,12.5.46.84,1.49,1.38,2.28,2.04,2.51,2.1,4.96,4.28,7.59,6.22.71.52,1.99.38,3.01.34.38-.01.93-.92,1.07-.84.57.32,1.17.79,1.48,1.35,1.16,2.13,4.03,3.25,6.29,2.35,1.99-.79,2.02-.87,3.52-2.37.23-.23,1.13-.08,1.48.19.68.52,1.33,1.19,1.73,1.94.29.55.09,1.34.23,2.01.64,3.08-.79,5.35-2.81,7.4-.57.58-1.15,1.14-1.77,1.75.41,1.32.39,2.39-.57,3.97-1.32,2.18-2.99,4.52-2.89,7.39.01.39-.43.78-.6,1.19-.75,1.79-1.54,3.57-2.19,5.39-.63,1.77-2.04,2.44-3.66,2.81-1.49.34-3,.67-4.51.78-.74.06-1.52-.37-2.28-.58-.38-.1-.79-.35-1.14-.28-1.37.27-2.72.72-4.1.92-.53.08-1.13-.41-1.71-.55-2.44-.61-4.88-1.18-7.46-1.8-1.1,2.03-3.01,3.22-5.48,4.04-2.59.86-4.71-.39-7-.77-1.4-.23-1.66-2.23-.39-2.96,1.98-1.14,2.32-2.99,1.77-4.7-.34-1.05-1.86-1.75-2.91-2.54-.29-.22-.78-.17-1.17-.28-1.53-.41-1.83-1.25-.53-2.18,1.89-1.36,1.49-3.26,1.41-4.98-.07-1.57-.83-3.1-1.04-4.68-.41-3.14-2.55-4.16-5.24-4.43-1.02-.1-.94-.53-.79-1.19.67-3.07,1.76-6.13,1.88-9.22.09-2.26.52-4.43.74-6.65.14-1.37.58-2.71.84-4.07.38-1.98.68-3.97,1.11-5.94.58-2.68,1.12-5.38,1.92-7.99.95-3.1,2.11-6.14,3.3-9.16.88-2.23,1.87-4.43,2.97-6.57,1.01-1.97,2.13-3.9,3.39-5.72,1.12-1.62,2.52-3.04,3.75-4.58.98-1.24,1.78-2.65,2.86-3.78,1.5-1.57,3.21-2.94,4.8-4.43.76-.72,1.38-1.58,2.16-2.28,2.1-1.88,4.11-3.93,6.46-5.43.98-.63,1.82-1.43,2.73-2.09,2.14-1.57,4.36-2.9,6.81-3.91.93-.38,1.73-1.06,2.63-1.63-.79-2.15-1.59-4.39-2.45-6.6-.31-.8-.77-1.54-1.1-2.34-.21-.53-.58-1.22-.4-1.63.92-2.07-.59-3.28-1.41-4.81-.67-1.26-.85-2.77-1.43-4.09-.89-2-1.99-3.91-2.91-5.9-.58-1.26-.97-2.6-1.49-3.89-.61-1.51-1.29-2.98-1.89-4.49-.28-.71-.39-1.48-.68-2.18-1.33-3.13-2.76-6.22-4.04-9.37-1.18-2.9-2.17-5.87-3.32-8.77-1.04-2.64-2.39-5.17-3.25-7.86-.98-3.05-1.56-6.22-2.36-9.33-.72-2.78-1.53-5.54-2.22-8.32-.33-1.33-.42-2.72-.73-4.06-.55-2.4-1.26-4.76-1.76-7.16-.37-1.78-.46-3.62-.76-5.43-.19-1.16-.5-2.31-.83-3.44-.48-1.64-1.49-3.28-1.44-4.89.09-2.78-1.59-5.08-1.58-7.75,0-1.12.55-2.27-.38-3.33-.53-.6-.79-1.46-1.36-2-.35-.33-1.08-.42-1.62-.38-2.52.17-5.04.39-7.56.67-.69.08-1.35.57-2.03.6-1.09.05-2.21.31-3.27-.44-.36-.26-1.18.24-1.71.1-2.03-.57-3.86-1.37-5.61-2.74-1.43-1.12-2.27-2.49-3.39-3.73-2.25-2.47-2.07-5.6-3.08-8.37-.45-1.23-.09-2.85.2-4.23.4-1.93,1.07-3.79,1.65-5.68.03-.11.26-.17.44-.28-2.01-1.62-4.28-2.73-5.6-4.88-.54-.89-.99-1.9-1.19-2.92-.29-1.47-.63-3.04-.38-4.47.33-1.98,1.16-3.88,1.82-5.81.35-1.03.79-2.03,1.18-3.05.11-.29.15-.72.35-.83,1.56-.86,1.9-2.6,2.81-3.91,1.04-1.49,1.99-3.04,2.95-4.58.3-.49.57-.98.82-1.48-53.95,30.57-90.36,88.5-90.36,154.93,0,98.29,79.68,177.96,177.96,177.96,13.22,0,26.09-1.45,38.49-4.19-.09-.26-.14-.5-.08-.73Z"/>
      <path d="m599.96,398.78c1.15-.59,2.15-1.7,2.85-2.81.39-.61.33-1.94-.1-2.5-.34-.45-1.66-.49-2.37-.24-1.17.42-2.19,1.24-3.29,1.87-1.22.7-2.41,1.44-3.68,2.03-1.66.76-3.37,1.4-5.07,2.08-2.38.96-4.77,1.9-7.48,2.98,1.3.27,2.42.64,3.57.73,5.67.47,10.7-1.64,15.57-4.14Z"/>
      <path d="m596.28,407.76c3.04-1.45,5.41-3.64,7.87-5.79.96-.84,1.09-2.22.4-2.94-3.4,1.79-6.66,3.86-10.18,5.25-3.4,1.34-6.85,2.57-10.59,3.98,4.47,2.28,8.42,1.46,12.51-.5Z"/>
    </g>
  </g>
</svg>