<?xml version="1.0" encoding="UTF-8"?>
<svg id="Capa_1" data-name="Capa 1" xmlns="http://www.w3.org/2000/svg" viewBox="0 0 240.42 158.25">
  <g>
    <path d="M46.15,60.85c-.44,2.21-.53,4.47-1.15,6.65-.3,1.04-.34,2.15-.54,3.21-.38,1.97-.83,3.92-1.18,5.89-.48,2.74-.91,5.49-1.38,8.36-.07,.44,.27,.85,.72,.84,1.23-.03,2.46-.04,3.7-.11,2.44-.13,4.89-.34,7.33-.48,2.62-.15,5.24-.26,7.86-.4,3.46-.18,6.91-.38,10.37-.56,1.55-.08,3.13,.02,4.65-.21,1.74-.26,3.48-.31,5.22-.38,.71-.03,1.22,.02,2.04-.17,.2-.07,.3-.61-.03-.99-.43-.67-.5-1.37-.46-2.13,.1-1.77,.14-3.54,.23-5.3,.06-1.04-.43-1.54-1.45-1.51-1.62,.05-3.25,.07-4.88,.08-1.96,0-3.92-.04-5.88-.04-2,0-4.01,0-6.01,.03-1.97,.03-3.93,.15-5.9,.13-1.05-.01-2.15,.27-3.2-.29,.03-.35-.05-.71,.09-.92,1.01-1.51,1.33-3.22,1.7-4.96,.33-1.57,.88-3.09,1.36-4.62,.08-.26,.3-.45,.56-.49,.84-.14,1.64-.34,2.59-.13,1.38,.3,2.9-.02,4.36-.1,.83-.04,1.66-.21,2.49-.21,1.85,.02,3.69,.14,5.54,.15,.73,0,1.47-.13,2.18-.28,1.03-.21,1.49-.79,1.58-1.88,.06-.78,.13-1.56,.14-2.35,0-1.03,.03-2.07-.08-3.1-.12-1.14-.27-1.21-1.38-1.26-1.78-.06-3.55-.14-5.33-.19-1.81-.05-3.63-.07-5.44-.13-.63-.02-1.26-.14-1.9-.17-.6-.03-1.21-.05-1.8-.07-.46-.01-.78-.45-.67-.89,.27-1.1,.52-2.1,.73-3.12,.48-2.25,.92-4.52,1.37-6.77,.03-.14-.01-.3,.02-.44,.43-1.67,.55-3.4,.99-5.07,.26-.98,.77-.99,1.48-1,2.75-.05,5.51-.08,8.26-.17,2.2-.07,4.4-.22,6.6-.31,1.13-.05,2.26,.04,3.38-.08,1.53-.17,1.83-.51,1.91-2.08,.08-1.65,.08-3.31,.06-4.97,0-.83-.53-1.38-1.34-1.38-2.91,0-5.82,.01-8.73,.07-1.75,.03-3.5,.18-5.26,.23-1.92,.06-3.84,.04-5.75,.1-3.26,.1-6.51,.25-9.77,.34-.68,.02-1.37-.15-2.06-.19-.87-.04-1.46,.27-1.83,1.17-.61,1.48-.7,3.06-1.04,4.58-.17,.75-.25,1.52-.39,2.28-.05,.29-.19,.56-.24,.85-.5,2.98-.99,5.96-1.5,8.94-.18,1.06-.45,2.11-.64,3.17-.32,1.82-.58,3.66-.92,5.48-.45,2.46-.92,4.91-1.41,7.35Z"/>
    <path d="M29.35,140.94c1.65,.3,3.27,.74,4.92,.96,1.3,.17,2.62,.28,3.94,.33,1.44,.05,2.89-.03,4.32-.24,2.15-.31,4.3-.66,6.44-1.04,.77-.14,2.01-.48,2.74-.76,1.58-.62,3.2-1.16,4.75-1.86,.84-.38,1.55-1.06,2.38-1.47,3.63-1.8,6.25-4.7,8.56-7.9,1.64-2.27,2.44-4.92,3.1-7.63,1.03-4.23,.24-8.27-1.34-12.13-1.03-2.52-2.54-4.86-4.48-6.85-.95-.98-1.85-2.05-2.93-2.89-2.19-1.71-4.47-3.31-6.98-4.54-2.53-1.24-5.14-2.25-7.87-2.9-2.66-.64-5.34-1.16-8.11-1.3-2.06-.1-4.09,.06-6.13,.05-.84,0-1.67,.25-2.51,.31-1.48,.11-2.61,1.42-2.53,2.9,.02,.32,.03,.63,.03,.95,0,1.22-.13,2.45-.1,3.67,.04,1.75,.4,3.51,.22,5.23-.16,1.52,.04,2.99,0,4.49-.04,1.96,.05,3.92,.05,5.88,0,2.15-.04,4.31-.03,6.46,0,1.92,.1,3.84,.09,5.76-.01,2.21-.14,4.41-.13,6.62v6.08c0,.91,.67,1.69,1.57,1.83h0Zm27.91-23.42c-.59,2.58-1.66,4.98-3.76,6.94-2.25,2.1-4.76,3.41-7.64,4.26-2.38,.7-4.75,.78-7.16,.35-.42-.07-.86-.01-1.45-.01-.18-2.74-.19-5.45-.03-8.18,.17-2.71,.15-5.44,.21-8.16,.05-2.17,.09-4.35,.13-6.63,.02-.94,.74-1.72,1.68-1.81,.73-.07,1.45-.14,2.17-.19,3.55-.29,7.17,.35,10.24,2.16,1.69,1,3.13,2.26,4.22,3.94,1.46,2.24,1.97,4.81,1.39,7.34Z"/>
    <path d="M153.57,137.74c2.16,0,4.3-.23,6.45-.19,.43,0,.88-.03,1.3-.14,.35-.09,.79-.25,.94-.52,.25-.43,0-.84-.46-1.1-.51-.29-.99-.62-1.5-.9-.34-.19-.74-.29-1.07-.49-1.72-1.03-3.41-2.12-5.16-3.11-3.5-1.98-7.02-3.93-10.54-5.87-1.78-.98-3.59-1.91-5.37-2.9-1.16-.64-2.28-1.35-3.73-2.22,4.92-.6,11.88-8.25,12.36-13.9-.04-2.94-.83-5.76-2.52-8.23-.66-.97-1.44-1.84-2.13-2.8-.9-1.26-2.04-2.26-3.33-3.07-1.45-.91-2.95-1.78-4.52-2.46-1.52-.66-3.13-1.25-4.76-1.54-1.99-.35-4.03-.47-6.09-.23-1.67,.2-3.28,.55-4.82,1.16-1.09,.43-2.08,1.15-3.18,1.5-.94,.3-1.06,.84-1.06,1.66,.03,4.89,.06,9.78,.02,14.68-.02,2.83-.29,5.66-.04,8.49,0,.1-.02,.2-.02,.3-.03,2.45-.06,4.91-.09,7.36-.02,2.37-.06,4.74-.05,7.11,0,1.46,.08,2.92,.13,4.38,.03,.81,.5,1.13,1.27,1.11,.63-.02,1.25-.05,1.88-.04,1.87,0,3.73,.02,5.6,.06,.74,.01,1.09-.3,1.12-1.04,.05-1.03,.16-2.05,.2-3.08,.08-1.92,.11-3.84,.18-5.76,.02-.47,.13-.94,.22-1.56,1.56,.97,3.02,1.7,4.37,2.67,1.61,1.16,3.39,2.09,5.11,3.09,1.13,.66,2.2,1.39,3.29,2.11,1.66,1.11,3.41,2.09,5.14,3.1,.75,.44,1.57,.75,2.28,1.24,1.05,.74,2.17,1.09,3.45,1.03,1.71-.08,3.42,.1,5.12,.1Zm-19.69-29.3c-1.87,2.7-4.46,4.24-7.8,4.4-.14,0-.28-.05-.59-.1-.62-.06-.64-3.53-.58-7.47-.03-2.29,.04-4.59,.08-6.88,0-.24,.07-.48,.12-.78,3.38-.54,6.05,.77,8.33,3.06,1.7,1.71,2.11,5.36,.44,7.78Z"/>
    <path d="M97.36,127.04c.73,.31,1.58,.55,2.69,.39,1.96-.28,3.99-.05,5.99-.06,.27,0,.54-.07,.8-.13,.16-.04,.28-.19,.28-.36,0-.43,0-.78,0-1.13,.05-1.9,.31-3.79-.07-5.71-.29-1.47-.2-3-.5-4.49-.25-1.23-.05-2.57-.42-3.74-.7-2.19-.73-4.52-1.8-6.64-1.07-2.13-1.63-4.52-2.77-6.6-1.08-1.97-2.25-3.95-4.04-5.45-1.45-1.21-2.77-2.46-4.71-3.06-2.35-.73-4.6-.61-6.6,.44-2.47,1.31-4.55,3.22-6.12,5.65-1.21,1.88-2.25,3.84-3,5.93-.84,2.35-1.58,4.73-2.26,7.13-.39,1.38-.69,2.79-.88,4.21-.34,2.63-.67,5.26-.9,7.9-.04,.42-.05,.84-.05,1.26,0,2.07,0,3.42,0,5.53,0,.18,.14,.34,.32,.36,1.32,.17,2.46,.42,3.57,.36,1.46-.09,2.92-.26,4.39-.21,.29,0,.58-.04,.9-.11,.38-.08,.66-.39,.7-.77l.16-1.54s0-.03,0-.04c.61-2.8,1.2-5.6,1.75-8.41,.32-1.66,.57-3.33,.86-5.07,.03-.17,.17-.29,.34-.3,.65-.04,1.28-.08,1.91-.09,1.3-.02,2.58,.37,3.9-.06,.77-.25,1.66,.4,1.9,1.24,.36,1.27,.66,2.56,.96,3.84,.42,1.77,.78,3.55,1.22,5.3,.35,1.36,.79,2.69,1.24,4.2,.03,.1,.11,.19,.21,.23Zm-4.25-21.35c-.03,.19-.19,.33-.38,.32-1.99-.09-3.94-.18-6.04-.27-.22,0-.38-.21-.35-.42,.25-1.6,.47-3.16,.75-4.71,.14-.82,.55-1.48,1.11-2.02,1.05-1.02,2.79-.93,3.72,.19,1.31,1.59,1.06,3.58,1.31,5.45,.06,.44-.05,.89-.13,1.46Z"/>
    <path d="M1.51,52.77c1.43,1.36,2.23,3.04,3.29,4.59,1.11,1.62,2.02,3.36,3.23,4.92,.77,.99,1.3,2.07,1.99,3.08,1.12,1.65,2.42,3.2,3.53,4.86,1.25,1.86,2.3,3.83,3.57,5.68,1.96,2.87,4.01,5.7,6.06,8.53,.59,.81,1.26,1.5,2.61,1.34,2.73-.33,5.49-.54,8.22-.89,.45-.06,1.1-.52,1.18-.87,.47-2.21,.8-4.45,1.2-6.67,.65-3.62,1.3-7.24,2-10.85,.5-2.55,1.19-5.08,1.64-7.64,.6-3.45,.95-6.92,1.75-10.35,.62-2.67,.89-5.41,1.4-8.1,.66-3.48,1.4-6.95,2.11-10.43,.36-1.78,.65-3.58,1.13-5.34,.25-.91-.14-1.35-.96-1.63-.53-.19-1.11-.37-1.68-.38-2.69-.04-5.38-.02-7.8-.02-2.44,1.64-2.87,3.71-3.03,6.07-.2,2.96-.93,5.9-1.46,8.84-.17,.94-.47,1.86-.59,2.8-.23,1.76-.2,3.56-.59,5.28-.81,3.57-1.38,7.15-1.5,10.78,0,.18-.05,.38-.13,.55-.89,1.81-.75,3.79-1.16,5.67-.39,1.79-.54,3.61-.84,5.41-.08,.5-.32,.98-.59,1.77-.36-.52-.52-.72-.64-.94-1.88-3.56-3.77-7.11-5.63-10.68-.63-1.2-1.14-2.45-1.77-3.66-.81-1.56-1.75-3.08-2.5-4.66-.75-1.57-.97-1.8-2.98-1.75-1.52,.04-3.04,.19-4.56,.23-2.03,.07-4.06,.06-6.09,.13-1.71,.06-2.34,.99-1.61,2.33,.37,.68,.65,1.46,1.21,1.99Z"/>
    <path d="M160.71,114.7l-.02-4.07c.04-1.04,.05-2.08-.02-3.13l-.02-3.76c.03-.57,.06-1.14,.07-1.71,.03-2.74,.03-5.48,0-8.22-.03-2.6-.11-5.2-.15-7.8,0-.63,.06-1.26,.06-1.89,0-.49,.04-1.02-.11-1.47-.09-.27-.61-.68-.79-.61-2.37,.22-4.17,.57-6.28,.65-1.51,.06-2.41,1.1-2.39,2.64,.02,1.75,.03,3.5,.11,5.25,.04,.76,.09,1.52,.14,2.29l.6,18.01c0,.16,0,.33,0,.49,.03,1.06,.07,2.12,.11,3.18l.39,11.82c.01,.4,.22,.75,.56,.96,1.7,1.04,3.25,1.97,4.76,2.96,.7,.46,1.37,.63,2.03,.52,.53-.09,.92-.54,.96-1.08,.03-.46,.06-.89,.05-1.32l-.06-9.52c.02-.8,.05-1.61,.06-2.41,0-.59-.04-1.18-.08-1.77Z"/>
    <path d="M238.96,2.25c-1.88-.59-3.68-1.4-5.54-2.08-1.55-.57-3.22,.34-3.42,1.92-.21,1.63-.27,3.28-.39,4.92-.13,1.67-.25,3.35-.38,5.02-.13,1.64-.28,3.29-.4,4.93-.1,1.31-.13,2.62-.25,3.92-.13,1.37-.47,2.71-.25,4.12,.16,1.03,.16,1.14,1.07,1.28,1.06,.17,2.11,.39,3.14,.65,1.28,.33,2.07-.18,2.19-1.52,.01-.15-.03-.3,.01-.44,.62-2.18,1.25-4.36,1.87-6.55,.18-.65,.36-1.29,.54-1.94,.77-2.73,1.01-5.59,2.22-8.21,.54-1.17,.71-2.51,1.04-3.75-.06-1.66,.13-1.79-1.46-2.28Z"/>
    <path d="M170.86,87.52c.45-.07,.63-.09,1.01-.37,.25-.19,.43-.39,.76-.47,.43-.1,.75-.3,.84-.72,.06-.29,.18-.56,.23-.86,.05-.3,.29-.56,.25-.89,0-.02,.03-.06,.05-.08,.06-.14,.13-.29,.2-.43,.14-.29,.14-.63,.27-.91,.06-.14,.11-.28,.1-.43-.05-.72,.15-1.42,.08-2.13-.05-.4,.2-.81,.06-1.21,0-.02,.01-.05,.01-.07l.71-12.46c0-.17,.04-.33,.1-.49,.68-2.04,1.01-4.55,1.02-7.51,0-.08,0-.17,.02-.25,2.06-14.7,2.81-20.83,2.78-24.96,.01-.02,.01-.06,.01-.08,0-.08-.01-.15-.01-.22-.02-1.51-.15-2.75-.36-4.08-.05-.47-.06-.94-.14-1.42-.1-.51-.18-1.04-.43-1.53-.1-.21-.21-.43-.33-.62-.16-.24-.37-.45-.52-.68-.22-.35-.5-.67-.81-.97-.28-.27-.62-.45-1-.53l-1.02-.21c-.69-.12-1.38-.07-2.06,.01-.36,.03-.7,.06-1.05,.06-.28,0-.54-.06-.81-.08-.32-.03-.64-.06-.97-.07-.25-.02-.49-.03-.74-.03-.18-.01-.37,.01-.55,0-.35-.03-.69-.07-1.04-.1-.45-.01-.74,.16-.96,.47-.24,.32-.51,.63-.81,.9-.59,.54-1.06,1.13-1.25,1.86-.01,.03-.05,.07-.06,.12-.13,.21-.25,.43-.36,.64-.18,.36-.33,.74-.54,1.08-.35,.54-.47,1.13-.49,1.73,0,.21,.01,.41-.05,.62-.01,.03-.03,.06-.02,.09,1.36,17.77-.7,22.41,1.16,34.92,.31,2.37,.99,7.12,1.45,13.19,.3,2.85,.89,5.74,1.48,6.73,.06,.1,.13,.18,.2,.27,.3,.35,.61,.69,.92,1.03,.31,.32,.72,.59,1.17,.78,.22,.09,.39,.25,.63,.3l.85,.07Z"/>
    <path d="M169.46,10.72c.08,.35,.09,.69,.1,1.05,.02,.83,.04,1.65,.06,2.48-.13,.52-.25,1.07-.21,1.61,.03,.5,.23,.94,.24,1.43v.27c-.04,.53-.13,1.07-.04,1.59,0,.06,.03,.12,.04,.18v.2c0,.29,.16,.52,.38,.6,.11,.12,.23,.21,.37,.24,.45,.08,.96,.04,1.42-.03,.2-.03,.39-.09,.57-.18,.16,0,.3-.1,.4-.25,.1-.09,.19-.18,.27-.3,.31-.45,.39-.97,.47-1.53,.07-.53,.24-.96,.46-1.42,.27-.56,.46-1.11,.57-1.75,.11-.61,.21-1.23,.32-1.84,.37-.3,.54-.75,.61-1.27,.07-.52,.17-.97,.37-1.44,.43-1.01,.86-1.93,.95-3.08,.02-.26,.03-.55-.03-.82-.01-.1-.04-.19-.09-.28-.06-.13-.14-.26-.26-.35-.36-.27-.95-.27-1.37-.23-.23,.02-.44,.08-.66,.15-.23,.07-.43-.03-.66-.09-.5-.11-.99-.04-1.49,.06-.53,.1-1.03,.16-1.56,.03-.25-.06-.5-.08-.71,.09-.41,.17-.54,.92-.62,1.42-.12,.76-.03,1.56-.03,2.34,0,.38,.06,.75,.14,1.12Z"/>
    <path d="M186.75,12.25c-.14-.14-.29-.25-.45-.36-.16-.12-.23-.31-.34-.49-.24-.4-.55-.68-.89-.96-.36-.3-.67-.6-.92-1.02-.12-.2-.25-.38-.45-.43-.28-.15-.64,.07-.92,.28h0s-.02,.01-.04,.02c-.03,.02-.06,.04-.08,.06-.01,0-.02,.02-.03,.03-2.02,1.64-6.61,6.53-5.69,7.7h0c.02,.06,.04,.12,.07,.17,.22,.35,.54,.66,.84,.93,.13,.11,.27,.21,.42,.28,.05,.05,.11,.09,.17,.11,1.05,.42,4.42-1.72,7.54-3.6h0c.35-.16,.69-.36,1-.66,.14-.13,.28-.29,.38-.47,.04-.06,.07-.14,.08-.21,.03-.11,.04-.23,.01-.36-.08-.39-.43-.78-.68-1.04Z"/>
    <path d="M158.06,12.95c.12-.12,.25-.21,.38-.3,.14-.1,.2-.26,.29-.41,.2-.33,.46-.57,.74-.8,.3-.25,.56-.5,.77-.86,.1-.17,.21-.32,.38-.36,.23-.13,.54,.06,.77,.24h0s.02,.01,.03,.02c.02,.02,.05,.04,.07,.05,0,0,.02,.02,.03,.03,1.69,1.38,5.54,5.47,4.77,6.46h0s-.03,.1-.06,.14c-.19,.29-.45,.56-.7,.78-.11,.1-.23,.17-.35,.24-.04,.04-.09,.07-.14,.09-.88,.35-3.7-1.44-6.32-3.02h0c-.29-.14-.57-.3-.84-.55-.12-.11-.23-.24-.31-.39-.03-.05-.06-.11-.07-.18-.02-.1-.03-.2-.01-.3,.07-.33,.36-.66,.57-.87Z"/>
    <path d="M204.49,110.12c-1.02-5.8-4.05-10.26-9.28-13.04-5.94-3.15-12.18-3.35-18.47-1.25-5.62,1.87-9.55,5.63-11.57,11.24-1.46,4.06-1.69,8.25-.88,12.48,.81,4.22,2.73,7.84,6.06,10.62,3.97,3.32,8.63,4.65,13.72,4.69,2.74,.04,5.4-.37,7.98-1.27,4.87-1.7,8.58-4.76,10.78-9.48,2.09-4.47,2.51-9.18,1.66-14Zm-33.44,5.71c-.52-.7-.54-1.57-.07-2.28,.48-.72,1.38-1.06,2.27-.78,1.17,.37,2.15,1.05,3.22,1.99-1.1,.61-2.08,1.23-3.13,1.7-.87,.39-1.78,.06-2.29-.64Zm6.73,8.09c-.44,.76-1.28,1.14-2.06,.99-.82-.16-1.44-.8-1.6-1.65-.14-.75,.23-1.57,.97-2.01,1.08-.64,2.3-.8,3.63-.95-.14,1.32-.3,2.53-.94,3.61Zm.84-14.95c-1.22-.09-2.42-.29-3.51-.9-.74-.41-1.14-1.25-1.01-1.99,.15-.84,.79-1.52,1.57-1.67,.87-.16,1.74,.16,2.09,1,.46,1.1,.74,2.27,1.1,3.4-.08,.05-.16,.1-.25,.16Zm4.6-7.66c.66-.48,1.54-.5,2.23-.06,.69,.44,1.02,1.23,.84,2.06-.28,1.27-1.06,2.24-1.9,3.33-.86-1.04-1.59-2.02-1.92-3.23-.22-.81,.08-1.62,.75-2.1Zm2.2,26.76c-.73,.44-1.46,.41-2.17-.05-.66-.44-1-1.3-.79-2.08,.33-1.23,1.07-2.23,1.91-3.26,.86,1.05,1.65,2.06,1.93,3.36,.17,.81-.18,1.61-.88,2.04Zm5.46-22.49c.36-.93,1.21-1.31,2.14-1.17,.75,.11,1.44,.76,1.58,1.5,.19,.97-.19,1.76-1.11,2.24-1.05,.55-2.18,.74-3.62,.84,.36-1.25,.6-2.36,1.01-3.41Zm3.69,17.95c-.24,.84-1.12,1.52-2.01,1.37-.5-.09-1.1-.35-1.4-.74-.85-1.09-1-2.44-1.13-4.02,1.25,.36,2.35,.58,3.38,.99,1.01,.4,1.42,1.42,1.15,2.39Zm3.14-7.71c-.52,.71-1.41,1.05-2.29,.66-1.05-.46-2.03-1.09-3.15-1.7,1.1-.94,2.07-1.65,3.25-2,.9-.27,1.78,.07,2.26,.81,.43,.66,.41,1.6-.06,2.24Z"/>
    <path d="M226.96,10.71c-1.11-.26-2.12-.46-3.1-.73-1.71-.46-3.39-.99-5.1-1.45-1.02-.27-1.54,.03-1.61,1.02-.2,2.9-.99,5.74-.93,8.67,0,.25,0,.54-.11,.74-.7,1.18-.39,2.52-.6,3.77-.2,1.25-.26,2.53-.43,3.79-.28,2.1-.65,4.2-.9,6.31-.27,2.21-.39,4.43-.68,6.64-.44,3.42-1.03,6.81-1.45,10.22-.49,3.96-.87,7.94-1.25,11.92-.05,.55-.24,.94-.71,1.43-.52-2.03-1.01-3.89-1.48-5.74-.15-.61-.27-1.25-.43-1.87-.63-2.35-1.27-4.68-1.91-7.03-.21-.73-.43-1.45-.61-2.19-.32-1.27-.43-2.63-.96-3.79-.92-2-1.21-4.14-1.81-6.19-.57-1.92-.96-3.89-1.48-5.81-.63-2.36-1.37-4.69-1.95-7.06-.48-1.94-.94-3.89-1.62-5.77-.07-.2-.29-.31-.49-.25l-.81,.22s-.06,.02-.09,.04c-.3,.19-.67,.28-1.04,.37-1.54,.39-3.07,.88-4.6,1.31-.94,.26-1.9,.49-2.85,.72l-1.23,.4c-.08,.03-.15,.1-.16,.18l-.2,1.01,.03,.05s-.03,.06-.03,.09c-.07,1.62-.06,3.25-.05,4.87,.03,2.82,.14,5.65,.11,8.48-.03,3.47-.17,6.94-.24,10.41-.03,2,0,3.99,.02,5.99,.02,2.46,.06,4.93,.05,7.39,0,3.56-.07,7.13-.09,10.69-.02,4.58-.04,9.17-.05,13.75,0,1.71,0,3.4,0,5.07,0,.11,.04,.21,.12,.29,.66,.63,1.51,.28,2.25,.38,2.17,.26,1.36,.4,3.53,.68,.83,.1,1.17-.14,1.28-.95,.27-1.93,.72-3.8,.74-5.79,.02-1.21,.3-2.49,.41-3.74,.08-.83,.24-1.66,.3-2.5,.19-2.3,.33-4.61,.54-6.91,.22-2.58,.47-5.15,.74-7.73,.12-1.18,.29-2.35,.46-3.52,.09-.63,.32-1.24,.36-1.87,.07-1.1,.02-2.22,.08-3.32,.04-.86,.16-1.71,.28-2.94,.24,.64,.41,.93,.46,1.23,.35,2.04,.65,4.09,1,6.13,.5,2.91,1.01,5.82,1.57,8.72,.54,2.79,1.18,5.57,1.72,8.37,.6,3.18,1.08,6.38,1.69,9.56,.64,3.32,1.37,6.63,2.04,9.96,.27,1.35,.46,2.72,.71,4.08,.5,2.7,1.01,5.4,1.52,8.11,.24,1.25,.46,.5,.71,1.76,.02,.11,.08,.12,.12,.12,1.46,0,2.72,0,3.99,0,2.01-.01,4.07,.37,5.97-.59,.16-.08,.25-.27,.21-.45-.06-.3-.13-.56-.11-.82,.06-.64,.42-1.3,.3-1.87-.38-1.87,.28-3.64,.39-5.46,.12-1.99,.05-3.98,.55-5.97,.38-1.5,.14-1.17,.44-2.71,.3-1.59,.09-3.18,.4-4.79,.49-2.53,.46-5.15,.64-7.74,.13-1.86,.21-3.73,.38-5.59,.37-4.26,.79-8.51,1.18-12.77,.05-.54-.02-1.09,.04-1.62,.34-3.23,.72-6.47,1.05-9.7,.07-.67-.11-1.37-.04-2.03,.14-1.53,.38-3.04,.55-4.55,.16-1.31,.33-2.63,.42-3.94,.25-3.48,.43-6.94,.71-10.41,.24-2.98,.55-5.95,.83-8.93,.09-.93,.24-1.84,.32-2.76,.13-1.55,.22-3.1,.33-4.66,.01-.2-.12-.38-.32-.42Z"/>
    <path d="M124,62.71c.14-3.04,0-6.08,.03-9.13,.01-.9-.71-1.66-1.62-1.67-2.39-.03-4.78-.02-7.17,.01-3,.02-6.01,.09-9.02,.12-1.69,.02-2.09,.27-2.09,1.87,0,1.86-.09,3.73,.23,5.66,.19,1.16,1.1,2.12,2.28,2.2h.02c.51,.04,1.04-.17,1.55-.15,2.51,.07,5.02,.18,7.7,.28,.06,.44,.18,.9,.19,1.36,.03,.93-.02,1.87,0,2.8,.07,2.35,.08,4.7-.38,7.01-.14,.74-.37,1.48-.67,2.19,0,.01-.01,.01-.01,.02-.15,.37-.32,.72-.5,1.07-.04,.08-.09,.17-.15,.26-.35,.57-.9,1.15-1.47,1.35-1.94,.67-3.87,1.5-6.03,1.19-.71-.1-1.48,.03-2.17-.15-.84-.23-1.65-.61-2.41-1.03-.54-.3-1.16-.69-1.4-1.2-.03-.05-.05-.11-.07-.16-.15-.31-.3-.63-.43-.95-.43-.98-.76-1.99-.72-3.1,.02-.58,.15-1.17,.13-1.75-.02-.82-.2-1.64-.2-2.47,0-3.01,.04-6.03,.08-9.05,.05-3.13,.12-6.27,.15-9.41,.03-3.27-.09-6.53,.06-9.8,.04-.9-.03-1.8-.06-2.71-.05-1.21,.57-2.23,1.19-2.92,1.6-1.76,3.76-2.63,6.2-2.55,.54,.02,1.14,.02,1.6,.25,3.07,1.57,4.84,4.21,5.51,7.5,.4,1.96,.74,3.98,.44,6.03-.02,.16,.13,.35,.24,.59h8.01c0-.6-.02-.97,.01-1.33,.11-1.41,.44-2.81,.13-4.25-.17-.75-.15-1.55-.19-2.33-.05-.85,.04-1.73-.14-2.55-.41-1.95-.99-3.87-1.68-5.74-.22-.61-.35-1.29-.72-1.79-1.79-2.42-3.6-4.84-6.72-5.86-.75-.24-1.45-.63-2.11-1.07-1.64-1.07-3.47-1.17-5.3-1.33-1.69-.14-3.28,.47-4.92,.74-.58,.09-1.19,.14-1.71,.38-1.48,.69-2.94,1.42-4.34,2.23-.63,.36-1.18,.91-1.64,1.47-.57,.68-1.04,1.44-1.5,2.21-.57,.96-1.09,1.94-1.51,2.96-.44,.46-.7,1.09-.78,1.78-.78,7.25-.89,14.6-1.05,21.88-.07,3.34-.12,6.68-.16,10.01-.03,2.54-.06,5.08,.15,7.61,.12,1.4,.13,3.05,.66,4.31h-.03c0,.12,.03,.24,.05,.36,.08,.6,.21,1.21,.37,1.8,.05,.17,.09,.33,.16,.5,.11,.34,.22,.67,.35,1,.85,2.17,2.21,4.04,4.19,5.49,.38,.28,.82,.47,1.2,.76,2.52,1.95,5.56,2.33,8.59,2.4,2.04,.04,4.12-.47,6.15-.9,1.24-.27,2.46-.79,3.6-1.36,1.33-.64,2.55-1.47,3.81-2.22,.23-.14,.45-.3,.65-.5,1.14-1.11,2.23-2.25,3.23-3.49,.01-.01,.02-.03,.04-.05,.24-.35,.54-.85,.76-1.2,.33-.52,.62-.9,.88-1.43,0-.01,.01-.01,.01-.02,.1-.34,.18-.68,.25-1.03,.15-.78,.24-1.59,.26-2.41,.1-3.54-.2-7.06-.04-10.6Z"/>
    <path d="M160.01,57.57c.13-2.84,0-5.68,.03-8.54,0-.84-.66-1.55-1.51-1.56-2.23-.03-4.47-.02-6.7,0-2.81,.02-5.62,.08-8.43,.11-1.58,.02-1.95,.25-1.95,1.75,0,1.74-.08,3.49,.22,5.29,.18,1.08,1.03,1.98,2.13,2.06h.02c.48,.04,.97-.16,1.45-.14,2.35,.07,4.69,.17,7.2,.26,.06,.41,.17,.84,.18,1.27,.03,.87-.02,1.75,0,2.62,.07,2.2,.07,4.39-.36,6.55-.13,.69-.35,1.38-.63,2.05,0,0,0,0,0,.02-.14,.35-.3,.67-.47,1-.04,.07-.08,.16-.14,.24-.33,.53-.84,1.08-1.37,1.26-1.81,.63-3.62,1.4-5.64,1.11-.66-.09-1.38,.03-2.03-.14-.79-.22-1.54-.57-2.25-.96-.5-.28-1.08-.65-1.31-1.12-.03-.05-.05-.1-.07-.15-.14-.29-.28-.59-.4-.89-.4-.92-.71-1.86-.67-2.9,.02-.54,.14-1.09,.12-1.64-.02-.77-.19-1.53-.19-2.31,0-2.81,.04-5.64,.07-8.46,.05-2.93,.11-5.86,.14-8.8,.03-3.06-.08-6.11,.06-9.16,.04-.84-.03-1.68-.06-2.53-.05-1.13,.53-2.09,1.11-2.73,1.5-1.65,3.52-2.46,5.8-2.38,.5,.02,1.07,.02,1.5,.23,2.87,1.47,4.53,3.94,5.15,7.01,.37,1.83,.69,3.72,.41,5.64-.02,.15,.12,.33,.22,.55h7.49c0-.56-.02-.91,0-1.24,.1-1.32,.41-2.63,.12-3.97-.16-.7-.14-1.45-.18-2.18-.05-.79,.04-1.62-.13-2.38-.38-1.82-.93-3.62-1.57-5.37-.21-.57-.33-1.21-.67-1.67-1.67-2.26-3.37-4.53-6.28-5.48-.7-.22-1.36-.59-1.97-1-1.53-1-3.24-1.09-4.96-1.24-1.58-.13-3.07,.44-4.6,.69-.54,.08-1.11,.13-1.6,.36-1.38,.65-2.75,1.33-4.06,2.09-.59,.34-1.1,.85-1.53,1.37-.53,.64-.97,1.35-1.4,2.07-.54,.9-1.02,1.82-1.41,2.77-.41,.43-.66,1.02-.73,1.66-.73,6.78-.83,13.65-.98,20.46-.07,3.12-.11,6.24-.15,9.36-.03,2.37-.06,4.75,.14,7.12,.11,1.31,.12,2.85,.62,4.03h-.03c0,.11,.03,.22,.05,.34,.07,.56,.2,1.13,.35,1.68,.05,.16,.08,.31,.15,.47,.1,.32,.21,.63,.33,.94,.79,2.03,2.07,3.78,3.92,5.13,.36,.26,.77,.44,1.12,.71,2.36,1.82,5.2,2.18,8.03,2.24,1.91,.04,3.85-.44,5.75-.84,1.16-.25,2.3-.74,3.37-1.27,1.24-.6,2.38-1.37,3.56-2.08,.22-.13,.42-.28,.61-.47,1.07-1.04,2.09-2.1,3.02-3.26,0,0,.02-.03,.04-.05,.22-.33,.5-.79,.71-1.12,.31-.49,.58-.84,.82-1.34,0,0,0,0,0-.02,.09-.32,.17-.64,.23-.96,.14-.73,.22-1.49,.24-2.25,.09-3.31-.19-6.6-.04-9.91Z"/>
  </g>
  <g>
    <path d="M48.22,157.57l2.86-7.42c.12-.35,.39-.57,1.26-.57s1.12,.22,1.24,.57l2.92,7.41c.07,.16-.47,.6-1.04,.6-.42,0-.84-.22-1.1-.91l-.51-1.31h-3.05l-.52,1.34c-.23,.66-.64,.88-1.04,.88-.55,0-1.07-.42-1.01-.58Zm5.23-3.08l-1.14-3.06-1.14,3.06h2.29Z"/>
    <path d="M65.13,158.25c-.25,0-.53-.12-.82-.38l-.33-.29c-.64,.42-1.42,.66-2.25,.66-2.54,0-4.34-1.79-4.34-4.38s1.82-4.39,4.36-4.39,4.32,1.81,4.32,4.38c0,1-.32,1.91-.87,2.64l1.01,1.07c.05,.06-.36,.69-1.08,.69Zm-2.31-1.99l-.9-.95c-.23-.33-.27-.77,.03-1.03l.08-.06c.31-.27,.69-.18,.96,.06l.88,.92c.23-.36,.35-.82,.35-1.35,0-1.56-1.01-2.69-2.46-2.69s-2.46,1.13-2.46,2.7,1,2.68,2.42,2.68c.42,0,.78-.1,1.09-.29Z"/>
    <path d="M67.7,150.47c0-.58,.31-.87,.83-.87h.25c.55,0,.83,.29,.83,.87v4.04c0,1.34,.57,2.03,1.7,2.03s1.7-.66,1.7-2.04v-4.03c0-.58,.3-.87,.83-.87h.26c.55,0,.82,.29,.82,.87v4.04c0,2.42-1.25,3.69-3.63,3.69s-3.6-1.25-3.6-3.68v-4.06Z"/>
    <path d="M76.75,148.82c0-.4,.95-2.15,2.01-2.15,.47,0,.77,.31,.77,.74,0,1-1.98,1.59-2.51,1.59-.18,0-.27-.04-.27-.18Zm.25,1.65c0-.58,.29-.87,.82-.87h.26c.56,0,.84,.29,.84,.87v6.77c0,.57-.29,.87-.84,.87h-.26c-.53,0-.82-.3-.82-.87v-6.77Z"/>
    <path d="M83.78,157.25v-6.7c0-.61,.3-.95,.83-.95h.23c.49,0,.68,.17,.97,.55l3.63,5.01v-4.68c0-.57,.26-.87,.82-.87h.18c.52,0,.79,.3,.79,.87v6.7c0,.62-.31,.95-.82,.95h-.16c-.49,0-.64-.13-.91-.48l-3.77-5.19v4.8c0,.57-.29,.87-.83,.87h-.18c-.53,0-.79-.3-.79-.87Z"/>
    <path d="M92.97,153.86c0-2.56,1.82-4.39,4.34-4.39s4.32,1.81,4.32,4.38-1.79,4.39-4.33,4.39-4.33-1.81-4.33-4.38Zm6.76,0c0-1.59-1-2.69-2.43-2.69s-2.42,1.07-2.42,2.68,.99,2.69,2.43,2.69,2.42-1.08,2.42-2.68Z"/>
    <path d="M106.09,157.25v-6.77c0-.58,.29-.87,.81-.87h.27c.56,0,.84,.29,.84,.87v2.56h3.63v-2.56c0-.58,.27-.87,.79-.87h.29c.55,0,.83,.29,.83,.87v6.77c0,.57-.29,.87-.83,.87h-.29c-.52,0-.79-.3-.79-.87v-2.59h-3.63v2.59c0,.57-.29,.87-.84,.87h-.27c-.52,0-.81-.3-.81-.87Z"/>
    <path d="M114.95,157.57l2.86-7.42c.12-.35,.39-.57,1.26-.57s1.12,.22,1.24,.57l2.92,7.41c.07,.16-.47,.6-1.04,.6-.42,0-.84-.22-1.1-.91l-.51-1.31h-3.05l-.52,1.34c-.23,.66-.64,.88-1.04,.88-.55,0-1.07-.42-1.01-.58Zm5.23-3.08l-1.14-3.06-1.14,3.06h2.29Z"/>
    <path d="M125.89,157.25v-2.56l-2.94-4.33c-.07-.12,.27-.75,1.22-.75,.34,0,.66,.21,.91,.68l1.75,2.87,1.78-2.87c.29-.49,.61-.68,.92-.68,.87,0,1.24,.65,1.17,.75l-2.91,4.33v2.56c0,.57-.29,.87-.83,.87h-.27c-.53,0-.81-.3-.81-.87Z"/>
    <path d="M134.36,157.01v-6.29c0-.68,.38-1.07,1-1.07h4.68c.6,0,.88,.26,.88,.77v.07c0,.52-.29,.77-.88,.77h-3.77v1.78h2.76c.62,0,.88,.23,.88,.71v.04c0,.51-.27,.74-.88,.74h-2.76v1.96h3.83c.6,0,.87,.22,.87,.72v.06c0,.53-.27,.79-.87,.79h-4.75c-.62,0-1-.38-1-1.05Z"/>
    <path d="M144.7,153.86l-2.52-3.52c-.08-.13,.51-.74,1.2-.74,.4,0,.75,.19,1.04,.68l1.6,2.44,1.68-2.46c.26-.47,.64-.68,1-.68,.65,0,1.22,.61,1.14,.74l-2.56,3.55,2.56,3.52c.08,.12-.49,.73-1.17,.73-.38,0-.78-.18-1.05-.68l-1.66-2.46-1.68,2.47c-.3,.52-.65,.69-1,.69-.66,0-1.22-.61-1.14-.74l2.57-3.55Z"/>
    <path d="M155.18,149.47c1.12,0,1.92,.31,2.46,.7,.52,.39,.77,.86,.77,1.21,0,.84-1.08,1.04-1.1,.98-.42-.74-1.2-1.14-2.05-1.14-1.4,0-2.42,1.05-2.42,2.64s1.04,2.65,2.44,2.65c.97,0,1.75-.48,2.08-1.26,.03-.08,1.14,.12,1.14,.96,0,.36-.26,.87-.81,1.29s-1.38,.75-2.54,.75c-2.55,0-4.3-1.81-4.3-4.38s1.77-4.39,4.33-4.39Z"/>
    <path d="M160,150.47c0-.58,.31-.87,.83-.87h.25c.55,0,.83,.29,.83,.87v4.04c0,1.34,.57,2.03,1.7,2.03s1.7-.66,1.7-2.04v-4.03c0-.58,.3-.87,.83-.87h.26c.55,0,.82,.29,.82,.87v4.04c0,2.42-1.25,3.69-3.63,3.69s-3.6-1.25-3.6-3.68v-4.06Z"/>
    <path d="M168.77,156.54c0-.53,.66-1.01,.73-.95,.51,.6,1.47,1.13,2.5,1.13s1.53-.36,1.53-1.01c0-.75-.84-.91-1.83-1.13-1.34-.3-2.72-.79-2.72-2.52,0-1.56,1.25-2.59,3.28-2.59,1.13,0,1.94,.27,2.42,.62,.4,.27,.58,.61,.58,.92,0,.6-.71,1.04-.75,1-.49-.58-1.34-1.03-2.24-1.03s-1.46,.38-1.46,.99c0,.73,.75,.83,1.79,1.07,1.52,.34,2.85,.96,2.85,2.55,0,1.68-1.24,2.65-3.45,2.65-1.3,0-2.21-.34-2.72-.77-.36-.29-.52-.62-.52-.94Z"/>
    <path d="M176.34,157.57l2.86-7.42c.12-.35,.39-.57,1.26-.57s1.12,.22,1.24,.57l2.92,7.41c.07,.16-.47,.6-1.04,.6-.42,0-.84-.22-1.1-.91l-.51-1.31h-3.05l-.52,1.34c-.23,.66-.64,.88-1.04,.88-.55,0-1.07-.42-1.01-.58Zm5.23-3.08l-1.14-3.06-1.14,3.06h2.29Z"/>
    <path d="M185.52,156.54c0-.53,.66-1.01,.73-.95,.51,.6,1.47,1.13,2.5,1.13s1.53-.36,1.53-1.01c0-.75-.84-.91-1.83-1.13-1.34-.3-2.72-.79-2.72-2.52,0-1.56,1.25-2.59,3.28-2.59,1.13,0,1.94,.27,2.42,.62,.4,.27,.58,.61,.58,.92,0,.6-.71,1.04-.75,1-.49-.58-1.34-1.03-2.24-1.03s-1.46,.38-1.46,.99c0,.73,.75,.83,1.79,1.07,1.52,.34,2.85,.96,2.85,2.55,0,1.68-1.24,2.65-3.45,2.65-1.3,0-2.21-.34-2.72-.77-.36-.29-.52-.62-.52-.94Z"/>
  </g>
</svg>